<svg width="56" height="56" viewBox="0 0 56 56" fill="none" xmlns="http://www.w3.org/2000/svg">
<g id="&#229;&#156;&#134;">
<path id="Vector" d="M51.5081 32.8576L51.506 32.8676C51.1192 34.7404 50.5156 36.5353 49.7185 38.2225C48.8999 39.9621 47.8778 41.5823 46.6929 43.0535L51.5081 32.8576ZM51.5081 32.8576C51.6657 32.0846 51.7902 31.2914 51.8727 30.4791C51.9577 29.6607 52 28.8352 52 28.003C52 27.4814 51.9819 26.9723 51.9509 26.4716L51.9508 26.4704C51.734 22.9895 50.7705 19.7076 49.2249 16.7871L49.2205 16.7789C48.6634 15.7321 48.0307 14.7241 47.3272 13.7688L47.3263 13.7676C42.9653 7.85057 35.9299 4 28 4C18.4337 4 10.1861 9.59436 6.33117 17.6683L6.33116 17.6683L6.32753 17.676C5.69669 19.0044 5.17395 20.4095 4.78807 21.8809C4.27253 23.8403 4 25.8916 4 28C4 28.4346 4.01031 28.8793 4.03575 29.3312C4.34554 34.9839 6.61394 40.1197 10.164 44.0597C12.3804 46.5204 15.0987 48.5187 18.1644 49.8971L18.1646 49.8972M51.5081 32.8576L18.1646 49.8972M18.1646 49.8972C21.1686 51.2476 24.4988 52 27.9971 52C30.6094 52 33.1384 51.5828 35.5089 50.7993C38.0734 49.9561 40.4451 48.6914 42.5408 47.0926L18.1646 49.8972Z" stroke="white" stroke-opacity="0.15" stroke-width="8"/>
<g id="Vector_2">
<path d="M48 28.003C48 28.7011 47.9644 29.3903 47.8936 30.0707C47.8256 30.7422 47.722 31.4048 47.5887 32.0586C47.2661 33.6205 46.7633 35.1143 46.1005 36.5166C45.4201 37.963 44.5681 39.3149 43.5769 40.5454C42.565 41.8026 41.4025 42.9327 40.1154 43.9118C38.3668 45.246 36.3906 46.299 34.2574 47.0001C32.2899 47.6508 30.1834 48 27.9971 48C25.0769 48 22.3047 47.3728 19.8047 46.2489C17.2515 45.1009 14.9852 43.4355 13.1361 41.3826C10.1746 38.096 8.28698 33.8187 8.02959 29.1093C8.00888 28.7425 8 28.3727 8 28C8 26.2369 8.22781 24.5271 8.65681 22.8972C8.97633 21.6785 9.41125 20.507 9.94084 19.3918C13.1568 12.6561 20.0326 8 28 8C34.6065 8 40.4676 11.2037 44.1064 16.1408C44.6924 16.9366 45.2219 17.7796 45.6895 18.6582C46.9763 21.0898 47.778 23.8201 47.9586 26.7191C47.9852 27.1481 48 27.574 48 28.003Z" fill="url(#paint0_radial_2127_5139)"/>
<path d="M49.5484 32.4581L49.5474 32.4631C49.1927 34.1805 48.6394 35.8248 47.9095 37.3695M49.5484 32.4581L45.1349 41.7995C46.2229 40.4486 47.16 38.9626 47.9095 37.3695M49.5484 32.4581C49.6938 31.7447 49.8079 31.0168 49.8831 30.2749C49.9611 29.5255 50 28.7681 50 28.003C50 27.5277 49.9835 27.0602 49.9547 26.5953L49.9547 26.5948C49.756 23.4048 48.8734 20.3987 47.4572 17.7227L47.455 17.7185C46.9427 16.7559 46.3616 15.8303 45.7168 14.9548L45.7164 14.9542C41.7164 9.52712 35.2682 6 28 6C19.2331 6 11.6715 11.1252 8.136 18.5301L8.136 18.5301L8.13419 18.5339C7.55397 19.7557 7.07515 21.044 6.72244 22.3891C6.25017 24.1837 6 26.0642 6 28C6 28.4036 6.00959 28.8109 6.03267 29.2203C6.31626 34.4013 8.39425 39.1079 11.6501 42.7211C13.6828 44.978 16.1751 46.8098 18.9846 48.073L18.9847 48.0731M49.5484 32.4581L18.9847 48.0731M47.9095 37.3695C47.9098 37.369 47.91 37.3684 47.9103 37.3679L46.1005 36.5166L47.9087 37.3712C47.909 37.3706 47.9093 37.3701 47.9095 37.3695ZM18.9847 48.0731C21.7367 49.3102 24.7878 50 27.9971 50C30.3968 50 32.7149 49.6167 34.8842 48.8994L18.9847 48.0731Z" stroke="white" stroke-opacity="0.08" stroke-width="4"/>
</g>
<path id="Vector_3" d="M33.5996 13.6006C33.5996 13.7402 33.5925 13.878 33.5783 14.0141C33.5647 14.1484 33.544 14.2809 33.5173 14.4117C33.4528 14.7241 33.3523 15.0228 33.2197 15.3033C33.0836 15.5926 32.9132 15.8629 32.715 16.1091C32.5126 16.3605 32.2801 16.5865 32.0227 16.7823C31.673 17.0492 31.2777 17.2598 30.8511 17.4C30.4576 17.5301 30.0363 17.6 29.599 17.6C29.015 17.6 28.4606 17.4745 27.9606 17.2498C27.4499 17.0202 26.9967 16.6871 26.6268 16.2765C26.0345 15.6192 25.657 14.7637 25.6055 13.8218C25.6014 13.7485 25.5996 13.6745 25.5996 13.6C25.5996 13.2474 25.6452 12.9054 25.731 12.5794C25.7949 12.3357 25.8819 12.1014 25.9878 11.8783C26.631 10.5312 28.0061 9.59998 29.5996 9.59998C30.9209 9.59998 32.0931 10.2407 32.8209 11.2281C32.9381 11.3873 33.044 11.5559 33.1375 11.7316C33.3949 12.2179 33.5552 12.764 33.5913 13.3438C33.5966 13.4296 33.5996 13.5148 33.5996 13.6006Z" fill="#62F6FF"/>
</g>
<defs>
<radialGradient id="paint0_radial_2127_5139" cx="0" cy="0" r="1" gradientUnits="userSpaceOnUse" gradientTransform="translate(38.2394 9.67997) rotate(120.694) scale(40.8643 40.9923)">
<stop stop-color="#C5FFFB"/>
<stop offset="0.652128" stop-color="#217183"/>
<stop offset="1" stop-color="#2ACBCB"/>
</radialGradient>
</defs>
</svg>
