<svg width="1072" height="341" viewBox="0 0 1072 341" fill="none" xmlns="http://www.w3.org/2000/svg">
<g filter="url(#filter0_d_2154_12712)">
<path fill-rule="evenodd" clip-rule="evenodd" d="M267.916 191.29C185.196 226.188 127.764 272.05 103.874 317.11C92.4918 338.58 65.8596 346.757 44.3898 335.374C22.9201 323.992 14.7429 297.36 26.1256 275.89C63.7358 204.95 155 148.5 233.709 110.21C326.009 71.2701 437.206 48 548 48C636.98 48 739.205 70.7842 828.86 108.954C917.44 146.665 1000.79 202.425 1044.48 273.448C1057.21 294.147 1050.75 321.247 1030.05 333.978C1009.35 346.709 982.253 340.25 969.522 319.552C939.706 271.075 875.81 224.585 794.39 189.921C714.045 155.716 623.52 136 548 136C448.794 136 349.241 156.98 267.916 191.29Z" fill="url(#paint0_linear_2154_12712)" shape-rendering="crispEdges"/>
<path fill-rule="evenodd" clip-rule="evenodd" d="M267.916 191.29C185.196 226.188 127.764 272.05 103.874 317.11C92.4918 338.58 65.8596 346.757 44.3898 335.374C22.9201 323.992 14.7429 297.36 26.1256 275.89C63.7358 204.95 155 148.5 233.709 110.21C326.009 71.2701 437.206 48 548 48C636.98 48 739.205 70.7842 828.86 108.954C917.44 146.665 1000.79 202.425 1044.48 273.448C1057.21 294.147 1050.75 321.247 1030.05 333.978C1009.35 346.709 982.253 340.25 969.522 319.552C939.706 271.075 875.81 224.585 794.39 189.921C714.045 155.716 623.52 136 548 136C448.794 136 349.241 156.98 267.916 191.29Z" fill="url(#paint1_radial_2154_12712)" style="mix-blend-mode:color-dodge" shape-rendering="crispEdges"/>
<path fill-rule="evenodd" clip-rule="evenodd" d="M267.916 191.29C185.196 226.188 127.764 272.05 103.874 317.11C92.4918 338.58 65.8596 346.757 44.3898 335.374C22.9201 323.992 14.7429 297.36 26.1256 275.89C63.7358 204.95 155 148.5 233.709 110.21C326.009 71.2701 437.206 48 548 48C636.98 48 739.205 70.7842 828.86 108.954C917.44 146.665 1000.79 202.425 1044.48 273.448C1057.21 294.147 1050.75 321.247 1030.05 333.978C1009.35 346.709 982.253 340.25 969.522 319.552C939.706 271.075 875.81 224.585 794.39 189.921C714.045 155.716 623.52 136 548 136C448.794 136 349.241 156.98 267.916 191.29Z" fill="url(#paint2_radial_2154_12712)" style="mix-blend-mode:overlay" shape-rendering="crispEdges"/>
<path fill-rule="evenodd" clip-rule="evenodd" d="M267.916 191.29C185.196 226.188 127.764 272.05 103.874 317.11C92.4918 338.58 65.8596 346.757 44.3898 335.374C22.9201 323.992 14.7429 297.36 26.1256 275.89C63.7358 204.95 155 148.5 233.709 110.21C326.009 71.2701 437.206 48 548 48C636.98 48 739.205 70.7842 828.86 108.954C917.44 146.665 1000.79 202.425 1044.48 273.448C1057.21 294.147 1050.75 321.247 1030.05 333.978C1009.35 346.709 982.253 340.25 969.522 319.552C939.706 271.075 875.81 224.585 794.39 189.921C714.045 155.716 623.52 136 548 136C448.794 136 349.241 156.98 267.916 191.29Z" fill="url(#paint3_linear_2154_12712)" style="mix-blend-mode:saturation" shape-rendering="crispEdges"/>
</g>
<defs>
<filter id="filter0_d_2154_12712" x="-9.00879" y="-10" width="1090.01" height="352.509" filterUnits="userSpaceOnUse" color-interpolation-filters="sRGB">
<feFlood flood-opacity="0" result="BackgroundImageFix"/>
<feColorMatrix in="SourceAlpha" type="matrix" values="0 0 0 0 0 0 0 0 0 0 0 0 0 0 0 0 0 0 127 0" result="hardAlpha"/>
<feOffset dy="-28"/>
<feGaussianBlur stdDeviation="15"/>
<feComposite in2="hardAlpha" operator="out"/>
<feColorMatrix type="matrix" values="0 0 0 0 0.211765 0 0 0 0 0.384314 0 0 0 0 0.996078 0 0 0 0.15 0"/>
<feBlend mode="normal" in2="BackgroundImageFix" result="effect1_dropShadow_2154_12712"/>
<feBlend mode="normal" in="SourceGraphic" in2="effect1_dropShadow_2154_12712" result="shape"/>
</filter>
<linearGradient id="paint0_linear_2154_12712" x1="536" y1="80" x2="536" y2="254" gradientUnits="userSpaceOnUse">
<stop stop-color="#303FFF"/>
<stop offset="0.680163" stop-color="#303FFF" stop-opacity="0"/>
</linearGradient>
<radialGradient id="paint1_radial_2154_12712" cx="0" cy="0" r="1" gradientUnits="userSpaceOnUse" gradientTransform="translate(536 35) rotate(90.0001) scale(60 1140.05)">
<stop stop-color="white"/>
<stop offset="1" stop-color="white" stop-opacity="0"/>
</radialGradient>
<radialGradient id="paint2_radial_2154_12712" cx="0" cy="0" r="1" gradientUnits="userSpaceOnUse" gradientTransform="translate(536 41.5) rotate(90) scale(31.5 110.921)">
<stop stop-color="#FF9CFF"/>
<stop offset="1" stop-color="#FF9CFF" stop-opacity="0"/>
</radialGradient>
<linearGradient id="paint3_linear_2154_12712" x1="535.999" y1="48" x2="535.999" y2="340.509" gradientUnits="userSpaceOnUse">
<stop stop-color="#0500FF"/>
<stop offset="1" stop-color="white" stop-opacity="0"/>
</linearGradient>
</defs>
</svg>
