<svg width="190" height="190" viewBox="0 0 190 190" fill="none" xmlns="http://www.w3.org/2000/svg">
<g id="div.galaxy-logo-circle">
<g clip-path="url(#clip0_1785_19783)">
<rect width="190" height="190" rx="95" fill="url(#paint0_linear_1785_19783)"/>
<g id="logo">
<g id="Vector" filter="url(#filter0_d_1785_19783)">
<path d="M171.698 79.8819C168.236 76.8738 163.346 74.5291 157.635 73.1416C157.001 72.9862 156.357 72.8495 155.709 72.7205L155.215 72.6257C154.594 72.5076 153.962 72.3989 153.328 72.3041C152.585 72.1938 151.922 72.1145 151.257 72.043L150.743 71.9902C150.111 71.9281 149.476 71.8752 148.839 71.8348C148.047 71.7867 147.373 71.7649 146.697 71.7509H146.174C145.982 71.7509 145.791 71.7432 145.6 71.7432C145.162 71.7432 144.721 71.7509 144.283 71.7618C143.457 71.782 142.786 71.8177 142.109 71.8613L141.601 71.897C140.925 71.9483 140.249 72.0073 139.581 72.0834C133.524 72.778 127.932 74.5043 123.521 77.0556L71.9288 106.828C68.0254 109.089 63.3454 110.848 58.2072 111.982C57.6061 112.115 56.9988 112.237 56.3884 112.352C56.1911 112.389 55.9938 112.422 55.7966 112.457C55.3803 112.532 54.964 112.603 54.5446 112.67C54.3039 112.707 54.0616 112.742 53.8192 112.777C53.4387 112.832 53.055 112.885 52.6729 112.933C52.4213 112.965 52.1697 112.995 51.918 113.024C51.5297 113.069 51.1414 113.108 50.75 113.147C50.5046 113.17 50.2592 113.195 50.0122 113.216C49.5881 113.251 49.1625 113.281 48.737 113.309C48.5288 113.321 48.3222 113.338 48.1156 113.349C47.5037 113.383 46.8901 113.409 46.275 113.427C45.5698 113.447 44.9361 113.453 44.3039 113.452C43.5708 113.452 42.8345 113.438 42.1014 113.413C21.8126 112.74 5.61354 102.926 5.01708 90.9791C5.00466 90.7523 5 90.5239 5 90.2986V99.09C5 99.3168 5 99.5437 5.01708 99.7705C5.61354 111.725 21.8126 121.539 42.0998 122.21C42.833 122.237 43.5692 122.248 44.3024 122.249C44.9346 122.249 45.5683 122.249 46.2735 122.226C46.8948 122.209 47.5021 122.181 48.1141 122.147C48.3222 122.136 48.5288 122.12 48.7354 122.106C49.161 122.078 49.5866 122.049 50.0106 122.013C50.2576 121.993 50.503 121.968 50.7484 121.945C51.1378 121.907 51.5271 121.867 51.9165 121.822C52.1681 121.794 52.4198 121.763 52.6714 121.732C53.0535 121.682 53.4371 121.629 53.8177 121.576C54.06 121.541 54.3023 121.507 54.5431 121.469C54.9625 121.402 55.3787 121.331 55.795 121.256L56.3868 121.152C56.9972 121.036 57.6046 120.915 58.2057 120.782C63.3439 119.647 68.0208 117.888 71.9273 115.621L123.524 85.8423C127.933 83.2972 133.519 81.5709 139.585 80.8702C140.256 80.794 140.931 80.735 141.604 80.6837L142.116 80.6542C142.787 80.6107 143.458 80.5749 144.291 80.5547C144.729 80.5439 145.17 80.5361 145.608 80.5361C145.799 80.5361 145.99 80.5361 146.181 80.5439H146.705C147.38 80.5578 148.055 80.5812 148.847 80.6278C149.484 80.6666 150.119 80.721 150.751 80.7831L151.265 80.836C151.93 80.9074 152.593 80.9914 153.336 81.097C153.969 81.1918 154.598 81.3006 155.223 81.4186C155.388 81.4497 155.552 81.4808 155.717 81.515C156.365 81.6439 157.009 81.7807 157.643 81.9345C163.354 83.322 168.244 85.6636 171.706 88.6749C175.168 91.6861 177.054 95.2241 177.121 98.8569V90.0577C177.046 86.4312 175.162 82.8901 171.698 79.8819Z" fill="url(#paint1_linear_1785_19783)" shape-rendering="crispEdges"/>
<path d="M171.698 79.8819C168.236 76.8738 163.346 74.5291 157.635 73.1416C157.001 72.9862 156.357 72.8495 155.709 72.7205L155.215 72.6257C154.594 72.5076 153.962 72.3989 153.328 72.3041C152.585 72.1938 151.922 72.1145 151.257 72.043L150.743 71.9902C150.111 71.9281 149.476 71.8752 148.839 71.8348C148.047 71.7867 147.373 71.7649 146.697 71.7509H146.174C145.982 71.7509 145.791 71.7432 145.6 71.7432C145.162 71.7432 144.721 71.7509 144.283 71.7618C143.457 71.782 142.786 71.8177 142.109 71.8613L141.601 71.897C140.925 71.9483 140.249 72.0073 139.581 72.0834C133.524 72.778 127.932 74.5043 123.521 77.0556L71.9288 106.828C68.0254 109.089 63.3454 110.848 58.2072 111.982C57.6061 112.115 56.9988 112.237 56.3884 112.352C56.1911 112.389 55.9938 112.422 55.7966 112.457C55.3803 112.532 54.964 112.603 54.5446 112.67C54.3039 112.707 54.0616 112.742 53.8192 112.777C53.4387 112.832 53.055 112.885 52.6729 112.933C52.4213 112.965 52.1697 112.995 51.918 113.024C51.5297 113.069 51.1414 113.108 50.75 113.147C50.5046 113.17 50.2592 113.195 50.0122 113.216C49.5881 113.251 49.1625 113.281 48.737 113.309C48.5288 113.321 48.3222 113.338 48.1156 113.349C47.5037 113.383 46.8901 113.409 46.275 113.427C45.5698 113.447 44.9361 113.453 44.3039 113.452C43.5708 113.452 42.8345 113.438 42.1014 113.413C21.8126 112.74 5.61354 102.926 5.01708 90.9791C5.00466 90.7523 5 90.5239 5 90.2986V99.09C5 99.3168 5 99.5437 5.01708 99.7705C5.61354 111.725 21.8126 121.539 42.0998 122.21C42.833 122.237 43.5692 122.248 44.3024 122.249C44.9346 122.249 45.5683 122.249 46.2735 122.226C46.8948 122.209 47.5021 122.181 48.1141 122.147C48.3222 122.136 48.5288 122.12 48.7354 122.106C49.161 122.078 49.5866 122.049 50.0106 122.013C50.2576 121.993 50.503 121.968 50.7484 121.945C51.1378 121.907 51.5271 121.867 51.9165 121.822C52.1681 121.794 52.4198 121.763 52.6714 121.732C53.0535 121.682 53.4371 121.629 53.8177 121.576C54.06 121.541 54.3023 121.507 54.5431 121.469C54.9625 121.402 55.3787 121.331 55.795 121.256L56.3868 121.152C56.9972 121.036 57.6046 120.915 58.2057 120.782C63.3439 119.647 68.0208 117.888 71.9273 115.621L123.524 85.8423C127.933 83.2972 133.519 81.5709 139.585 80.8702C140.256 80.794 140.931 80.735 141.604 80.6837L142.116 80.6542C142.787 80.6107 143.458 80.5749 144.291 80.5547C144.729 80.5439 145.17 80.5361 145.608 80.5361C145.799 80.5361 145.99 80.5361 146.181 80.5439H146.705C147.38 80.5578 148.055 80.5812 148.847 80.6278C149.484 80.6666 150.119 80.721 150.751 80.7831L151.265 80.836C151.93 80.9074 152.593 80.9914 153.336 81.097C153.969 81.1918 154.598 81.3006 155.223 81.4186C155.388 81.4497 155.552 81.4808 155.717 81.515C156.365 81.6439 157.009 81.7807 157.643 81.9345C163.354 83.322 168.244 85.6636 171.706 88.6749C175.168 91.6861 177.054 95.2241 177.121 98.8569V90.0577C177.046 86.4312 175.162 82.8901 171.698 79.8819Z" stroke="url(#paint2_angular_1785_19783)" stroke-opacity="0.2" stroke-width="0.595944" shape-rendering="crispEdges"/>
</g>
<g id="Vector_2">
<mask id="path-3-outside-1_1785_19783" maskUnits="userSpaceOnUse" x="4.00684" y="66.1259" width="182" height="48" fill="black">
<rect fill="white" x="4.00684" y="66.1259" width="182" height="48"/>
<path d="M145.618 67.1259C167.716 67.1259 185.613 77.8937 184.984 90.9859C184.386 102.939 168.187 112.765 147.884 113.427C147.151 113.454 146.416 113.465 145.683 113.466C145.049 113.466 144.416 113.46 143.785 113.446C143.089 113.424 142.48 113.399 141.871 113.365C141.661 113.353 141.453 113.337 141.25 113.323C140.826 113.295 140.4 113.266 139.978 113.23C139.731 113.21 139.485 113.185 139.24 113.162C138.847 113.124 138.457 113.083 138.067 113.039C137.82 113.011 137.575 112.981 137.329 112.95C136.936 112.901 136.545 112.846 136.155 112.795C135.919 112.759 135.689 112.727 135.447 112.689C135.029 112.624 134.614 112.553 134.204 112.478C134.004 112.442 133.802 112.41 133.603 112.372C132.994 112.257 132.389 112.134 131.787 112.003C126.638 110.862 121.964 109.103 118.055 106.833L104.908 99.2397C104.566 99.0439 104.372 98.7736 104.368 98.497C104.363 98.2204 104.545 97.9454 104.877 97.7449L107.865 95.9565C108.253 95.7463 108.688 95.6392 109.128 95.6458L123.552 103.539C126.579 105.292 130.18 106.665 134.136 107.579C134.611 107.688 135.088 107.789 135.571 107.89C135.742 107.924 135.914 107.953 136.087 107.986C136.397 108.043 136.717 108.103 137.036 108.157C137.235 108.19 137.435 108.218 137.634 108.249C137.926 108.292 138.218 108.337 138.51 108.378C138.73 108.407 138.953 108.433 139.173 108.46C139.448 108.494 139.725 108.527 140.001 108.556C140.226 108.581 140.453 108.601 140.678 108.623C140.961 108.648 141.242 108.674 141.528 108.695C141.748 108.698 141.967 108.715 142.191 108.729C142.474 108.746 142.757 108.763 143.039 108.775L143.727 108.805C144.012 108.814 144.297 108.82 144.582 108.827L145.248 108.836C145.9 108.836 146.234 108.836 146.568 108.836C163.654 108.544 177.342 100.135 177.12 90.0739C177.053 86.4411 175.169 82.9 171.705 79.8918C168.241 76.8837 163.353 74.539 157.642 73.1515C157.008 72.9961 156.363 72.8594 155.715 72.7304L155.222 72.6356C154.6 72.5175 153.968 72.4088 153.334 72.314C152.592 72.2037 151.929 72.1244 151.264 72.0529C151.093 72.0343 150.921 72.0156 150.75 72.0001C150.117 71.938 149.482 71.8851 148.845 71.8447C148.053 71.7966 147.379 71.7748 146.703 71.7608H146.18C145.989 71.7608 145.798 71.7531 145.607 71.7531C145.169 71.7531 144.728 71.7608 144.29 71.7717C143.463 71.7919 142.792 71.8276 142.115 71.8711L141.607 71.9069C140.931 71.9582 140.256 72.0172 139.588 72.0933C133.53 72.7879 127.938 74.5141 123.527 77.0655L71.9353 106.833C68.0319 109.094 63.3519 110.853 58.2137 111.987C57.6126 112.121 57.0052 112.242 56.3948 112.357C56.1975 112.394 56.0003 112.427 55.803 112.462C55.3867 112.537 54.9705 112.609 54.5511 112.675C54.3103 112.713 54.068 112.747 53.8257 112.783C53.4451 112.837 53.0615 112.89 52.6794 112.938C52.4278 112.971 52.1761 113 51.9245 113.03C51.5362 113.075 51.1479 113.114 50.7564 113.152C50.511 113.176 50.2656 113.201 50.0186 113.221C49.5946 113.256 49.169 113.286 48.7434 113.314C48.5353 113.326 48.3287 113.343 48.1221 113.354C47.5101 113.389 46.8966 113.414 46.2815 113.432C45.5763 113.452 44.9426 113.458 44.3104 113.457C43.5772 113.457 42.841 113.443 42.1078 113.418C21.819 112.745 5.62001 102.932 5.02355 90.9844C4.38205 77.8952 22.2897 67.1336 44.3725 67.1336C44.6987 67.1336 45.0233 67.1429 45.3495 67.1476C45.6757 67.1523 46.0143 67.1476 46.3452 67.1616C46.6372 67.1694 46.9261 67.1865 47.2181 67.1989C47.5645 67.2129 47.914 67.2237 48.2603 67.2439C48.5322 67.2595 48.8024 67.2828 49.0743 67.3014C49.4377 67.3263 49.7996 67.348 50.1615 67.3791C50.4023 67.4009 50.6384 67.4288 50.8776 67.4521C51.2675 67.4894 51.6542 67.5252 52.0425 67.5702C52.2507 67.5935 52.4573 67.6246 52.6639 67.651C53.0755 67.7023 53.4886 67.7536 53.8972 67.8064C54.096 67.8359 54.2917 67.8717 54.4889 67.9012C54.9037 67.9665 55.3184 68.0286 55.7316 68.1016C55.9428 68.1389 56.1494 68.1824 56.3606 68.2213C56.7505 68.2959 57.1373 68.3673 57.5287 68.4466C57.7974 68.5025 58.0599 68.5662 58.3255 68.6253C58.6502 68.6967 58.9763 68.7651 59.2979 68.8428C59.5309 68.8987 59.7639 68.9624 59.9875 69.0199C60.3401 69.1101 60.6943 69.1955 61.0422 69.2918C61.2177 69.34 61.3901 69.3944 61.5641 69.4472C61.9571 69.5591 62.3485 69.6694 62.7337 69.7891C63.1189 69.9087 63.4715 70.0283 63.8365 70.1511C64.0182 70.2117 64.2031 70.2676 64.3848 70.3298C64.6784 70.4323 64.9657 70.5426 65.2547 70.6483C65.5063 70.7415 65.761 70.8301 66.0095 70.9249C66.1773 70.9901 66.3388 71.0616 66.5066 71.1284C66.8638 71.2714 67.2226 71.4128 67.5721 71.5635C67.8657 71.6893 68.1499 71.823 68.4389 71.955C68.6548 72.0514 68.8738 72.1462 69.0866 72.2456C69.5453 72.4652 69.9963 72.6905 70.4395 72.9215C71.0281 73.2323 71.4972 73.4855 71.957 73.7512L85.1054 81.3446C85.444 81.542 85.6382 81.8108 85.6444 82.0889C85.6506 82.367 85.4673 82.6389 85.1349 82.8394L82.1464 84.6278C81.7589 84.8389 81.3233 84.946 80.8821 84.9386L66.46 77.0453C63.4342 75.2926 59.8322 73.919 55.876 73.0054C55.4023 72.8966 54.9239 72.7957 54.4408 72.6947L53.9251 72.5999C53.6145 72.5408 53.2976 72.4839 52.9745 72.429C52.7772 72.3963 52.5784 72.3684 52.3812 72.3373C52.0891 72.2938 51.7971 72.2487 51.5036 72.2083C51.2799 72.1772 51.0547 72.1524 50.831 72.1244C50.5592 72.0918 50.2874 72.0576 50.014 72.0296C49.7872 72.0048 49.5589 71.983 49.3305 71.9628C49.0494 71.9364 48.7667 71.9115 48.484 71.8898C48.2619 71.8727 48.0413 71.8587 47.8177 71.8447C47.5365 71.8261 47.2554 71.8105 46.9711 71.7966C46.7428 71.7857 46.5129 71.7764 46.2846 71.7686C45.9988 71.7593 45.7145 71.7515 45.4272 71.7468C45.2051 71.7468 44.9845 71.7391 44.7624 71.7375C44.11 71.7375 43.7761 71.7375 43.4421 71.7375C26.3406 72.0296 12.661 80.4388 12.8738 90.4996C12.9406 94.1324 14.8216 97.6735 18.2838 100.683C21.746 103.693 26.6357 106.056 32.3455 107.438C32.9793 107.593 33.6208 107.727 34.2685 107.855L34.7671 107.953C35.3884 108.07 36.019 108.18 36.6528 108.273C37.3937 108.384 38.0507 108.465 38.7202 108.534C38.8941 108.553 39.0665 108.572 39.2405 108.587C39.8711 108.649 40.5049 108.702 41.1417 108.743C41.9385 108.791 42.6173 108.814 43.2976 108.827C43.4623 108.827 43.6269 108.827 43.7916 108.834C43.9873 108.834 44.1846 108.844 44.3803 108.844C44.8323 108.844 45.2858 108.836 45.7363 108.824C46.5222 108.803 47.201 108.768 47.8782 108.724L48.3691 108.69C49.0478 108.639 49.7251 108.58 50.3992 108.502C56.4569 107.809 62.0487 106.081 66.4569 103.537L118.047 73.7559C118.513 73.4902 118.979 73.2307 119.454 72.979C119.667 72.8671 119.891 72.7615 120.108 72.6527C120.374 72.5191 120.638 72.3808 120.91 72.2518C121.14 72.1415 121.376 72.0405 121.612 71.9333C121.885 71.8105 122.154 71.6831 122.432 71.5635C122.567 71.5044 122.707 71.4516 122.844 71.3941C123.224 71.2387 123.605 71.0834 123.995 70.928C124.173 70.8581 124.358 70.7959 124.537 70.7291C124.894 70.5955 125.248 70.4603 125.612 70.3344C125.821 70.2614 126.039 70.1946 126.25 70.1247C126.587 70.0128 126.921 69.8978 127.261 69.7906C127.524 69.7098 127.792 69.6352 128.058 69.5591C128.359 69.4705 128.659 69.3773 128.965 69.2934C129.192 69.2312 129.431 69.1753 129.655 69.1163C130.003 69.0246 130.347 68.9314 130.7 68.8475C130.966 68.7822 131.238 68.7263 131.506 68.6657C131.826 68.5926 132.145 68.5181 132.468 68.4497C132.724 68.3969 132.985 68.3502 133.244 68.2943C133.588 68.2275 133.931 68.1576 134.279 68.0954C134.52 68.0535 134.765 68.0177 135.007 67.9773C135.371 67.9183 135.733 67.8561 136.095 67.8018C136.391 67.7582 136.694 67.7225 136.992 67.6837C137.291 67.6448 137.632 67.5967 137.954 67.5594C138.275 67.5221 138.597 67.4925 138.918 67.4599C139.24 67.4273 139.521 67.3947 139.826 67.3698C140.13 67.3449 140.419 67.3263 140.716 67.3045C141.056 67.2797 141.394 67.2517 141.736 67.2315C142.033 67.2144 142.329 67.2067 142.626 67.1942C142.96 67.1787 143.296 67.16 143.631 67.1507C143.967 67.1414 144.336 67.1398 144.689 67.1352C145.006 67.1352 145.31 67.1259 145.618 67.1259Z"/>
</mask>
<path d="M145.618 67.1259C167.716 67.1259 185.613 77.8937 184.984 90.9859C184.386 102.939 168.187 112.765 147.884 113.427C147.151 113.454 146.416 113.465 145.683 113.466C145.049 113.466 144.416 113.46 143.785 113.446C143.089 113.424 142.48 113.399 141.871 113.365C141.661 113.353 141.453 113.337 141.25 113.323C140.826 113.295 140.4 113.266 139.978 113.23C139.731 113.21 139.485 113.185 139.24 113.162C138.847 113.124 138.457 113.083 138.067 113.039C137.82 113.011 137.575 112.981 137.329 112.95C136.936 112.901 136.545 112.846 136.155 112.795C135.919 112.759 135.689 112.727 135.447 112.689C135.029 112.624 134.614 112.553 134.204 112.478C134.004 112.442 133.802 112.41 133.603 112.372C132.994 112.257 132.389 112.134 131.787 112.003C126.638 110.862 121.964 109.103 118.055 106.833L104.908 99.2397C104.566 99.0439 104.372 98.7736 104.368 98.497C104.363 98.2204 104.545 97.9454 104.877 97.7449L107.865 95.9565C108.253 95.7463 108.688 95.6392 109.128 95.6458L123.552 103.539C126.579 105.292 130.18 106.665 134.136 107.579C134.611 107.688 135.088 107.789 135.571 107.89C135.742 107.924 135.914 107.953 136.087 107.986C136.397 108.043 136.717 108.103 137.036 108.157C137.235 108.19 137.435 108.218 137.634 108.249C137.926 108.292 138.218 108.337 138.51 108.378C138.73 108.407 138.953 108.433 139.173 108.46C139.448 108.494 139.725 108.527 140.001 108.556C140.226 108.581 140.453 108.601 140.678 108.623C140.961 108.648 141.242 108.674 141.528 108.695C141.748 108.698 141.967 108.715 142.191 108.729C142.474 108.746 142.757 108.763 143.039 108.775L143.727 108.805C144.012 108.814 144.297 108.82 144.582 108.827L145.248 108.836C145.9 108.836 146.234 108.836 146.568 108.836C163.654 108.544 177.342 100.135 177.12 90.0739C177.053 86.4411 175.169 82.9 171.705 79.8918C168.241 76.8837 163.353 74.539 157.642 73.1515C157.008 72.9961 156.363 72.8594 155.715 72.7304L155.222 72.6356C154.6 72.5175 153.968 72.4088 153.334 72.314C152.592 72.2037 151.929 72.1244 151.264 72.0529C151.093 72.0343 150.921 72.0156 150.75 72.0001C150.117 71.938 149.482 71.8851 148.845 71.8447C148.053 71.7966 147.379 71.7748 146.703 71.7608H146.18C145.989 71.7608 145.798 71.7531 145.607 71.7531C145.169 71.7531 144.728 71.7608 144.29 71.7717C143.463 71.7919 142.792 71.8276 142.115 71.8711L141.607 71.9069C140.931 71.9582 140.256 72.0172 139.588 72.0933C133.53 72.7879 127.938 74.5141 123.527 77.0655L71.9353 106.833C68.0319 109.094 63.3519 110.853 58.2137 111.987C57.6126 112.121 57.0052 112.242 56.3948 112.357C56.1975 112.394 56.0003 112.427 55.803 112.462C55.3867 112.537 54.9705 112.609 54.5511 112.675C54.3103 112.713 54.068 112.747 53.8257 112.783C53.4451 112.837 53.0615 112.89 52.6794 112.938C52.4278 112.971 52.1761 113 51.9245 113.03C51.5362 113.075 51.1479 113.114 50.7564 113.152C50.511 113.176 50.2656 113.201 50.0186 113.221C49.5946 113.256 49.169 113.286 48.7434 113.314C48.5353 113.326 48.3287 113.343 48.1221 113.354C47.5101 113.389 46.8966 113.414 46.2815 113.432C45.5763 113.452 44.9426 113.458 44.3104 113.457C43.5772 113.457 42.841 113.443 42.1078 113.418C21.819 112.745 5.62001 102.932 5.02355 90.9844C4.38205 77.8952 22.2897 67.1336 44.3725 67.1336C44.6987 67.1336 45.0233 67.1429 45.3495 67.1476C45.6757 67.1523 46.0143 67.1476 46.3452 67.1616C46.6372 67.1694 46.9261 67.1865 47.2181 67.1989C47.5645 67.2129 47.914 67.2237 48.2603 67.2439C48.5322 67.2595 48.8024 67.2828 49.0743 67.3014C49.4377 67.3263 49.7996 67.348 50.1615 67.3791C50.4023 67.4009 50.6384 67.4288 50.8776 67.4521C51.2675 67.4894 51.6542 67.5252 52.0425 67.5702C52.2507 67.5935 52.4573 67.6246 52.6639 67.651C53.0755 67.7023 53.4886 67.7536 53.8972 67.8064C54.096 67.8359 54.2917 67.8717 54.4889 67.9012C54.9037 67.9665 55.3184 68.0286 55.7316 68.1016C55.9428 68.1389 56.1494 68.1824 56.3606 68.2213C56.7505 68.2959 57.1373 68.3673 57.5287 68.4466C57.7974 68.5025 58.0599 68.5662 58.3255 68.6253C58.6502 68.6967 58.9763 68.7651 59.2979 68.8428C59.5309 68.8987 59.7639 68.9624 59.9875 69.0199C60.3401 69.1101 60.6943 69.1955 61.0422 69.2918C61.2177 69.34 61.3901 69.3944 61.5641 69.4472C61.9571 69.5591 62.3485 69.6694 62.7337 69.7891C63.1189 69.9087 63.4715 70.0283 63.8365 70.1511C64.0182 70.2117 64.2031 70.2676 64.3848 70.3298C64.6784 70.4323 64.9657 70.5426 65.2547 70.6483C65.5063 70.7415 65.761 70.8301 66.0095 70.9249C66.1773 70.9901 66.3388 71.0616 66.5066 71.1284C66.8638 71.2714 67.2226 71.4128 67.5721 71.5635C67.8657 71.6893 68.1499 71.823 68.4389 71.955C68.6548 72.0514 68.8738 72.1462 69.0866 72.2456C69.5453 72.4652 69.9963 72.6905 70.4395 72.9215C71.0281 73.2323 71.4972 73.4855 71.957 73.7512L85.1054 81.3446C85.444 81.542 85.6382 81.8108 85.6444 82.0889C85.6506 82.367 85.4673 82.6389 85.1349 82.8394L82.1464 84.6278C81.7589 84.8389 81.3233 84.946 80.8821 84.9386L66.46 77.0453C63.4342 75.2926 59.8322 73.919 55.876 73.0054C55.4023 72.8966 54.9239 72.7957 54.4408 72.6947L53.9251 72.5999C53.6145 72.5408 53.2976 72.4839 52.9745 72.429C52.7772 72.3963 52.5784 72.3684 52.3812 72.3373C52.0891 72.2938 51.7971 72.2487 51.5036 72.2083C51.2799 72.1772 51.0547 72.1524 50.831 72.1244C50.5592 72.0918 50.2874 72.0576 50.014 72.0296C49.7872 72.0048 49.5589 71.983 49.3305 71.9628C49.0494 71.9364 48.7667 71.9115 48.484 71.8898C48.2619 71.8727 48.0413 71.8587 47.8177 71.8447C47.5365 71.8261 47.2554 71.8105 46.9711 71.7966C46.7428 71.7857 46.5129 71.7764 46.2846 71.7686C45.9988 71.7593 45.7145 71.7515 45.4272 71.7468C45.2051 71.7468 44.9845 71.7391 44.7624 71.7375C44.11 71.7375 43.7761 71.7375 43.4421 71.7375C26.3406 72.0296 12.661 80.4388 12.8738 90.4996C12.9406 94.1324 14.8216 97.6735 18.2838 100.683C21.746 103.693 26.6357 106.056 32.3455 107.438C32.9793 107.593 33.6208 107.727 34.2685 107.855L34.7671 107.953C35.3884 108.07 36.019 108.18 36.6528 108.273C37.3937 108.384 38.0507 108.465 38.7202 108.534C38.8941 108.553 39.0665 108.572 39.2405 108.587C39.8711 108.649 40.5049 108.702 41.1417 108.743C41.9385 108.791 42.6173 108.814 43.2976 108.827C43.4623 108.827 43.6269 108.827 43.7916 108.834C43.9873 108.834 44.1846 108.844 44.3803 108.844C44.8323 108.844 45.2858 108.836 45.7363 108.824C46.5222 108.803 47.201 108.768 47.8782 108.724L48.3691 108.69C49.0478 108.639 49.7251 108.58 50.3992 108.502C56.4569 107.809 62.0487 106.081 66.4569 103.537L118.047 73.7559C118.513 73.4902 118.979 73.2307 119.454 72.979C119.667 72.8671 119.891 72.7615 120.108 72.6527C120.374 72.5191 120.638 72.3808 120.91 72.2518C121.14 72.1415 121.376 72.0405 121.612 71.9333C121.885 71.8105 122.154 71.6831 122.432 71.5635C122.567 71.5044 122.707 71.4516 122.844 71.3941C123.224 71.2387 123.605 71.0834 123.995 70.928C124.173 70.8581 124.358 70.7959 124.537 70.7291C124.894 70.5955 125.248 70.4603 125.612 70.3344C125.821 70.2614 126.039 70.1946 126.25 70.1247C126.587 70.0128 126.921 69.8978 127.261 69.7906C127.524 69.7098 127.792 69.6352 128.058 69.5591C128.359 69.4705 128.659 69.3773 128.965 69.2934C129.192 69.2312 129.431 69.1753 129.655 69.1163C130.003 69.0246 130.347 68.9314 130.7 68.8475C130.966 68.7822 131.238 68.7263 131.506 68.6657C131.826 68.5926 132.145 68.5181 132.468 68.4497C132.724 68.3969 132.985 68.3502 133.244 68.2943C133.588 68.2275 133.931 68.1576 134.279 68.0954C134.52 68.0535 134.765 68.0177 135.007 67.9773C135.371 67.9183 135.733 67.8561 136.095 67.8018C136.391 67.7582 136.694 67.7225 136.992 67.6837C137.291 67.6448 137.632 67.5967 137.954 67.5594C138.275 67.5221 138.597 67.4925 138.918 67.4599C139.24 67.4273 139.521 67.3947 139.826 67.3698C140.13 67.3449 140.419 67.3263 140.716 67.3045C141.056 67.2797 141.394 67.2517 141.736 67.2315C142.033 67.2144 142.329 67.2067 142.626 67.1942C142.96 67.1787 143.296 67.16 143.631 67.1507C143.967 67.1414 144.336 67.1398 144.689 67.1352C145.006 67.1352 145.31 67.1259 145.618 67.1259Z" fill="url(#paint3_linear_1785_19783)"/>
<path d="M145.618 67.1259C167.716 67.1259 185.613 77.8937 184.984 90.9859C184.386 102.939 168.187 112.765 147.884 113.427C147.151 113.454 146.416 113.465 145.683 113.466C145.049 113.466 144.416 113.46 143.785 113.446C143.089 113.424 142.48 113.399 141.871 113.365C141.661 113.353 141.453 113.337 141.25 113.323C140.826 113.295 140.4 113.266 139.978 113.23C139.731 113.21 139.485 113.185 139.24 113.162C138.847 113.124 138.457 113.083 138.067 113.039C137.82 113.011 137.575 112.981 137.329 112.95C136.936 112.901 136.545 112.846 136.155 112.795C135.919 112.759 135.689 112.727 135.447 112.689C135.029 112.624 134.614 112.553 134.204 112.478C134.004 112.442 133.802 112.41 133.603 112.372C132.994 112.257 132.389 112.134 131.787 112.003C126.638 110.862 121.964 109.103 118.055 106.833L104.908 99.2397C104.566 99.0439 104.372 98.7736 104.368 98.497C104.363 98.2204 104.545 97.9454 104.877 97.7449L107.865 95.9565C108.253 95.7463 108.688 95.6392 109.128 95.6458L123.552 103.539C126.579 105.292 130.18 106.665 134.136 107.579C134.611 107.688 135.088 107.789 135.571 107.89C135.742 107.924 135.914 107.953 136.087 107.986C136.397 108.043 136.717 108.103 137.036 108.157C137.235 108.19 137.435 108.218 137.634 108.249C137.926 108.292 138.218 108.337 138.51 108.378C138.73 108.407 138.953 108.433 139.173 108.46C139.448 108.494 139.725 108.527 140.001 108.556C140.226 108.581 140.453 108.601 140.678 108.623C140.961 108.648 141.242 108.674 141.528 108.695C141.748 108.698 141.967 108.715 142.191 108.729C142.474 108.746 142.757 108.763 143.039 108.775L143.727 108.805C144.012 108.814 144.297 108.82 144.582 108.827L145.248 108.836C145.9 108.836 146.234 108.836 146.568 108.836C163.654 108.544 177.342 100.135 177.12 90.0739C177.053 86.4411 175.169 82.9 171.705 79.8918C168.241 76.8837 163.353 74.539 157.642 73.1515C157.008 72.9961 156.363 72.8594 155.715 72.7304L155.222 72.6356C154.6 72.5175 153.968 72.4088 153.334 72.314C152.592 72.2037 151.929 72.1244 151.264 72.0529C151.093 72.0343 150.921 72.0156 150.75 72.0001C150.117 71.938 149.482 71.8851 148.845 71.8447C148.053 71.7966 147.379 71.7748 146.703 71.7608H146.18C145.989 71.7608 145.798 71.7531 145.607 71.7531C145.169 71.7531 144.728 71.7608 144.29 71.7717C143.463 71.7919 142.792 71.8276 142.115 71.8711L141.607 71.9069C140.931 71.9582 140.256 72.0172 139.588 72.0933C133.53 72.7879 127.938 74.5141 123.527 77.0655L71.9353 106.833C68.0319 109.094 63.3519 110.853 58.2137 111.987C57.6126 112.121 57.0052 112.242 56.3948 112.357C56.1975 112.394 56.0003 112.427 55.803 112.462C55.3867 112.537 54.9705 112.609 54.5511 112.675C54.3103 112.713 54.068 112.747 53.8257 112.783C53.4451 112.837 53.0615 112.89 52.6794 112.938C52.4278 112.971 52.1761 113 51.9245 113.03C51.5362 113.075 51.1479 113.114 50.7564 113.152C50.511 113.176 50.2656 113.201 50.0186 113.221C49.5946 113.256 49.169 113.286 48.7434 113.314C48.5353 113.326 48.3287 113.343 48.1221 113.354C47.5101 113.389 46.8966 113.414 46.2815 113.432C45.5763 113.452 44.9426 113.458 44.3104 113.457C43.5772 113.457 42.841 113.443 42.1078 113.418C21.819 112.745 5.62001 102.932 5.02355 90.9844C4.38205 77.8952 22.2897 67.1336 44.3725 67.1336C44.6987 67.1336 45.0233 67.1429 45.3495 67.1476C45.6757 67.1523 46.0143 67.1476 46.3452 67.1616C46.6372 67.1694 46.9261 67.1865 47.2181 67.1989C47.5645 67.2129 47.914 67.2237 48.2603 67.2439C48.5322 67.2595 48.8024 67.2828 49.0743 67.3014C49.4377 67.3263 49.7996 67.348 50.1615 67.3791C50.4023 67.4009 50.6384 67.4288 50.8776 67.4521C51.2675 67.4894 51.6542 67.5252 52.0425 67.5702C52.2507 67.5935 52.4573 67.6246 52.6639 67.651C53.0755 67.7023 53.4886 67.7536 53.8972 67.8064C54.096 67.8359 54.2917 67.8717 54.4889 67.9012C54.9037 67.9665 55.3184 68.0286 55.7316 68.1016C55.9428 68.1389 56.1494 68.1824 56.3606 68.2213C56.7505 68.2959 57.1373 68.3673 57.5287 68.4466C57.7974 68.5025 58.0599 68.5662 58.3255 68.6253C58.6502 68.6967 58.9763 68.7651 59.2979 68.8428C59.5309 68.8987 59.7639 68.9624 59.9875 69.0199C60.3401 69.1101 60.6943 69.1955 61.0422 69.2918C61.2177 69.34 61.3901 69.3944 61.5641 69.4472C61.9571 69.5591 62.3485 69.6694 62.7337 69.7891C63.1189 69.9087 63.4715 70.0283 63.8365 70.1511C64.0182 70.2117 64.2031 70.2676 64.3848 70.3298C64.6784 70.4323 64.9657 70.5426 65.2547 70.6483C65.5063 70.7415 65.761 70.8301 66.0095 70.9249C66.1773 70.9901 66.3388 71.0616 66.5066 71.1284C66.8638 71.2714 67.2226 71.4128 67.5721 71.5635C67.8657 71.6893 68.1499 71.823 68.4389 71.955C68.6548 72.0514 68.8738 72.1462 69.0866 72.2456C69.5453 72.4652 69.9963 72.6905 70.4395 72.9215C71.0281 73.2323 71.4972 73.4855 71.957 73.7512L85.1054 81.3446C85.444 81.542 85.6382 81.8108 85.6444 82.0889C85.6506 82.367 85.4673 82.6389 85.1349 82.8394L82.1464 84.6278C81.7589 84.8389 81.3233 84.946 80.8821 84.9386L66.46 77.0453C63.4342 75.2926 59.8322 73.919 55.876 73.0054C55.4023 72.8966 54.9239 72.7957 54.4408 72.6947L53.9251 72.5999C53.6145 72.5408 53.2976 72.4839 52.9745 72.429C52.7772 72.3963 52.5784 72.3684 52.3812 72.3373C52.0891 72.2938 51.7971 72.2487 51.5036 72.2083C51.2799 72.1772 51.0547 72.1524 50.831 72.1244C50.5592 72.0918 50.2874 72.0576 50.014 72.0296C49.7872 72.0048 49.5589 71.983 49.3305 71.9628C49.0494 71.9364 48.7667 71.9115 48.484 71.8898C48.2619 71.8727 48.0413 71.8587 47.8177 71.8447C47.5365 71.8261 47.2554 71.8105 46.9711 71.7966C46.7428 71.7857 46.5129 71.7764 46.2846 71.7686C45.9988 71.7593 45.7145 71.7515 45.4272 71.7468C45.2051 71.7468 44.9845 71.7391 44.7624 71.7375C44.11 71.7375 43.7761 71.7375 43.4421 71.7375C26.3406 72.0296 12.661 80.4388 12.8738 90.4996C12.9406 94.1324 14.8216 97.6735 18.2838 100.683C21.746 103.693 26.6357 106.056 32.3455 107.438C32.9793 107.593 33.6208 107.727 34.2685 107.855L34.7671 107.953C35.3884 108.07 36.019 108.18 36.6528 108.273C37.3937 108.384 38.0507 108.465 38.7202 108.534C38.8941 108.553 39.0665 108.572 39.2405 108.587C39.8711 108.649 40.5049 108.702 41.1417 108.743C41.9385 108.791 42.6173 108.814 43.2976 108.827C43.4623 108.827 43.6269 108.827 43.7916 108.834C43.9873 108.834 44.1846 108.844 44.3803 108.844C44.8323 108.844 45.2858 108.836 45.7363 108.824C46.5222 108.803 47.201 108.768 47.8782 108.724L48.3691 108.69C49.0478 108.639 49.7251 108.58 50.3992 108.502C56.4569 107.809 62.0487 106.081 66.4569 103.537L118.047 73.7559C118.513 73.4902 118.979 73.2307 119.454 72.979C119.667 72.8671 119.891 72.7615 120.108 72.6527C120.374 72.5191 120.638 72.3808 120.91 72.2518C121.14 72.1415 121.376 72.0405 121.612 71.9333C121.885 71.8105 122.154 71.6831 122.432 71.5635C122.567 71.5044 122.707 71.4516 122.844 71.3941C123.224 71.2387 123.605 71.0834 123.995 70.928C124.173 70.8581 124.358 70.7959 124.537 70.7291C124.894 70.5955 125.248 70.4603 125.612 70.3344C125.821 70.2614 126.039 70.1946 126.25 70.1247C126.587 70.0128 126.921 69.8978 127.261 69.7906C127.524 69.7098 127.792 69.6352 128.058 69.5591C128.359 69.4705 128.659 69.3773 128.965 69.2934C129.192 69.2312 129.431 69.1753 129.655 69.1163C130.003 69.0246 130.347 68.9314 130.7 68.8475C130.966 68.7822 131.238 68.7263 131.506 68.6657C131.826 68.5926 132.145 68.5181 132.468 68.4497C132.724 68.3969 132.985 68.3502 133.244 68.2943C133.588 68.2275 133.931 68.1576 134.279 68.0954C134.52 68.0535 134.765 68.0177 135.007 67.9773C135.371 67.9183 135.733 67.8561 136.095 67.8018C136.391 67.7582 136.694 67.7225 136.992 67.6837C137.291 67.6448 137.632 67.5967 137.954 67.5594C138.275 67.5221 138.597 67.4925 138.918 67.4599C139.24 67.4273 139.521 67.3947 139.826 67.3698C140.13 67.3449 140.419 67.3263 140.716 67.3045C141.056 67.2797 141.394 67.2517 141.736 67.2315C142.033 67.2144 142.329 67.2067 142.626 67.1942C142.96 67.1787 143.296 67.16 143.631 67.1507C143.967 67.1414 144.336 67.1398 144.689 67.1352C145.006 67.1352 145.31 67.1259 145.618 67.1259Z" stroke="url(#paint4_angular_1785_19783)" stroke-width="0.551537" mask="url(#path-3-outside-1_1785_19783)"/>
</g>
<g id="Vector_3" filter="url(#filter1_d_1785_19783)">
<path d="M85.1308 82.8345L82.1423 84.6229C81.7548 84.8341 81.3192 84.9411 80.878 84.9337L66.4559 77.0404C63.4301 75.2877 59.8281 73.9142 55.8719 73.0006C55.3981 72.8918 54.9197 72.7908 54.4367 72.6898L53.921 72.595C53.6103 72.536 53.2935 72.479 52.9704 72.4241C52.7731 72.3915 52.5743 72.3635 52.377 72.3324C52.085 72.2889 51.793 72.2439 51.4994 72.2035C51.2758 72.1724 51.0505 72.1475 50.8269 72.1196C50.555 72.0869 50.2832 72.0527 50.0098 72.0248C49.7831 71.9999 49.5547 71.9782 49.3264 71.958C49.0453 71.9316 48.7626 71.9067 48.4799 71.8849C48.2578 71.8678 48.0372 71.8539 47.8135 71.8399C47.5324 71.8212 47.2512 71.8057 46.967 71.7917C46.7387 71.7808 46.5088 71.7715 46.2804 71.7637C45.9946 71.7544 45.7104 71.7466 45.423 71.742C45.2009 71.742 44.9804 71.7342 44.7582 71.7327C44.1059 71.7327 43.7719 71.7327 43.438 71.7327C38.0932 71.8243 33.0839 72.7084 28.727 74.1877C28.292 74.3348 27.8633 74.4901 27.4409 74.6538C24.2737 75.8502 21.4918 77.3714 19.2318 79.1334C18.7793 79.4866 18.3485 79.8492 17.9395 80.221C17.6661 80.4697 17.4021 80.7198 17.1489 80.9746C16.4133 81.7113 15.7448 82.512 15.1514 83.3675C15.0566 83.5058 14.9634 83.6441 14.8749 83.7839C14.6947 84.0636 14.527 84.3448 14.3716 84.6307C14.294 84.7737 14.2163 84.9166 14.1464 85.0596C13.2798 86.7395 12.8412 88.6076 12.8696 90.4979V99.3125C12.6568 89.2517 26.3365 80.8426 43.438 80.5505C43.7719 80.5505 44.1059 80.5411 44.7582 80.5505C44.9804 80.5505 45.2009 80.5505 45.423 80.5598C45.7104 80.5598 45.9946 80.5722 46.2804 80.5815C46.5088 80.5815 46.7387 80.5986 46.967 80.6095C47.2512 80.6235 47.5324 80.639 47.8135 80.6577L48.4799 80.7027C48.7626 80.7245 49.0453 80.7493 49.3264 80.7758C49.5547 80.7975 49.7831 80.8177 50.0098 80.8426C50.2832 80.8705 50.555 80.9047 50.8269 80.9373C51.0505 80.9653 51.2758 80.9917 51.4994 81.0213C51.793 81.0617 52.085 81.1067 52.377 81.1518C52.5743 81.1813 52.7731 81.2108 52.9704 81.2434C53.2888 81.2963 53.6057 81.3538 53.921 81.4128C54.0934 81.4454 54.2658 81.475 54.4367 81.5091C54.9192 81.6034 55.3976 81.707 55.8719 81.8199C59.8281 82.7304 63.4301 84.104 66.4559 85.8598L80.878 93.7515C81.3193 93.7597 81.7551 93.6526 82.1423 93.4407L85.1308 91.6523C85.457 91.455 85.6403 91.1862 85.6403 90.9143V82.0965C85.6403 82.3715 85.457 82.6372 85.1308 82.8345Z" fill="url(#paint5_linear_1785_19783)" shape-rendering="crispEdges"/>
<path d="M85.1308 82.8345L82.1423 84.6229C81.7548 84.8341 81.3192 84.9411 80.878 84.9337L66.4559 77.0404C63.4301 75.2877 59.8281 73.9142 55.8719 73.0006C55.3981 72.8918 54.9197 72.7908 54.4367 72.6898L53.921 72.595C53.6103 72.536 53.2935 72.479 52.9704 72.4241C52.7731 72.3915 52.5743 72.3635 52.377 72.3324C52.085 72.2889 51.793 72.2439 51.4994 72.2035C51.2758 72.1724 51.0505 72.1475 50.8269 72.1196C50.555 72.0869 50.2832 72.0527 50.0098 72.0248C49.7831 71.9999 49.5547 71.9782 49.3264 71.958C49.0453 71.9316 48.7626 71.9067 48.4799 71.8849C48.2578 71.8678 48.0372 71.8539 47.8135 71.8399C47.5324 71.8212 47.2512 71.8057 46.967 71.7917C46.7387 71.7808 46.5088 71.7715 46.2804 71.7637C45.9946 71.7544 45.7104 71.7466 45.423 71.742C45.2009 71.742 44.9804 71.7342 44.7582 71.7327C44.1059 71.7327 43.7719 71.7327 43.438 71.7327C38.0932 71.8243 33.0839 72.7084 28.727 74.1877C28.292 74.3348 27.8633 74.4901 27.4409 74.6538C24.2737 75.8502 21.4918 77.3714 19.2318 79.1334C18.7793 79.4866 18.3485 79.8492 17.9395 80.221C17.6661 80.4697 17.4021 80.7198 17.1489 80.9746C16.4133 81.7113 15.7448 82.512 15.1514 83.3675C15.0566 83.5058 14.9634 83.6441 14.8749 83.7839C14.6947 84.0636 14.527 84.3448 14.3716 84.6307C14.294 84.7737 14.2163 84.9166 14.1464 85.0596C13.2798 86.7395 12.8412 88.6076 12.8696 90.4979V99.3125C12.6568 89.2517 26.3365 80.8426 43.438 80.5505C43.7719 80.5505 44.1059 80.5411 44.7582 80.5505C44.9804 80.5505 45.2009 80.5505 45.423 80.5598C45.7104 80.5598 45.9946 80.5722 46.2804 80.5815C46.5088 80.5815 46.7387 80.5986 46.967 80.6095C47.2512 80.6235 47.5324 80.639 47.8135 80.6577L48.4799 80.7027C48.7626 80.7245 49.0453 80.7493 49.3264 80.7758C49.5547 80.7975 49.7831 80.8177 50.0098 80.8426C50.2832 80.8705 50.555 80.9047 50.8269 80.9373C51.0505 80.9653 51.2758 80.9917 51.4994 81.0213C51.793 81.0617 52.085 81.1067 52.377 81.1518C52.5743 81.1813 52.7731 81.2108 52.9704 81.2434C53.2888 81.2963 53.6057 81.3538 53.921 81.4128C54.0934 81.4454 54.2658 81.475 54.4367 81.5091C54.9192 81.6034 55.3976 81.707 55.8719 81.8199C59.8281 82.7304 63.4301 84.104 66.4559 85.8598L80.878 93.7515C81.3193 93.7597 81.7551 93.6526 82.1423 93.4407L85.1308 91.6523C85.457 91.455 85.6403 91.1862 85.6403 90.9143V82.0965C85.6403 82.3715 85.457 82.6372 85.1308 82.8345Z" stroke="url(#paint6_angular_1785_19783)" stroke-opacity="0.2" stroke-width="0.595944" shape-rendering="crispEdges"/>
</g>
<g id="Vector_4" opacity="0.8" filter="url(#filter2_d_1785_19783)">
<path d="M184.983 90.9843C184.385 102.939 168.186 112.765 147.884 113.427C147.15 113.454 146.416 113.465 145.683 113.466C145.049 113.466 144.416 113.459 143.784 113.444C143.089 113.424 142.48 113.399 141.871 113.365C141.661 113.353 141.453 113.337 141.25 113.323C140.826 113.295 140.4 113.266 139.977 113.23C139.73 113.21 139.485 113.185 139.24 113.162C138.847 113.124 138.456 113.083 138.067 113.039C137.82 113.011 137.575 112.981 137.329 112.95C136.936 112.901 136.545 112.846 136.155 112.795C135.919 112.759 135.689 112.727 135.447 112.689C135.029 112.624 134.614 112.553 134.204 112.478C134.004 112.442 133.802 112.41 133.603 112.372C132.994 112.257 132.389 112.134 131.787 112.002C126.638 110.862 121.964 109.103 118.055 106.833L104.908 99.2396C104.566 99.0438 104.372 98.7735 104.367 98.4969C104.367 98.4969 104.367 98.4891 104.367 98.4845V107.284C104.367 107.284 104.367 107.291 104.367 107.296C104.367 107.576 104.566 107.843 104.908 108.039L118.055 115.634C121.964 117.899 126.638 119.658 131.779 120.794C132.38 120.927 132.986 121.049 133.595 121.164C133.794 121.201 133.996 121.235 134.196 121.269C134.609 121.344 135.024 121.415 135.439 121.481C135.675 121.518 135.905 121.552 136.147 121.586C136.537 121.642 136.924 121.697 137.321 121.742C137.567 121.773 137.812 121.802 138.059 121.83C138.447 121.876 138.838 121.917 139.232 121.953C139.477 121.976 139.723 122.001 139.97 122.023C140.392 122.057 140.818 122.087 141.242 122.115C141.45 122.129 141.658 122.144 141.863 122.157C142.472 122.191 143.081 122.217 143.777 122.237C144.407 122.254 145.041 122.259 145.675 122.258C146.408 122.258 147.142 122.245 147.876 122.219C168.179 121.558 184.378 111.732 184.976 99.7772C184.986 99.5535 184.991 99.3297 184.991 99.1075V90.3162C184.993 90.5384 184.993 90.7621 184.983 90.9843Z" fill="url(#paint7_linear_1785_19783)" shape-rendering="crispEdges"/>
<path d="M184.983 90.9843C184.385 102.939 168.186 112.765 147.884 113.427C147.15 113.454 146.416 113.465 145.683 113.466C145.049 113.466 144.416 113.459 143.784 113.444C143.089 113.424 142.48 113.399 141.871 113.365C141.661 113.353 141.453 113.337 141.25 113.323C140.826 113.295 140.4 113.266 139.977 113.23C139.73 113.21 139.485 113.185 139.24 113.162C138.847 113.124 138.456 113.083 138.067 113.039C137.82 113.011 137.575 112.981 137.329 112.95C136.936 112.901 136.545 112.846 136.155 112.795C135.919 112.759 135.689 112.727 135.447 112.689C135.029 112.624 134.614 112.553 134.204 112.478C134.004 112.442 133.802 112.41 133.603 112.372C132.994 112.257 132.389 112.134 131.787 112.002C126.638 110.862 121.964 109.103 118.055 106.833L104.908 99.2396C104.566 99.0438 104.372 98.7735 104.367 98.4969C104.367 98.4969 104.367 98.4891 104.367 98.4845V107.284C104.367 107.284 104.367 107.291 104.367 107.296C104.367 107.576 104.566 107.843 104.908 108.039L118.055 115.634C121.964 117.899 126.638 119.658 131.779 120.794C132.38 120.927 132.986 121.049 133.595 121.164C133.794 121.201 133.996 121.235 134.196 121.269C134.609 121.344 135.024 121.415 135.439 121.481C135.675 121.518 135.905 121.552 136.147 121.586C136.537 121.642 136.924 121.697 137.321 121.742C137.567 121.773 137.812 121.802 138.059 121.83C138.447 121.876 138.838 121.917 139.232 121.953C139.477 121.976 139.723 122.001 139.97 122.023C140.392 122.057 140.818 122.087 141.242 122.115C141.45 122.129 141.658 122.144 141.863 122.157C142.472 122.191 143.081 122.217 143.777 122.237C144.407 122.254 145.041 122.259 145.675 122.258C146.408 122.258 147.142 122.245 147.876 122.219C168.179 121.558 184.378 111.732 184.976 99.7772C184.986 99.5535 184.991 99.3297 184.991 99.1075V90.3162C184.993 90.5384 184.993 90.7621 184.983 90.9843Z" stroke="url(#paint8_angular_1785_19783)" stroke-width="0.595944" shape-rendering="crispEdges"/>
</g>
</g>
</g>
</g>
<defs>
<filter id="filter0_d_1785_19783" x="-1.2907" y="71.0457" width="184.703" height="63.0878" filterUnits="userSpaceOnUse" color-interpolation-filters="sRGB">
<feFlood flood-opacity="0" result="BackgroundImageFix"/>
<feColorMatrix in="SourceAlpha" type="matrix" values="0 0 0 0 0 0 0 0 0 0 0 0 0 0 0 0 0 0 127 0" result="hardAlpha"/>
<feOffset dy="5.59333"/>
<feGaussianBlur stdDeviation="2.99643"/>
<feComposite in2="hardAlpha" operator="out"/>
<feColorMatrix type="matrix" values="0 0 0 0 0.111417 0 0 0 0 0.0583333 0 0 0 0 0.4375 0 0 0 0.2 0"/>
<feBlend mode="normal" in2="BackgroundImageFix" result="effect1_dropShadow_1785_19783"/>
<feBlend mode="normal" in="SourceGraphic" in2="effect1_dropShadow_1785_19783" result="shape"/>
</filter>
<filter id="filter1_d_1785_19783" x="6.57648" y="71.0352" width="85.3548" height="39.8699" filterUnits="userSpaceOnUse" color-interpolation-filters="sRGB">
<feFlood flood-opacity="0" result="BackgroundImageFix"/>
<feColorMatrix in="SourceAlpha" type="matrix" values="0 0 0 0 0 0 0 0 0 0 0 0 0 0 0 0 0 0 127 0" result="hardAlpha"/>
<feOffset dy="5.59333"/>
<feGaussianBlur stdDeviation="2.99643"/>
<feComposite in2="hardAlpha" operator="out"/>
<feColorMatrix type="matrix" values="0 0 0 0 0.111417 0 0 0 0 0.0583333 0 0 0 0 0.4375 0 0 0 0.2 0"/>
<feBlend mode="normal" in2="BackgroundImageFix" result="effect1_dropShadow_1785_19783"/>
<feBlend mode="normal" in="SourceGraphic" in2="effect1_dropShadow_1785_19783" result="shape"/>
</filter>
<filter id="filter2_d_1785_19783" x="98.0765" y="89.9146" width="93.2064" height="44.2274" filterUnits="userSpaceOnUse" color-interpolation-filters="sRGB">
<feFlood flood-opacity="0" result="BackgroundImageFix"/>
<feColorMatrix in="SourceAlpha" type="matrix" values="0 0 0 0 0 0 0 0 0 0 0 0 0 0 0 0 0 0 127 0" result="hardAlpha"/>
<feOffset dy="5.59333"/>
<feGaussianBlur stdDeviation="2.99643"/>
<feComposite in2="hardAlpha" operator="out"/>
<feColorMatrix type="matrix" values="0 0 0 0 0.111417 0 0 0 0 0.0583333 0 0 0 0 0.4375 0 0 0 0.1 0"/>
<feBlend mode="normal" in2="BackgroundImageFix" result="effect1_dropShadow_1785_19783"/>
<feBlend mode="normal" in="SourceGraphic" in2="effect1_dropShadow_1785_19783" result="shape"/>
</filter>
<linearGradient id="paint0_linear_1785_19783" x1="95" y1="0" x2="95" y2="190" gradientUnits="userSpaceOnUse">
<stop stop-color="white"/>
<stop offset="1" stop-color="#E5E4FF"/>
</linearGradient>
<linearGradient id="paint1_linear_1785_19783" x1="138.641" y1="77.6929" x2="35.1867" y2="122.347" gradientUnits="userSpaceOnUse">
<stop stop-color="#EC38FC"/>
<stop offset="0.484375" stop-color="#5369FD"/>
<stop offset="1" stop-color="#20F4F1"/>
</linearGradient>
<radialGradient id="paint2_angular_1785_19783" cx="0" cy="0" r="1" gradientUnits="userSpaceOnUse" gradientTransform="translate(91.0604 96.9962) rotate(90) scale(25.2531 33.7738)">
<stop offset="0.0794965" stop-color="white" stop-opacity="0"/>
<stop offset="0.467546" stop-color="white" stop-opacity="0.473958"/>
<stop offset="0.964345" stop-color="white"/>
</radialGradient>
<linearGradient id="paint3_linear_1785_19783" x1="69.8552" y1="104.3" x2="118.824" y2="75.0095" gradientUnits="userSpaceOnUse">
<stop offset="0.0195356" stop-color="white"/>
<stop offset="1" stop-color="#E9EBFF"/>
<stop offset="1" stop-color="#DFE2FF"/>
</linearGradient>
<radialGradient id="paint4_angular_1785_19783" cx="0" cy="0" r="1" gradientUnits="userSpaceOnUse" gradientTransform="translate(95.0033 90.296) rotate(90) scale(23.1702 35.3185)">
<stop offset="0.0794965" stop-color="white" stop-opacity="0"/>
<stop offset="0.467546" stop-color="white" stop-opacity="0.473958"/>
<stop offset="0.964345" stop-color="white"/>
</radialGradient>
<linearGradient id="paint5_linear_1785_19783" x1="69.3711" y1="74.9817" x2="22.6942" y2="90.5809" gradientUnits="userSpaceOnUse">
<stop stop-color="#EC38FC"/>
<stop offset="0.484375" stop-color="#5369FD"/>
<stop offset="1" stop-color="#20F4F1"/>
</linearGradient>
<radialGradient id="paint6_angular_1785_19783" cx="0" cy="0" r="1" gradientUnits="userSpaceOnUse" gradientTransform="translate(49.2537 85.5226) rotate(90) scale(13.7899 14.2796)">
<stop offset="0.0794965" stop-color="white" stop-opacity="0"/>
<stop offset="0.467546" stop-color="white" stop-opacity="0.473958"/>
<stop offset="0.964345" stop-color="white"/>
</radialGradient>
<linearGradient id="paint7_linear_1785_19783" x1="106.903" y1="126.06" x2="106.903" y2="98.9204" gradientUnits="userSpaceOnUse">
<stop stop-color="#ADB5FF"/>
<stop offset="1" stop-color="#745BFD"/>
</linearGradient>
<radialGradient id="paint8_angular_1785_19783" cx="0" cy="0" r="1" gradientUnits="userSpaceOnUse" gradientTransform="translate(144.68 106.287) rotate(90) scale(15.9708 15.8203)">
<stop offset="0.0794965" stop-color="white" stop-opacity="0"/>
<stop offset="0.467546" stop-color="white" stop-opacity="0.473958"/>
<stop offset="0.964345" stop-color="white"/>
</radialGradient>
<clipPath id="clip0_1785_19783">
<rect width="190" height="190" rx="95" fill="white"/>
</clipPath>
</defs>
</svg>
