<svg width="122" height="22" viewBox="0 0 122 22" fill="none" xmlns="http://www.w3.org/2000/svg">
<g id="Frame" clip-path="url(#clip0_1720_13470)">
<g id="Group">
<path id="Vector" d="M38.6771 21.8536C35.7051 21.8536 33.1764 20.7617 30.9105 18.4875L17.126 4.73585C15.1966 2.78188 13.1113 1.87058 10.5826 1.87058C5.68129 1.87058 1.72409 5.85241 1.72409 10.7291C1.72409 15.6058 5.71413 19.5877 10.5826 19.5877C13.062 19.5877 15.3034 18.6271 16.9946 16.8784L11.7813 11.6651L13.0046 10.4418L22.8319 20.2691L21.6086 21.517L18.2179 18.1263C16.2065 20.2116 13.5546 21.3282 10.5826 21.3282C4.74536 21.3364 0 16.591 0 10.7538C0 4.91647 4.74536 0.146484 10.5826 0.146484C13.5546 0.146484 16.1079 1.23841 18.3493 3.51257L32.1338 17.2971C34.0877 19.2511 36.1485 20.1377 38.6771 20.1377C43.5785 20.1377 47.5357 16.1477 47.5357 11.2792C47.5357 6.37784 43.5456 2.42064 38.6771 2.42064C36.2305 2.42064 33.9892 3.35658 32.3144 5.1053L37.5524 10.3186L37.5031 10.3679L37.6345 10.4992L36.4112 11.7225L29.9171 5.23666L29.9417 5.1874L26.1651 1.38619L27.3884 0.146484L31.0911 3.84918C33.1026 1.78848 35.7297 0.671922 38.6771 0.671922C44.5144 0.663712 49.2598 5.40907 49.2598 11.2792C49.2598 17.1411 44.5144 21.8536 38.6771 21.8536Z" fill="white"/>
<path id="Vector_2" d="M57.0674 0.671881H64.9983C65.0721 0.671881 65.1132 0.721141 65.1378 0.78682V1.21374C65.1132 1.28763 65.0639 1.32868 65.0229 1.32868H58.2004V3.8163H65.0475C65.0968 3.8163 65.1378 3.86556 65.1625 3.93123V4.33352C65.1625 4.38278 65.1132 4.42383 65.0475 4.44846H58.225V6.96071H65.0475C65.0968 6.96071 65.1378 7.00997 65.1625 7.07565V7.47794C65.1625 7.5272 65.1132 7.56825 65.0475 7.61751H57.1167C56.9771 7.61751 56.8622 7.54362 56.7883 7.42868C56.7883 7.42868 56.7883 7.40405 56.7637 7.37942C56.7637 5.68817 56.7637 4.37457 56.7637 3.43864V0.9346C56.7637 0.81966 56.854 0.74577 57.0264 0.696511C57.0428 0.671881 57.0674 0.671881 57.0674 0.671881ZM66.5417 0.671881H67.6172C67.8307 0.671881 68.0442 0.74577 68.274 0.90997C68.3479 0.983859 69.2346 1.94442 70.9751 3.79167C72.4283 5.35977 73.159 6.13971 73.1836 6.13971V0.90997C73.1836 0.81145 73.2575 0.74577 73.4217 0.696511C73.4709 0.696511 73.4956 0.671881 73.5366 0.671881H74.3084C74.4233 0.671881 74.5218 0.721141 74.5875 0.83608C74.6121 0.86071 74.6121 0.88534 74.6121 0.90997C74.6121 2.6669 74.6121 4.12006 74.6121 5.31872V7.37942C74.6121 7.45331 74.5382 7.51899 74.3987 7.59288C74.333 7.61751 74.2837 7.61751 74.2591 7.61751H73.2493C73.0851 7.61751 72.8962 7.54362 72.6828 7.40405C72.6335 7.35479 71.673 6.36959 69.8421 4.42383C68.3643 2.87215 67.6337 2.10041 67.6337 2.10041V7.37942C67.6337 7.45331 67.5598 7.51899 67.4448 7.59288C67.3792 7.59288 67.3299 7.61751 67.256 7.61751H66.5992C66.3857 7.61751 66.2462 7.54362 66.1969 7.40405C66.1969 5.83595 66.1969 4.52235 66.1969 3.46327V0.90997C66.1969 0.81145 66.2708 0.74577 66.435 0.696511C66.4761 0.671881 66.5007 0.671881 66.5417 0.671881ZM75.86 0.671881H84.0207C84.07 0.671881 84.111 0.721141 84.1357 0.78682V1.18911C84.1357 1.23837 84.0864 1.28763 84.0207 1.32868H80.7121V1.54214C80.7121 3.25802 80.7121 5.20378 80.7121 7.363C80.7121 7.45331 80.6464 7.5272 80.4987 7.57646C80.4576 7.59288 80.4084 7.59288 80.3591 7.59288H79.612C79.4724 7.59288 79.3739 7.51899 79.3082 7.40405C79.2836 7.37942 79.2836 7.33016 79.2836 7.31374V4.71118C79.2836 3.84093 79.2836 2.69153 79.2836 1.33689H75.8847C75.8108 1.33689 75.7944 1.28763 75.7451 1.22195V0.79503C75.7369 0.721141 75.7861 0.671881 75.86 0.671881ZM85.5724 0.671881H86.3442C86.3688 0.671881 86.3688 0.671881 86.3688 0.671881H86.418H93.2487C93.3883 0.671881 93.5032 0.74577 93.5771 0.86071C93.5936 0.88534 93.5935 0.90997 93.5935 0.959229V4.54698C93.5935 4.63729 93.5197 4.71118 93.3555 4.78507C93.3062 4.78507 93.2652 4.78507 93.2159 4.78507H91.2701C91.2948 4.8097 92.0419 5.67996 93.5197 7.363C93.5443 7.41226 93.5689 7.43689 93.5689 7.45331C93.5443 7.54362 93.4786 7.59288 93.3801 7.59288H92.4442C92.28 7.59288 92.1158 7.51899 91.9762 7.37942C91.9269 7.33016 91.2701 6.58305 90.0304 5.15452C89.817 4.91643 89.702 4.77686 89.702 4.77686H86.6972V7.33016C86.6972 7.42047 86.6233 7.49436 86.4837 7.56825C86.4345 7.59288 86.3934 7.59288 86.3688 7.59288H85.6217C85.4821 7.59288 85.3672 7.51899 85.2933 7.40405C85.2933 7.35479 85.2687 7.33016 85.2687 7.28911V0.90997C85.2687 0.81145 85.359 0.721141 85.5314 0.696511C85.4985 0.671881 85.5478 0.671881 85.5724 0.671881ZM92.0419 1.32868H86.6479V4.04617C86.6479 4.09543 86.6726 4.12006 86.7382 4.13648C86.7629 4.13648 86.7629 4.16111 86.8121 4.16111H92.1568V1.45183C92.1568 1.37794 92.1158 1.35331 92.0419 1.32868ZM94.9482 0.606201H102.263C102.501 0.606201 102.707 0.696511 102.871 0.88534C102.986 1.00028 103.035 1.13985 103.06 1.28763C103.06 1.36152 103.06 1.37794 103.06 1.40257C103.06 2.08399 103.06 4.12006 103.035 7.50257C103.035 7.55183 103.01 7.60109 102.961 7.66677C102.912 7.71603 102.846 7.74066 102.797 7.74066H95.4818C95.2191 7.74066 95.0139 7.62572 94.825 7.38763C94.7347 7.22343 94.6855 7.05923 94.6855 6.91966C94.6855 6.12329 94.6855 4.07901 94.7101 0.81966C94.7101 0.7704 94.7347 0.729351 94.784 0.655461C94.8333 0.630831 94.9071 0.606201 94.9482 0.606201ZM101.401 1.28763H96.1468C96.1468 1.33689 96.1468 1.4272 96.1468 1.61603C96.1468 2.32208 96.1468 4.05438 96.1468 6.84577C96.1468 6.91966 96.1961 6.96071 96.2618 7.0346C96.311 7.05923 96.3521 7.05923 96.3767 7.05923H101.631C101.631 7.00997 101.631 6.89503 101.631 6.68157C101.631 5.90983 101.631 4.16932 101.631 1.47646C101.631 1.41078 101.582 1.33689 101.516 1.28763C101.475 1.28763 101.45 1.28763 101.401 1.28763ZM104.546 0.671881H105.301C105.301 0.671881 105.35 0.671881 105.391 0.696511H112.214C112.353 0.696511 112.476 0.7704 112.542 0.88534C112.567 0.90997 112.567 0.9346 112.567 1.00028V4.5634C112.567 4.65371 112.493 4.7276 112.329 4.80149C112.304 4.82612 112.255 4.82612 112.189 4.82612H111.483C111.458 4.82612 111.409 4.82612 111.319 4.80149H105.597V7.35479C105.597 7.4451 105.523 7.54362 105.358 7.59288C105.309 7.59288 105.293 7.61751 105.243 7.61751H104.513C104.349 7.61751 104.258 7.54362 104.184 7.42868C104.16 7.37942 104.16 7.35479 104.16 7.31374V0.90997C104.16 0.81145 104.25 0.721141 104.422 0.696511C104.472 0.671881 104.496 0.671881 104.546 0.671881ZM111.023 1.32868H105.654V4.02975C105.679 4.09543 105.703 4.12006 105.769 4.12006H111.163V1.45183C111.163 1.37794 111.138 1.36152 111.064 1.33689C111.023 1.32868 111.023 1.32868 111.023 1.32868ZM113.765 0.671881H114.611C114.775 0.671881 114.964 0.74577 115.178 0.88534C115.251 0.9346 115.596 1.263 116.278 1.91979L117.706 3.23339L120.383 0.9346C120.457 0.86071 120.547 0.84429 120.637 0.79503C120.785 0.721141 120.9 0.704721 120.99 0.704721H121.836C121.951 0.704721 122 0.729351 122 0.79503C122 0.84429 121.951 0.90997 121.836 1.00849C121.787 1.03312 121.319 1.45183 120.432 2.23177C119.422 3.10203 118.856 3.59463 118.765 3.66031C118.675 3.70957 118.601 3.75883 118.527 3.77525C118.527 4.17753 118.527 4.50593 118.527 4.73581V7.38763C118.527 7.46152 118.453 7.5272 118.338 7.60109C118.289 7.62572 118.248 7.62572 118.199 7.62572H117.452C117.312 7.62572 117.197 7.55183 117.123 7.43689C117.123 7.41226 117.099 7.41226 117.099 7.41226C117.099 6.89503 117.099 6.50095 117.099 6.18897V3.79167C116.869 3.74241 116.68 3.6521 116.557 3.51253L115.785 2.8311C114.447 1.60782 113.749 0.959229 113.65 0.88534C113.626 0.83608 113.601 0.81145 113.601 0.79503V0.7704C113.626 0.696511 113.667 0.671881 113.765 0.671881Z" fill="white"/>
<path id="Vector_3" d="M61.476 9.41553H66.1885C66.4512 9.41553 66.6647 9.51405 66.8289 9.70288C66.9028 9.8014 66.9931 10.0395 67.1408 10.4418C67.1901 10.5649 67.9947 12.7734 69.571 17.0836C70.4248 19.4153 70.8846 20.6303 70.901 20.7781V20.8274C70.901 20.9916 70.7779 21.1147 70.5234 21.1394H69.3329C69.0948 21.1394 68.8814 21.0408 68.6925 20.8274C68.6433 20.7781 68.5694 20.5893 68.4544 20.228C68.4052 20.1542 68.0768 19.1772 67.4036 17.3464H60.3102C60.2855 17.3464 60.2116 17.6091 60.0474 18.0852C59.4235 19.7519 59.0951 20.655 59.0458 20.8027C58.9473 20.9505 58.7585 21.0655 58.4958 21.1394C58.4219 21.164 58.3726 21.164 58.3562 21.164H57.215C57.0262 21.164 56.8784 21.0901 56.8127 20.9505C56.7881 20.9259 56.7881 20.9013 56.7881 20.852C56.7881 20.8027 56.862 20.5647 57.0262 20.1377C57.1001 19.9489 57.9785 17.5188 59.6944 12.8227C60.384 10.918 60.7617 9.89171 60.811 9.8014C60.9095 9.66183 61.0491 9.56331 61.2871 9.48942C61.3364 9.44016 61.4021 9.41553 61.476 9.41553ZM64.8831 10.5075H62.7896L60.6714 16.2462H66.9849C65.622 12.5599 64.9324 10.6552 64.8831 10.5075ZM74.6201 9.41553H85.4573C85.5968 9.41553 85.72 9.51405 85.8103 9.67825C85.8349 9.72751 85.8596 9.8014 85.8596 9.86708C85.8596 10.1791 85.8596 11.1068 85.8842 12.6995C85.8842 13.0361 85.7857 13.3892 85.6215 13.8161C85.5065 14.0788 85.3341 14.3169 85.096 14.5303C84.9318 14.6945 84.8087 14.7931 84.6937 14.8669C85.2931 15.0558 85.7857 15.3678 86.1469 15.8439C86.2865 16.0328 86.4096 16.2216 86.5246 16.4597C86.6641 16.8373 86.738 17.1493 86.738 17.4367C86.738 17.6994 86.738 18.7913 86.7134 20.7453C86.7134 20.8684 86.6149 20.9834 86.4507 21.1065C86.3768 21.1311 86.3357 21.1311 86.3111 21.1311H73.1505C72.9124 21.1311 72.7236 21.0326 72.6005 20.8192C72.6005 20.8192 72.6005 20.7945 72.5758 20.7453C72.5758 17.8882 72.5758 15.6715 72.5758 14.0788V9.79319C72.5758 9.62899 72.7154 9.50584 72.9781 9.41553C73.052 9.41553 73.0766 9.3909 73.0766 9.3909C73.7417 9.41553 74.2671 9.41553 74.6201 9.41553ZM83.4376 10.5075H74.9567V14.3415H83.1995C83.2242 14.3169 83.2734 14.1773 83.3227 13.9638C83.3966 13.6108 83.4458 13.2003 83.4458 12.7734C83.4212 11.7061 83.4212 10.9672 83.4212 10.5813V10.5075H83.4376ZM83.8892 15.4663H74.9814V20.0392H84.2914C84.3161 18.4219 84.3161 17.5188 84.3161 17.3217C84.2914 16.4679 84.1519 15.8439 83.8892 15.4663ZM93.0761 9.41553H97.7886C98.0513 9.41553 98.2648 9.51405 98.429 9.70288C98.5029 9.8014 98.5932 10.0395 98.741 10.4418C98.7902 10.5649 99.5948 12.7734 101.171 17.0836C102.025 19.4153 102.477 20.6303 102.526 20.7781V20.8274C102.526 20.9916 102.403 21.1147 102.148 21.1394H100.958C100.72 21.1394 100.506 21.0408 100.317 20.8274C100.268 20.7781 100.194 20.5893 100.079 20.228C100.03 20.1542 99.6933 19.1772 99.0283 17.3464H91.9349C91.9103 17.3464 91.8364 17.6091 91.6722 18.0852C91.0565 19.7519 90.7199 20.655 90.6706 20.8027C90.5721 20.9505 90.3832 21.0655 90.1205 21.1394C90.0466 21.164 89.9974 21.164 89.981 21.164H88.8398C88.6509 21.164 88.5032 21.0901 88.4375 20.9505C88.4129 20.9259 88.4129 20.9013 88.4129 20.852C88.4129 20.8027 88.4867 20.5647 88.6509 20.1377C88.7248 19.9489 89.6033 17.5188 91.3192 12.8227C92.0334 10.918 92.3865 9.89171 92.4357 9.8014C92.5342 9.66183 92.6738 9.56331 92.9119 9.48942C92.9119 9.44016 93.0104 9.41553 93.0761 9.41553ZM96.4586 10.5075H94.3651L92.2469 16.2462H98.585C97.2221 12.5599 96.5079 10.6552 96.4586 10.5075ZM104.8 9.41553H117.066C117.189 9.41553 117.254 9.48942 117.304 9.60436V10.294C117.279 10.3925 117.205 10.4582 117.115 10.5075H106.688V20.031H117.263C117.361 20.031 117.427 20.1049 117.451 20.2198V20.8848C117.451 20.9834 117.378 21.049 117.263 21.0983H104.833C104.595 21.0983 104.406 20.9998 104.283 20.7863C104.283 20.7863 104.283 20.7617 104.258 20.7124C104.258 17.8554 104.258 15.6387 104.258 14.0459V9.76035C104.258 9.57152 104.398 9.44837 104.71 9.38269C104.726 9.44016 104.775 9.41553 104.8 9.41553ZM120.103 9.41553H121.392C121.63 9.41553 121.795 9.51405 121.934 9.70288C121.959 9.75214 121.959 9.8014 121.959 9.86708V17.1575C121.959 18.0606 121.959 19.2511 121.959 20.7289C121.959 20.8438 121.868 20.9669 121.68 21.0901C121.581 21.1394 121.483 21.164 121.392 21.164H120.103C119.865 21.164 119.701 21.0655 119.553 20.852C119.529 20.8027 119.529 20.7781 119.529 20.7535C119.529 16.7963 119.529 13.2496 119.529 10.1298V9.86708C119.529 9.65362 119.701 9.50584 120.005 9.46479C120.038 9.44016 120.054 9.41553 120.103 9.41553Z" fill="white"/>
</g>
</g>
<defs>
<clipPath id="clip0_1720_13470">
<rect width="122" height="21.7071" fill="white" transform="translate(0 0.146484)"/>
</clipPath>
</defs>
</svg>
