<svg width="114" height="20" viewBox="0 0 114 20" fill="none" xmlns="http://www.w3.org/2000/svg">
<g id="Group 1000002724">
<path id="image 224 (Traced)" fill-rule="evenodd" clip-rule="evenodd" d="M0.81543 0.823698C0.81543 0.823698 0.81543 5.5029 0.81543 10.3524V19.1698H8.20454H14.3989C15.1661 19.1698 15.9042 18.8758 16.4613 18.3484L17.0363 17.804C18.7035 16.2255 19.2328 14.9285 18.9758 13.0529C18.7954 11.7376 17.7958 9.73885 17.318 9.73885C17.1816 9.73885 17.2862 9.30797 17.5506 8.78102C18.8025 6.28537 17.6173 3.39944 15.3154 1.5532C14.8575 1.18588 13.8321 0.823698 13.8321 0.823698L0.81543 0.823698ZM29.6451 2.88671C28.9033 4.14308 26.7551 7.78017 24.871 10.9693C21.274 17.0581 21.1293 17.441 22.0185 18.5066L22.2718 18.8103C22.4618 19.0381 22.7431 19.1698 23.0397 19.1698H32.5814H41.9645C42.3479 19.1698 42.6975 18.9506 42.8646 18.6056L43.0429 18.2373C43.2913 17.7245 43.4074 17.0914 43.3008 16.83C42.8976 15.8415 36.7843 5.22911 35.0988 2.59199L34.5903 1.79638C34.115 1.05268 33.2933 0.602661 32.4107 0.602661C31.5326 0.602661 30.7198 1.06665 30.2733 1.82283L29.6451 2.88671ZM46.4964 0.636259C46.3979 0.892661 46.4964 5.59401 46.4964 10.4436V19.1698H48.5594H50.6224L50.6348 13.2018L50.6468 7.23377L51.7037 8.41263C54.66 11.7102 60.409 17.9532 60.928 18.7035C62.3154 18.7035 64.1609 18.7035 64.8846 18.7035C64.8846 17.8184 64.8154 1.11946 64.8154 0.61946C64.3154 0.61946 60.8154 0.61946 60.8154 0.61946C60.8154 0.61946 60.8207 3.94597 60.8154 7.05316C60.8072 12.0206 60.8154 12.0532 60.8154 12.5532C60.5832 12.2464 59.2917 10.8417 58.3351 9.77068C56.3089 7.50196 53.8731 4.68713 51.8826 2.31408L50.475 0.636259L48.6646 0.61946C47.275 0.606492 46.9228 0.636263 46.4964 0.636259ZM13.5619 5.35643C14.1805 6.18576 14.0909 7.031 13.3005 7.82143C12.9492 8.17273 12.0308 8.26527 8.89919 8.26527H4.94145V6.34137V4.41746L8.96255 4.49939C12.9194 4.58015 12.9928 4.5937 13.5619 5.35643ZM33.5309 7.68026C34.0231 8.65518 34.8625 10.147 35.3959 10.9958C35.9293 11.8443 36.728 13.1688 37.1701 13.9385L37.9744 15.3384H32.4847H26.9947L27.7769 13.9385C28.9351 11.8655 32.4865 5.91314 32.5669 5.9102C32.6049 5.90872 33.0388 6.70534 33.5309 7.68026ZM14.2035 12.2646C16.4719 14.533 14.9364 15.6332 9.50276 15.6332H4.94145V13.7175V11.8019H9.34126C12.9462 11.8019 13.8245 11.8856 14.2035 12.2646Z" fill="white"/>
<path id="image 224 (Traced)_2" fill-rule="evenodd" clip-rule="evenodd" d="M99.9509 2.00317C99.4446 2.77268 98.5268 4.33084 97.9114 5.46549C97.2961 6.60015 96.1741 8.52317 95.4176 9.73887C94.6613 10.9546 93.4079 13.1361 92.6322 14.5864L91.222 17.2235C91.222 17.2235 91.0331 18.116 91.3156 18.5532C91.5564 18.926 92.2703 19.1698 92.2703 19.1698H102.244C103.634 19.1698 105.008 19.1751 106.267 19.1801C108.494 19.1888 110.361 19.196 111.316 19.1698C112.251 19.144 112.446 18.9471 112.744 18.6443C112.765 18.6235 112.786 18.6022 112.808 18.5803C113.131 18.2572 113.167 17.6673 113.185 17.0532C113.194 16.7279 113.116 16.2226 113.116 16.2226C113.116 16.2226 112.316 15.3273 111.684 14.2333C111.051 13.139 109.501 10.4536 108.24 8.26529C103.994 0.897989 103.761 0.602683 102.209 0.603272C101.11 0.60369 100.616 0.992749 99.9509 2.00317ZM102.316 6.35541L96.8779 15.3385H107.785L102.316 6.35541Z" fill="white"/>
<path id="Union" fill-rule="evenodd" clip-rule="evenodd" d="M71.3758 0.627686H73.8158C73.9577 0.627686 75.2659 2.3089 76.485 3.87557C77.5485 5.24238 78.5442 6.522 78.6384 6.522C78.7392 6.522 79.865 5.19578 81.1406 3.57484L83.4594 0.627686H85.7555H87.3158C87.839 0.627686 87.8345 0.853525 87.821 1.53145C87.8185 1.65326 87.8158 1.78966 87.8158 1.94197C85.6668 4.4463 83.9934 6.64518 82.2012 9.00007C81.9481 9.33265 81.6926 9.66834 81.4331 10.0084C81.6948 10.3513 81.9523 10.6897 82.2075 11.025C83.9996 13.3799 85.6731 15.5788 87.8221 18.0831C87.8221 18.2354 87.8248 18.3718 87.8272 18.4936C87.8407 19.1715 87.8452 19.3974 87.3221 19.3974H85.7618H83.4656L81.1468 16.4502C79.8713 14.8293 78.7455 13.5031 78.6447 13.5031C78.5505 13.5031 77.5548 14.7827 76.4912 16.1495C75.2721 17.7162 73.9639 19.3974 73.8221 19.3974H71.382H71.1364H69.9816C69.8085 19.3974 69.811 19.1922 69.8183 18.5858C69.82 18.4417 69.8221 18.275 69.8221 18.0831C70.8766 16.4515 72.3335 14.5519 73.8129 12.6228C74.4801 11.7528 75.1519 10.8768 75.7934 10.0167C75.15 9.15394 74.476 8.2751 73.8067 7.4023C72.3272 5.47317 70.8704 3.57352 69.8158 1.94197C69.8158 1.75002 69.8138 1.58333 69.8121 1.43928C69.8047 0.832897 69.8023 0.627686 69.9753 0.627686H71.1301H71.3758Z" fill="white"/>
</g>
</svg>
