<svg width="102" height="20" viewBox="0 0 102 20" fill="none" xmlns="http://www.w3.org/2000/svg">
<g id="Frame" clip-path="url(#clip0_1720_13457)">
<g id="Group">
<path id="Vector" d="M11.8451 0.755005V8.86689H4.05594V0.755005H0V19.4872H4.05594V10.9572H11.8451V19.4872H15.9011V0.755005H11.8451Z" fill="white"/>
<path id="Vector_2" d="M24.2332 5.66174C20.4779 5.66174 17.7422 8.77154 17.7422 12.9522C17.7422 17.0595 20.7053 19.7659 24.2332 19.7659C27.365 19.7659 29.4846 17.9983 29.7047 15.3872C28.8832 16.2087 27.4897 16.7294 25.9714 16.7294C24.1525 16.7294 22.0402 15.7319 21.4167 13.0989L29.7267 10.6125C29.7487 10.4658 29.7487 10.3411 29.7487 10.2384C29.7267 8.09678 27.9371 5.66174 24.2332 5.66174ZM25.9934 10.9572H21.1674C21.2701 8.7202 22.4656 7.49535 23.8298 7.49535C25.0546 7.49535 26.1181 8.39749 25.9934 10.9572Z" fill="white"/>
<path id="Vector_3" d="M37.9415 5.65443C33.8342 5.65443 31.2012 8.74223 31.2012 13.0915C31.2012 17.2428 33.6362 19.7586 36.4233 19.7586C38.2642 19.7586 39.6064 18.6657 40.3032 17.2428V19.4798H44.0071V5.38306L40.3252 6.47589C40.3252 6.50523 39.4524 5.65443 37.9415 5.65443ZM40.3032 16.6267C39.8558 16.8981 39.2837 17.0961 38.6896 17.0961C36.3499 17.0961 35.1324 14.8298 35.1324 11.7493C35.1324 8.83758 36.4526 7.44403 38.0662 7.44403C38.961 7.44403 39.7091 7.81809 40.3032 8.44152V16.6267Z" fill="white"/>
<path id="Vector_4" d="M62.042 19.4871H65.7239V0.234253L62.042 1.35642V19.4871Z" fill="white"/>
<path id="Vector_5" d="M69.1348 19.4872H72.8166V5.66174L69.1348 6.75457V19.4872Z" fill="white"/>
<path id="Vector_6" d="M84.2871 5.66174C82.1968 5.66174 80.8032 6.80592 79.9084 8.2728V5.66174L76.2266 6.75457V19.4945H79.9084V8.84489C80.5539 8.54418 81.1773 8.37548 81.8227 8.37548C83.5903 8.37548 84.4851 9.41697 84.4851 11.5366V19.5238H88.167V10.2604C88.167 7.12863 86.4948 5.66174 84.2871 5.66174Z" fill="white"/>
<path id="Vector_7" d="M102 10.2091C102 8.09679 100.232 5.65442 96.4988 5.65442C92.7436 5.65442 90.0078 8.76422 90.0078 12.9448C90.0078 17.0521 92.9709 19.7585 96.4988 19.7585C99.6306 19.7585 101.75 17.9909 101.97 15.3799C101.149 16.2013 99.7553 16.7221 98.2371 16.7221C96.4181 16.7221 94.3058 15.7246 93.6824 13.0915L101.992 10.6052C102 10.4071 102 10.3118 102 10.2091ZM98.2664 10.9572H93.4403C93.543 8.72021 94.7312 7.5027 96.1027 7.5027C97.3202 7.49536 98.3617 8.3975 98.2664 10.9572Z" fill="white"/>
<path id="Vector_8" d="M68.9365 3.76941H73.0145V0.879639H68.9365V3.76941Z" fill="white"/>
<path id="Vector_9" d="M54.957 6.0578C54.1796 5.77909 53.3361 5.66174 52.588 5.66174C48.4807 5.66174 45.8477 8.7422 45.8477 13.0989C45.8477 17.2501 48.2827 19.7659 51.0698 19.7659C52.9107 19.7659 54.2529 18.673 54.9497 17.2501V19.4871H58.6536V0.234253L54.9497 1.35642V6.0578H54.957ZM54.957 16.6267C54.5096 16.9054 53.9375 17.1035 53.3361 17.1035C50.9964 17.1035 49.7789 14.8371 49.7789 11.7567C49.7789 8.84488 51.0991 7.45134 52.7127 7.45134C53.6075 7.45134 54.3556 7.82539 54.9497 8.44882V16.6267H54.957Z" fill="white"/>
</g>
</g>
<defs>
<clipPath id="clip0_1720_13457">
<rect width="102" height="19.5316" fill="white" transform="translate(0 0.234253)"/>
</clipPath>
</defs>
</svg>
