<svg width="122" height="24" viewBox="0 0 122 24" fill="none" xmlns="http://www.w3.org/2000/svg">
<g id="Frame" clip-path="url(#clip0_1720_13426)">
<g id="Group">
<path id="Vector" d="M14.3469 0.743108C12.5168 1.10611 10.9892 1.78673 9.53719 2.86817C9.05319 3.23117 6.81469 5.41673 4.56862 7.70061L0.5 11.8827L4.93919 16.4731C7.37431 18.9914 9.65062 21.2677 9.99094 21.5097C13.2806 23.8541 18.0979 24.0583 21.8489 21.9937C22.3329 21.7215 23.1119 21.2072 23.5581 20.8594C24.0042 20.4964 26.999 17.5167 30.1904 14.227C33.3969 10.9525 36.2933 8.07873 36.6336 7.86698C37.6243 7.21661 38.3957 7.01242 39.5074 7.08048C40.0594 7.1183 40.6871 7.25442 40.9594 7.39054C41.5114 7.67792 45.8372 11.7465 45.8372 11.9961C45.8372 12.0793 44.9297 13.0397 43.8331 14.1212C41.5341 16.3824 40.9896 16.6924 39.2578 16.7227C37.889 16.7378 36.6563 16.1101 35.0757 14.6127L33.9111 13.5162L31.6121 15.8076L29.3207 18.099L30.1072 18.8855C33.3061 22.145 36.6639 23.6348 40.2183 23.4079C42.3131 23.2567 44.4154 22.5307 46.0111 21.366C47.0018 20.6627 55.3659 12.3062 55.2979 12.1171C55.1542 11.7465 46.3439 2.77742 45.6632 2.30098C44.1054 1.21955 42.6004 0.743108 40.2712 0.606983C38.5394 0.501108 36.7773 0.765795 35.2724 1.37836C33.1624 2.2178 32.5347 2.7623 25.7663 9.65173C18.6878 16.8437 18.6954 16.8285 16.8879 16.9117C15.1259 17.01 14.8158 16.8285 12.2067 14.2422L9.93044 12.0112L11.8513 10.0904C13.9234 8.01823 14.5738 7.57204 15.8216 7.34517C17.5005 7.03511 18.6273 7.50398 20.5331 9.33411L21.8716 10.6349L24.1026 8.40392C25.3201 7.18636 26.3259 6.11248 26.3259 6.03686C26.3259 5.80998 23.7774 3.41267 22.7791 2.69423C21.7355 1.95311 20.2306 1.23467 19.0811 0.917045C17.9542 0.591858 15.5267 0.516233 14.3469 0.743108Z" fill="white"/>
<path id="Vector_2" d="M62.6182 4.68317V8.54004H63.4954H64.3727V4.68317V0.826294H63.4954H62.6182V4.68317Z" fill="white"/>
<path id="Vector_3" d="M66.4072 4.68317V8.54004H67.2845H68.1617V6.21079V3.88154L69.0844 5.23523C69.5835 5.96879 70.317 7.01998 70.7254 7.54936L71.4438 8.54004H72.2455H73.0471V4.68317V0.826294H72.1698H71.285L71.2548 3.15554L71.217 5.49992L70.0372 3.78323C67.897 0.644794 68.0861 0.848981 67.1937 0.833856H66.4072V4.68317Z" fill="white"/>
<path id="Vector_4" d="M74.9375 4.68317V8.54004H75.8147H76.692V6.98217V5.42429H78.3936H80.0876V4.68317V3.94204H78.3936H76.6996V3.12529V2.31611H78.6658H80.6321V1.56742V0.826294H77.7886H74.9451V4.68317H74.9375Z" fill="white"/>
<path id="Vector_5" d="M81.9785 4.68317V8.54004H82.8558H83.733V4.68317V0.826294H82.8558H81.9785V4.68317Z" fill="white"/>
<path id="Vector_6" d="M85.6609 4.64548L85.6987 8.47967H86.5759H87.4532L87.491 6.18067L87.5288 3.88167L88.2321 4.96311C88.6254 5.56055 89.3589 6.61173 89.8732 7.30749L90.7958 8.56286L91.5672 8.52505L92.3234 8.48723L92.3612 4.65305L92.3915 0.833984H91.4462H90.5009L90.4706 3.09517L90.4328 5.35636L90.0395 4.7438C89.8202 4.41861 89.1169 3.40523 88.4817 2.49773L87.3171 0.833984H86.4625H85.623L85.6609 4.64548Z" fill="white"/>
<path id="Vector_7" d="M94.2979 4.68317V8.54004H95.1751H96.0524V4.68317V0.826294H95.1751H94.2979V4.68317Z" fill="white"/>
<path id="Vector_8" d="M97.4136 1.56742V2.30854H98.495H99.5764V5.42429V8.54004H100.454H101.331V5.42429V2.31611H102.412H103.494V1.56742V0.826294H100.446H97.3984V1.56742H97.4136Z" fill="white"/>
<path id="Vector_9" d="M105.483 3.05723L106.753 5.28061V6.92167V8.54761H107.63H108.508V6.92923V5.31842L109.536 3.50342C110.103 2.51273 110.686 1.49936 110.837 1.25736L111.109 0.826294H110.134H109.173L108.417 2.39929L107.646 3.97229L106.859 2.39929L106.073 0.826294H105.127H104.189L105.483 3.05723Z" fill="white"/>
<path id="Vector_10" d="M117.265 15.0968C116.139 15.5203 115.556 16.2765 115.556 17.3201C115.556 18.5679 116.207 19.1503 117.991 19.4981C119.322 19.7704 119.617 19.9292 119.617 20.3905C119.617 21.2602 117.938 21.5022 116.691 20.8064C116.35 20.6174 116.04 20.451 116.018 20.451C115.987 20.451 115.76 20.7384 115.488 21.0863L115.012 21.7064L115.458 22.0164C116.078 22.4399 117.22 22.75 118.127 22.75C120.351 22.75 121.773 21.5022 121.455 19.8536C121.266 18.8629 120.464 18.2957 118.869 18.0159C117.409 17.7588 116.948 17.3126 117.553 16.7529C117.863 16.4656 119.058 16.458 119.814 16.7227C120.109 16.8286 120.366 16.9269 120.381 16.9269C120.396 16.9269 120.57 16.6395 120.774 16.3068C121.137 15.6942 121.137 15.6715 120.895 15.4976C120.237 15.0136 118.112 14.7867 117.265 15.0968Z" fill="white"/>
<path id="Vector_11" d="M61.8321 15.2026C61.8699 15.3009 62.4976 17.0403 63.2387 19.0595L64.5622 22.7576H65.2655C65.7117 22.7576 65.9991 22.6895 66.0369 22.5836C66.3999 21.6383 68.7064 15.1951 68.7064 15.127C68.7064 15.0741 68.298 15.0438 67.7989 15.0741L66.8914 15.1119L66.1579 17.4109C65.7495 18.6738 65.4016 19.8082 65.3562 19.9141C65.3184 20.0199 64.9252 18.9763 64.4639 17.5697L63.6395 15.0363H62.7018C62.0212 15.0438 61.7943 15.0816 61.8321 15.2026Z" fill="white"/>
<path id="Vector_12" d="M69.9543 18.8554L69.9921 22.6896H72.8356H75.6791V21.9485V21.2074L73.7583 21.1696L71.8223 21.1318V20.3226V19.5134H73.4482H75.0741V18.8328V18.1521H73.4482H71.8223V17.3429V16.5338H73.7885H75.7548V15.7851V15.0439H72.8432H69.9316L69.9543 18.8554Z" fill="white"/>
<path id="Vector_13" d="M77.1308 18.8553L77.1686 22.6895H78.0459H78.9231L78.961 20.3981L78.9912 18.1066L79.9138 19.4452C80.413 20.1788 81.1616 21.2299 81.5549 21.7744L82.2733 22.7651L83.0447 22.7273L83.801 22.6895L83.8388 18.8553L83.869 15.0363H82.9237H81.9784L81.9481 17.2974L81.9103 19.5435L81.381 18.7419C81.0936 18.3108 80.3903 17.2899 79.8231 16.4958L78.7946 15.0363H77.94H77.1006L77.1308 18.8553Z" fill="white"/>
<path id="Vector_14" d="M85.0942 15.7849V16.5261H86.1757H87.2571V19.6418V22.7576H88.1344H89.0116V19.6418V16.5261H90.1611H91.3106V15.7849V15.0438H88.1949H85.0791V15.7849H85.0942Z" fill="white"/>
<path id="Vector_15" d="M92.5352 17.91C92.5352 20.6552 92.5503 20.8216 92.8452 21.298C93.8586 22.9769 96.687 23.2491 98.0407 21.782C98.6759 21.1014 98.7591 20.6476 98.7591 17.7436V15.0363H97.8818H97.0046V17.6907V20.3451L96.6113 20.7384C96.082 21.2678 95.3106 21.2829 94.7132 20.7762L94.2897 20.4208V17.7285V15.0363H93.4124H92.5352V17.91Z" fill="white"/>
<path id="Vector_16" d="M100.666 18.9007V22.7576H101.543H102.42V21.2678V19.7779H103.003H103.6L104.22 21.2299L104.833 22.6895L105.793 22.7273C106.413 22.7576 106.754 22.7122 106.754 22.6214C106.754 22.5383 106.444 21.8123 106.05 20.9804C105.37 19.5208 105.362 19.4603 105.604 19.2864C106.512 18.6511 106.754 18.2049 106.754 17.2143C106.754 16.3748 106.345 15.7396 105.536 15.3312C104.992 15.0589 104.75 15.0363 102.798 15.0363H100.658V18.9007H100.666ZM104.727 16.7983C104.878 16.9496 104.999 17.1916 104.999 17.3428C104.999 17.91 104.538 18.152 103.441 18.152H102.428V17.3428V16.5336H103.441C104.281 16.5261 104.508 16.5866 104.727 16.7983Z" fill="white"/>
<path id="Vector_17" d="M108.546 18.8553L108.583 22.6895H111.427H114.27V21.9484V21.2073L112.266 21.1694L110.262 21.1316L110.3 20.3603L110.338 19.5889L112.002 19.5511L113.65 19.5133V18.8478V18.1823L112.002 18.1444L110.338 18.1066L110.3 17.3201L110.262 16.5488H112.304H114.331V15.7849V15.0438H111.419H108.508L108.546 18.8553Z" fill="white"/>
</g>
</g>
<defs>
<clipPath id="clip0_1720_13426">
<rect width="121" height="22.8312" fill="white" transform="translate(0.5 0.584351)"/>
</clipPath>
</defs>
</svg>
