<svg width="100" height="50" viewBox="0 0 100 50" fill="none" xmlns="http://www.w3.org/2000/svg">
<path id="IOSG Ventures 1 (Traced)" fill-rule="evenodd" clip-rule="evenodd" d="M45.3546 1.48529V2.81006H46.6794H48.0041V1.48529V0.160522H46.6794H45.3546V1.48529ZM8.4818 1.82753V3.27373L9.75138 3.2075L11.0209 3.14126L11.0867 1.76129L11.1523 0.381318H9.81717H8.4818V1.82753ZM55.9528 3.14126V4.57643H57.2775H58.6023V3.14126V1.70609H57.2775H55.9528V3.14126ZM38.7753 4.41083L38.8411 5.7908L40.1107 5.85704L41.3803 5.92328V4.47707V3.03086H40.0449H38.7098L38.7753 4.41083ZM0.807185 19.9769L0.864371 31.6238H3.51391H6.16346L6.22064 19.9769L6.27783 8.32994H3.51391H0.75L0.807185 19.9769ZM15.3797 19.9769L15.4369 31.6238H24.7102H33.9836L34.0408 19.9769L34.098 8.32994H24.7102H15.3225L15.3797 19.9769ZM41.3803 15.393V22.4608H48.0041H54.628V24.2272V25.9936H48.0041H41.3803V28.6455V31.2975L50.7089 31.2399L60.0375 31.1822V24.2272V17.2721L53.4688 17.2136L46.9002 17.1551V15.3921V13.629H53.5311H60.1618L60.0997 11.0347L60.0375 8.44034L50.7089 8.38271L41.3803 8.32508V15.393ZM68.6392 8.60594C68.5811 8.75784 68.5595 13.8995 68.5911 20.0321L68.6485 31.1822L77.9771 31.2399L87.3057 31.2975V24.2296V17.1617H82.3378H77.3699V19.8113V22.4608H79.5778H81.7858V24.2272V25.9936H77.9219H74.058V19.8113V13.629H80.6818H87.3057V10.9795V8.32994H78.0254C70.8048 8.32994 68.7216 8.3911 68.6392 8.60594ZM28.5742 19.9217V26.2144H24.7102H20.8463V19.9217V13.629H24.7102H28.5742V19.9217ZM90.6176 17.1511V18.4865H92.0638H93.51L93.4438 17.2169L93.3775 15.9474L91.9976 15.8816L90.6176 15.816V17.1511ZM96.515 23.9232C96.4289 24.0095 96.3583 24.6595 96.3583 25.368V26.6559H97.804H99.2496L99.184 25.276L99.1182 23.896L97.895 23.8311C97.2223 23.7955 96.6014 23.8368 96.515 23.9232ZM89.7344 29.7471V31.0718H91.1696H92.6048V29.7471V28.4223H91.1696H89.7344V29.7471ZM1.88996 43.0372C2.50642 44.7746 3.28208 46.9912 3.61349 47.9627L4.21648 49.729H5.07493H5.93339L7.63506 44.9819C8.57079 42.371 9.34291 40.1604 9.35063 40.0692C9.35858 39.9781 9.0402 39.9036 8.64299 39.9036H7.92121L6.52335 44.1162L5.12572 48.3288L3.75524 44.1714L2.38477 40.014L1.57688 39.946L0.769209 39.8778L1.88996 43.0372ZM13.5601 44.8715V49.8394H16.9824H20.4047V49.2943V48.7491L17.7 48.6871L14.9953 48.6251L14.9306 47.0314L14.8659 45.4377L17.4697 45.3754L20.0735 45.3131V44.7611V44.2092L17.4693 44.1469L14.865 44.0846L14.9301 42.6355L14.9953 41.1867L17.6448 41.1522L20.2943 41.118L20.3641 40.5108L20.4341 39.9036H16.997H13.5601V44.8715ZM24.5998 44.8715V49.8394H25.2622H25.9246V46.6748C25.9246 43.5298 25.9277 43.5103 26.4214 43.5454C26.784 43.5713 26.9372 43.7404 26.988 44.171C27.0423 44.6298 27.1774 44.7611 27.5952 44.7611C28.0213 44.7611 28.1326 44.8755 28.1326 45.3131C28.1326 45.7547 28.243 45.8651 28.6846 45.8651C29.1262 45.8651 29.2366 45.9755 29.2366 46.4171C29.2366 46.8587 29.3469 46.9691 29.7885 46.9691C30.3207 46.9691 30.3405 47.0205 30.3405 48.4043V49.8394H31.0029H31.6653V44.8715V39.9036H31.0029H30.3405V42.774C30.3405 45.4626 30.3136 45.6443 29.9144 45.6443C29.6404 45.6443 29.4629 45.4668 29.4176 45.1475C29.367 44.7918 29.1745 44.6309 28.7398 44.581C28.2628 44.526 28.1326 44.3957 28.1326 43.9738C28.1326 43.5477 28.0182 43.4364 27.5806 43.4364C27.139 43.4364 27.0286 43.326 27.0286 42.8844C27.0286 42.4428 26.9182 42.3324 26.4766 42.3324C25.9546 42.3324 25.9246 42.2662 25.9246 41.118C25.9246 39.916 25.918 39.9036 25.2622 39.9036H24.5998V44.8715ZM35.2779 40.2348C34.966 41.0478 35.3539 41.2677 36.9648 41.1913L38.5111 41.118L38.5104 45.4787L38.5099 49.8394H39.2827H40.0555L40.0551 45.4787L40.0549 41.118H41.6558C43.2385 41.118 43.2579 41.111 43.3268 40.5108L43.3968 39.9036H39.4009C36.0527 39.9036 35.3844 39.9573 35.2779 40.2348ZM47.0474 40.0509C46.9664 40.1317 46.9002 42.1189 46.9002 44.4668V48.7355H47.4522C47.8937 48.7355 48.0041 48.8459 48.0041 49.2874V49.8394H50.4329H52.8616V49.2874C52.8616 48.8459 52.972 48.7355 53.4136 48.7355H53.9656V44.305V39.8743L53.3584 39.9443L52.7512 40.014L52.6912 44.2644L52.6313 48.5147H50.428H48.2249V44.2092V39.9036H47.7098C47.4263 39.9036 47.1282 39.9699 47.0474 40.0509ZM58.1607 44.8651V49.8394H58.8231H59.4855V47.5056C59.4855 45.2118 59.4939 45.1731 59.9823 45.2425C60.338 45.293 60.4989 45.4856 60.5488 45.9203C60.6038 46.3972 60.7341 46.5275 61.156 46.5275C61.5822 46.5275 61.6934 46.6419 61.6934 47.0795C61.6934 47.5211 61.8038 47.6315 62.2454 47.6315C62.687 47.6315 62.7974 47.7419 62.7974 48.1835C62.7974 48.6251 62.9078 48.7355 63.3494 48.7355C63.791 48.7355 63.9014 48.8459 63.9014 49.2874C63.9014 49.7535 64.0045 49.8394 64.5638 49.8394C65.1526 49.8394 65.2262 49.7659 65.2262 49.177C65.2262 48.6178 65.1403 48.5147 64.6742 48.5147C64.2326 48.5147 64.1222 48.4043 64.1222 47.9627C64.1222 47.5253 64.0107 47.4107 63.5857 47.4107C63.1971 47.4107 63.0295 47.2736 62.9785 46.9139C62.9279 46.5582 62.7354 46.3972 62.3006 46.3473C61.8237 46.2924 61.6934 46.1621 61.6934 45.7401C61.6934 45.2359 61.7685 45.2027 62.9078 45.2027C64.0559 45.2027 64.1222 45.1727 64.1222 44.6507C64.1222 44.2065 64.2319 44.0988 64.6843 44.0988C65.2374 44.0988 65.2454 44.0751 65.1811 42.6084C65.1233 41.2869 65.0656 41.118 64.6742 41.118C64.3803 41.118 64.195 40.9334 64.1204 40.566C64.0083 40.0145 64.0052 40.014 61.0845 39.9524L58.1607 39.8908V44.8651ZM69.8629 44.8715V49.8394H73.3956H76.9283V49.2874V48.7355H74.1684H71.4084V47.0795V45.4235H73.9476H76.4867V44.7611V44.0988H73.9476H71.4084L71.4082 42.6084L71.408 41.118H74.1129H76.8179L76.8877 40.5108L76.9577 39.9036H73.4102H69.8629V44.8715ZM82.2274 40.4556C82.2274 40.8972 82.117 41.0076 81.6754 41.0076C81.1391 41.0076 81.1234 41.0518 81.1234 42.5532C81.1234 44.0546 81.1391 44.0988 81.6754 44.0988C82.117 44.0988 82.2274 44.2092 82.2274 44.6507V45.2027H84.5457H86.8641V46.8516V48.5008L84.2697 48.5628L81.6754 48.6251L81.6056 49.2322L81.5356 49.8394H84.2H86.8641V49.2874C86.8641 48.8459 86.9745 48.7355 87.4161 48.7355C87.9588 48.7355 87.9681 48.7061 87.9681 46.9691C87.9681 45.2321 87.9588 45.2027 87.4161 45.2027C86.9765 45.2027 86.8641 45.0919 86.8641 44.6585C86.8641 44.1195 86.8422 44.1136 84.6009 44.0513L82.3378 43.9884L82.272 42.6084L82.2064 41.2284H84.8663H87.5265V40.566V39.9036H84.8769H82.2274V40.4556ZM63.9014 42.6636V44.0988H61.6934H59.4855V42.6636V41.2284H61.6934H63.9014V42.6636Z" fill="white"/>
</svg>
