<svg width="108" height="42" viewBox="0 0 108 42" fill="none" xmlns="http://www.w3.org/2000/svg">
<g id="legend logo 1">
<g id="Group">
<path id="Vector" fill-rule="evenodd" clip-rule="evenodd" d="M11.2807 8.03996C12.2302 9.46655 13.4538 10.6902 14.8802 11.64C13.4537 12.5896 12.2302 13.8133 11.2807 15.24C10.3309 13.8133 9.10703 12.5896 7.68023 11.64C9.10698 10.6903 10.3308 9.46658 11.2807 8.03996ZM13.4974 40.92V23.158C13.4974 18.2932 17.455 14.3356 22.3202 14.3356V9.9038C17.4468 9.9038 13.4954 5.9534 13.4954 1.07996H9.06504C9.06504 5.95292 5.11367 9.9038 0.240234 9.9038V14.3356C5.10503 14.3356 9.06504 18.2932 9.06504 23.158V25.8585H4.29671V30.2904H9.06504V33.2856H0.240234V37.7174H5.86199C6.71141 37.7174 7.52604 38.0548 8.12672 38.6554C8.72739 39.256 9.06491 40.0705 9.06504 40.92H13.4974Z" fill="white"/>
<path id="Vector_2" d="M101.512 23.46C104.498 23.46 106.94 25.3286 107.421 27.9753H104.133C103.721 27.0153 102.702 26.399 101.54 26.399C99.8346 26.399 98.6845 27.6326 98.6845 29.4523C98.6845 31.2537 99.8158 32.4873 101.54 32.4873C102.738 32.4873 103.765 31.908 104.123 31.0296H101.294V29.0515L107.54 29.051C107.54 32.7782 105.107 35.4254 101.54 35.4254C98.0504 35.4254 95.4728 32.9174 95.4728 29.4523C95.4728 25.9867 98.0034 23.46 101.512 23.46ZM41.6797 23.748V26.5737H38.5856V35.1384H35.4339V26.5737H32.3398V23.7484H41.6797V23.748ZM48.0166 23.748C50.4718 23.748 52.2517 25.3982 52.2517 27.779C52.2517 29.1768 51.5691 30.322 50.444 30.996L52.7058 35.1384H49.2032L47.3552 31.6536H46.2176V35.1384H43.0803V23.748H48.0166ZM60.5158 23.748L65.0883 35.1384H61.6333L61.0054 33.2884H56.9686L56.3374 35.1384H52.975L57.4486 23.748H60.5158ZM70.7946 23.748C74.2434 23.748 76.6746 26.1057 76.6746 29.434C76.6746 32.7576 74.2338 35.1384 70.7946 35.1384H66.1851V23.748H70.7946ZM81.4866 23.748V35.1384H78.307V23.748H81.4866ZM86.4392 23.748L90.8125 29.724V23.748H93.8533V35.1384H91.2584L86.7334 28.9569V35.1384H83.6926V23.748H86.4392ZM70.6472 26.6222H69.3368V32.2646H70.6472C72.3334 32.2646 73.4576 31.114 73.4576 29.434C73.4576 27.7444 72.3334 26.6222 70.6467 26.6222H70.6472ZM58.9803 27.3038L57.7323 30.8328H60.2398L58.9803 27.3033V27.3038ZM47.6509 26.5368H46.2176V29.0097H47.6509C48.5283 29.0097 49.0333 28.4817 49.0333 27.7699C49.0333 27.058 48.5283 26.5363 47.6509 26.5363V26.5368ZM56.1003 5.96204C59.0859 5.96204 61.5282 7.8302 62.0096 10.4769H58.7216C58.3093 9.5174 57.2902 8.9006 56.1286 8.9006C54.4227 8.9006 53.2726 10.1342 53.2726 11.9544C53.2726 13.7553 54.404 14.9894 56.1286 14.9894C57.3262 14.9894 58.353 14.4096 58.711 13.5312H55.8824V11.5536H62.1286C62.1286 15.2803 59.695 17.928 56.1286 17.928C52.639 17.928 50.061 15.42 50.061 11.9548C50.061 8.48924 52.5915 5.96252 56.1003 5.96252V5.96204ZM35.9605 6.25004V14.7667H40.0141V17.64H32.7814V6.25004H35.9605ZM48.7093 6.25004V8.96252H44.5453V10.6396H48.2864V13.2134H44.5453V14.9184H48.847V17.64H41.4214V6.25004H48.7093ZM71.0005 6.25004V8.96252H66.837V10.6396H70.5776V13.2134H66.837V14.9184H71.1382V17.64H63.7126V6.25004H71.001H71.0005ZM75.6853 6.25004L80.0581 12.226V6.24956H83.0994V17.64H80.504L75.979 11.459V17.64H72.9387V6.25004H75.6848H75.6853ZM89.9144 6.25004C93.3627 6.25004 95.7944 8.60732 95.7944 11.9356C95.7944 15.2596 93.3536 17.64 89.9144 17.64H85.3045V6.25004H89.9144ZM89.7666 9.1238H88.4562V14.7667H89.7666C91.4533 14.7667 92.5774 13.6161 92.5774 11.9356C92.5774 10.246 91.4533 9.1238 89.7666 9.1238Z" fill="white"/>
</g>
</g>
</svg>
