<svg width="110" height="40" viewBox="0 0 110 40" fill="none" xmlns="http://www.w3.org/2000/svg">
<g id="Group 1000002716">
<path id="image 218 (Traced)" fill-rule="evenodd" clip-rule="evenodd" d="M74.7073 1.44998C74.7286 1.8176 74.73 20.5416 74.7091 22.406L74.6917 23.9156H72.2054H69.719V12.5496V1.18359H72.2054C73.5728 1.18359 74.6988 1.30365 74.7073 1.44998ZM11.4939 7.76841C14.3546 8.76258 14.4988 9.00375 13.4592 11.055L12.5634 12.8231L10.8901 11.976C8.98311 11.0106 6.95179 10.8813 5.942 11.6616C4.94143 12.4349 5.82692 13.0138 8.86661 13.5739C18.5561 15.3595 16.7024 24.7545 6.77065 24.1955C1.3615 23.8907 -0.517792 22.4849 1.03935 19.9073L2.01576 18.2905L3.69366 19.1404C6.80546 20.7175 10.2035 20.7501 9.9819 19.2012C9.88528 18.5267 9.46297 18.3349 6.90526 17.8056C3.3335 17.0665 1.91027 16.3028 1.06066 14.6686C-1.46934 9.80363 5.01318 5.51617 11.4939 7.76841ZM36.9214 7.90906C37.5387 8.28556 38.1536 8.9391 38.2878 9.36178L38.5315 10.13L39.4738 9.24918C41.1769 7.65723 42.647 7.13084 44.9288 7.29565C48.8692 7.58087 49.4521 8.95225 49.4649 17.9662L49.4734 23.9156H46.8095H44.1456V18.5643C44.1456 15.5548 43.9847 12.9126 43.7779 12.5261C43.2665 11.5703 40.9958 11.5984 39.7537 12.5755L38.8178 13.3115V18.6137V23.9156H36.3315H33.8451V18.667C33.8451 12.5372 33.5969 11.8392 31.4178 11.8392C28.6864 11.8392 28.5173 12.2235 28.5173 18.4304V23.9156H25.8534H23.1895V15.7463V7.57696H25.8978H28.6061L28.3799 8.70859L28.1536 9.83986L28.9595 9.08296C30.9536 7.2097 34.8358 6.63714 36.9214 7.90906ZM64.6718 7.8945C70.1236 10.6767 70.1236 20.8159 64.6718 23.598C62.3251 24.7957 59.0894 24.388 57.2875 22.6671L56.3995 21.8193L56.5093 26.0641L56.619 30.3089H53.9342H51.2493V18.9429V7.57696H53.9132C56.5643 7.57696 56.5771 7.58158 56.5771 8.52673V9.47686L57.3766 8.72563C59.0986 7.10776 62.3947 6.73233 64.6718 7.8945ZM87.5143 7.62598C90.5863 8.6546 92.5466 11.4595 93.0225 15.5072L93.2647 17.5702L87.2113 17.4576L81.1575 17.3446L81.6576 18.3107C82.5942 20.1193 84.9527 20.6596 87.7277 19.7016L89.5758 19.0637L90.696 20.6237C92.0145 22.4597 91.8039 22.7953 88.7457 23.7334C81.8995 25.8336 76.1124 22.2696 76.1124 15.9533C76.1124 9.65907 81.605 5.64759 87.5143 7.62598ZM21.0584 15.7463V23.9156H18.5721H16.0858V15.7463V7.57696H18.5721H21.0584V15.7463ZM99.3541 9.87005C100.67 12.0047 100.776 12.0925 101.155 11.3668C101.377 10.9431 101.988 9.91693 102.514 9.08651L103.471 7.57696H106.329C108.525 7.57696 109.123 7.67997 108.913 8.02095C108.762 8.26531 107.703 9.87751 106.56 11.6044C105.416 13.331 104.401 14.9517 104.304 15.206C104.206 15.4603 105.331 17.524 106.803 19.7918L109.48 23.9156H106.681H103.882L102.297 21.4385L100.712 18.9611L99.0653 21.4385L97.418 23.9156H94.7569C91.5492 23.9156 91.5609 24.334 94.6414 19.7428C97.7007 15.1829 97.6836 15.9917 94.8141 11.5831C93.5145 9.58661 92.451 7.86822 92.451 7.76486C92.451 7.6615 93.6899 7.58264 95.2037 7.58975L97.9564 7.60218L99.3541 9.87005ZM82.8912 11.7511C80.083 13.1886 80.7021 13.9703 84.6483 13.9703C86.5958 13.9703 88.1888 13.8798 88.1888 13.7693C88.1888 11.8584 85.0312 10.6554 82.8912 11.7511ZM57.3763 12.4338C55.9967 13.3963 56.1818 18.3651 57.6249 19.1113C60.5449 20.6212 63.3257 19.0065 63.3257 15.801C63.3257 12.4377 60.0381 10.5772 57.3763 12.4338ZM70.7846 31.5901C70.7846 32.6709 70.8819 32.8311 71.4062 32.6155C72.7822 32.049 73.1697 32.0668 73.9937 32.7338C76.3497 34.6415 74.0989 38.8064 71.4715 37.4002C70.9981 37.1466 70.7846 37.1466 70.7846 37.4002C70.7846 37.6023 70.5449 37.7679 70.2518 37.7679C69.8121 37.7679 69.719 37.1168 69.719 34.0384C69.719 30.96 69.8121 30.3089 70.2518 30.3089C70.6269 30.3089 70.7846 30.6879 70.7846 31.5901ZM89.633 32.4525C90.6811 33.0133 90.6602 37.4127 89.6095 37.4127C88.995 37.4127 88.8991 37.1758 88.8991 35.6577C88.8991 33.7681 88.5848 33.3319 87.4752 33.6843C86.8948 33.8683 86.768 34.2231 86.768 35.6605C86.768 37.1758 86.6721 37.4127 86.0576 37.4127C85.4137 37.4127 85.3473 37.1758 85.3473 34.882V32.3513L86.3407 32.5498C86.887 32.6592 87.5665 32.6017 87.8503 32.4223C88.517 32.0007 88.7972 32.0053 89.633 32.4525ZM106.433 32.8212C108.11 34.14 107.72 35.2816 105.593 35.2816C104.616 35.2816 103.817 35.4357 103.817 35.6243C103.817 36.0935 104.957 36.6433 105.516 36.4434C106.516 36.0853 107.26 36.7023 106.502 37.2603C104.833 38.4885 102.041 37.2191 102.041 35.2325C102.041 32.5548 104.428 31.2441 106.433 32.8212ZM77.385 34.1272C78.2805 36.5609 78.4222 36.5911 79.1716 34.5062C79.5741 33.3866 80.0898 32.5797 80.4475 32.5107C81.1245 32.3804 79.0427 38.0843 77.9779 39.2774C77.2987 40.0386 76.1124 40.0951 76.1124 39.3662C76.1124 39.0732 76.4189 38.8334 76.7933 38.8334C78.0272 38.8334 77.8859 37.8829 75.933 33.0616C75.7586 32.6315 75.8478 32.4401 76.2225 32.4401C76.5447 32.4401 77.0157 33.1238 77.385 34.1272ZM92.5213 34.3048C92.6204 36.0285 92.6957 36.1695 93.5166 36.1695C94.3374 36.1695 94.4127 36.0285 94.5118 34.3048C94.6106 32.5924 94.6901 32.4401 95.4886 32.4401C96.3286 32.4401 96.3581 32.5246 96.3581 34.9374V37.4351L95.2037 37.4059C94.5686 37.3899 93.6089 37.4837 93.0705 37.6141C91.5123 37.992 91.0303 37.3047 91.0303 34.7054C91.0303 31.5777 92.3441 31.225 92.5213 34.3048ZM98.686 34.1272L99.3342 35.8143L99.862 34.1272C100.339 32.6017 102.041 31.5144 102.041 32.7349C102.041 34.2043 100.247 37.244 99.3235 37.3384C98.3517 37.4379 96.7133 34.6326 96.7133 32.8702C96.7133 31.6729 98.0765 32.5416 98.686 34.1272ZM109.5 34.9264C109.5 37.1758 109.433 37.4127 108.79 37.4127C108.147 37.4127 108.079 37.1758 108.079 34.9264C108.079 32.677 108.147 32.4401 108.79 32.4401C109.433 32.4401 109.5 32.677 109.5 34.9264ZM71.2041 33.4584C70.9103 33.6445 70.7779 34.2725 70.8489 35.1402C70.9981 36.9641 73.1676 37.2745 73.771 35.5586C74.3297 33.9702 72.6127 32.5651 71.2041 33.4584ZM104.069 33.7273C103.541 34.2551 103.857 34.5712 104.912 34.5712C105.63 34.5712 105.957 34.4181 105.861 34.1272C105.695 33.6235 104.45 33.3458 104.069 33.7273Z" fill="white"/>
<circle id="Ellipse 2359" cx="18.5717" cy="3.31473" r="3.19668" fill="white"/>
</g>
</svg>
