<svg width="22" height="22" viewBox="0 0 22 22" fill="none" xmlns="http://www.w3.org/2000/svg">
<g id="Frame">
<path id="Vector" d="M4.09073 11.6364H1.18164C0.629356 11.6364 0.181641 12.0841 0.181641 12.6364V18.8182C0.181641 19.3705 0.629356 19.8182 1.18164 19.8182H4.09073C4.64302 19.8182 5.09073 19.3705 5.09073 18.8182V12.6364C5.09073 12.0841 4.64302 11.6364 4.09073 11.6364Z" fill="#316BFF"/>
<path id="Vector_2" d="M9.54537 7.81818H6.09082C5.53854 7.81818 5.09082 8.26589 5.09082 8.81818V18.8182C5.09082 19.3705 5.53854 19.8182 6.09082 19.8182H9.54537C10.0977 19.8182 10.5454 19.3705 10.5454 18.8182V8.81818C10.5454 8.26589 10.0977 7.81818 9.54537 7.81818Z" fill="#316BFF"/>
<path id="Vector_3" opacity="0.7" d="M13.9095 4.54541H11.5459C10.9936 4.54541 10.5459 4.99313 10.5459 5.54541V18.8181C10.5459 19.3704 10.9936 19.8181 11.5459 19.8181H13.9095C14.4618 19.8181 14.9095 19.3704 14.9095 18.8181V5.54541C14.9095 4.99313 14.4618 4.54541 13.9095 4.54541Z" fill="#316BFF"/>
<path id="Vector_4" d="M18.8183 0.181824H15.9092C15.3569 0.181824 14.9092 0.62954 14.9092 1.18182V18.8182C14.9092 19.3705 15.3569 19.8182 15.9092 19.8182H18.8183C19.3706 19.8182 19.8183 19.3705 19.8183 18.8182V1.18182C19.8183 0.629539 19.3706 0.181824 18.8183 0.181824Z" fill="#316BFF"/>
</g>
</svg>
