<svg width="17" height="18" viewBox="0 0 17 18" fill="none" xmlns="http://www.w3.org/2000/svg">
<g id="Group 512634">
<path id="Star 2" d="M8.32853 0.990636C8.5913 0.736438 9.00831 0.736439 9.27108 0.990636L10.6981 2.37112C10.8483 2.51648 11.0573 2.58437 11.2643 2.55509L13.2302 2.27702C13.5922 2.22582 13.9295 2.47094 13.9927 2.83104L14.3357 4.78664C14.3719 4.99256 14.501 5.17029 14.6857 5.26827L16.4396 6.19884C16.7625 6.37019 16.8914 6.7668 16.7308 7.09525L15.8589 8.879C15.767 9.06683 15.767 9.28651 15.8589 9.47433L16.7308 11.2581C16.8914 11.5865 16.7625 11.9831 16.4396 12.1545L14.6857 13.0851C14.501 13.183 14.3719 13.3608 14.3357 13.5667L13.9927 15.5223C13.9295 15.8824 13.5922 16.1275 13.2302 16.0763L11.2643 15.7982C11.0573 15.769 10.8483 15.8369 10.6981 15.9822L9.27107 17.3627C9.00831 17.6169 8.5913 17.6169 8.32853 17.3627L6.90153 15.9822C6.75127 15.8369 6.54234 15.769 6.33534 15.7982L4.36944 16.0763C4.00745 16.1275 3.67008 15.8824 3.60691 15.5223L3.26387 13.5667C3.22775 13.3608 3.09862 13.183 2.91394 13.0851L1.16006 12.1545C0.837101 11.9831 0.708238 11.5865 0.868796 11.2581L1.74075 9.47433C1.83256 9.28651 1.83256 9.06683 1.74075 8.879L0.868795 7.09525C0.708237 6.7668 0.837102 6.37019 1.16006 6.19884L2.91394 5.26827C3.09862 5.17029 3.22775 4.99256 3.26387 4.78664L3.60691 2.83103C3.67008 2.47094 4.00745 2.22582 4.36944 2.27702L6.33534 2.55509C6.54234 2.58437 6.75127 2.51648 6.90153 2.37112L8.32853 0.990636Z" fill="#0000FF"/>
<path id="Union" fill-rule="evenodd" clip-rule="evenodd" d="M11.8752 6.59633C11.7428 6.46398 11.5282 6.46398 11.3959 6.59633L7.3072 10.685L5.83184 9.20966C5.6995 9.07731 5.48492 9.07731 5.35257 9.20966L4.7809 9.78133C4.71735 9.84488 4.68164 9.93108 4.68164 10.021C4.68164 10.1108 4.71735 10.197 4.7809 10.2606L7.06757 12.5473C7.19991 12.6796 7.41449 12.6796 7.54684 12.5473L12.4468 7.64727C12.5104 7.58372 12.5461 7.49752 12.5461 7.40764C12.5461 7.31775 12.5104 7.23155 12.4468 7.168L11.8752 6.59633Z" fill="white"/>
</g>
</svg>
