<svg width="32" height="32" viewBox="0 0 32 32" fill="none" xmlns="http://www.w3.org/2000/svg">
<g id="Link - Our Discord server &#226;&#134;&#146; SVG">
<g id="Clip path group">
<mask id="mask0_1748_10824" style="mask-type:luminance" maskUnits="userSpaceOnUse" x="4" y="6" width="24" height="20">
<g id="clip0_2990_46224">
<path id="Vector" d="M28 6.66675H4V25.2583H28V6.66675Z" fill="white"/>
</g>
</mask>
<g mask="url(#mask0_1748_10824)">
<g id="Group">
<path id="Vector_2" d="M24.3171 8.32256C22.7873 7.62068 21.1469 7.10356 19.4319 6.80739C19.4007 6.80168 19.3695 6.81596 19.3533 6.84454C19.1424 7.21975 18.9087 7.70924 18.7451 8.09399C16.9004 7.81782 15.0652 7.81782 13.2583 8.09399C13.0946 7.7007 12.8525 7.21975 12.6406 6.84454C12.6245 6.81692 12.5933 6.80263 12.562 6.80739C10.8479 7.10262 9.20755 7.61974 7.67693 8.32256C7.66368 8.32828 7.65232 8.33782 7.64478 8.35018C4.53338 12.9986 3.68105 17.5327 4.09918 22.0106C4.10106 22.0324 4.11337 22.0534 4.1304 22.0667C6.18321 23.5743 8.1717 24.4895 10.1233 25.0962C10.1545 25.1056 10.1876 25.0942 10.2075 25.0684C10.6691 24.438 11.0806 23.7734 11.4335 23.0743C11.4543 23.0334 11.4344 22.9848 11.3919 22.9686C10.7391 22.721 10.1176 22.4191 9.51973 22.0763C9.47244 22.0487 9.46865 21.981 9.51216 21.9486C9.63797 21.8543 9.76381 21.7563 9.88396 21.6572C9.90569 21.6391 9.93597 21.6354 9.96153 21.6467C13.8893 23.44 18.1416 23.44 22.0229 21.6467C22.0485 21.6343 22.0788 21.6382 22.1015 21.6563C22.2216 21.7554 22.3475 21.8543 22.4743 21.9486C22.5177 21.981 22.5149 22.0487 22.4676 22.0763C21.8697 22.4258 21.2481 22.721 20.5945 22.9676C20.552 22.9838 20.5331 23.0334 20.5539 23.0743C20.9143 23.7723 21.3257 24.4371 21.7789 25.0675C21.7979 25.0942 21.8319 25.1056 21.8631 25.0962C23.8241 24.4895 25.8127 23.5743 27.8655 22.0667C27.8835 22.0534 27.8948 22.0334 27.8967 22.0115C28.3971 16.8346 27.0585 12.3376 24.3483 8.35112C24.3416 8.33782 24.3303 8.32828 24.3171 8.32256ZM12.02 19.284C10.8375 19.284 9.86313 18.1983 9.86313 16.8651C9.86313 15.5318 10.8186 14.4462 12.02 14.4462C13.2309 14.4462 14.1959 15.5412 14.1769 16.8651C14.1769 18.1983 13.2214 19.284 12.02 19.284ZM19.9948 19.284C18.8123 19.284 17.8379 18.1983 17.8379 16.8651C17.8379 15.5318 18.7933 14.4462 19.9948 14.4462C21.2056 14.4462 22.1705 15.5412 22.1516 16.8651C22.1516 18.1983 21.2056 19.284 19.9948 19.284Z" fill="white"/>
</g>
</g>
</g>
</g>
</svg>
