<svg width="40" height="40" viewBox="0 0 40 40" fill="none" xmlns="http://www.w3.org/2000/svg">
<path fill-rule="evenodd" clip-rule="evenodd" d="M31.2448 11.2C28.9534 11.1972 26.753 12.0967 25.1196 13.7041L18.1866 20.503L18.2215 20.4476C17.7225 19.5811 17.1563 18.6597 16.5243 17.7631L16.5689 17.8068C16.6053 17.844 16.6488 17.8735 16.6968 17.8937C16.7448 17.9139 16.7963 17.9243 16.8484 17.9243C16.9004 17.9243 16.9519 17.9139 16.9999 17.8937C17.0479 17.8735 17.0914 17.844 17.1278 17.8068L17.7873 17.1361C17.8244 17.0996 17.854 17.0562 17.8741 17.0082C17.8943 16.9602 17.9047 16.9086 17.9047 16.8566C17.9047 16.8045 17.8943 16.753 17.8741 16.705C17.854 16.657 17.8244 16.6135 17.7873 16.5771L14.87 13.7153C13.6246 12.4924 12.0419 11.6703 10.3255 11.3546C8.60907 11.0389 6.83747 11.2441 5.23865 11.9439C3.63983 12.6436 2.28694 13.8059 1.35406 15.281C0.421189 16.7562 -0.0489862 18.4768 0.00403829 20.2215C0.138167 24.7379 3.73728 28.4493 8.24177 28.6953C9.45947 28.7666 10.6786 28.5816 11.8203 28.1522C12.9621 27.7228 14.001 27.0585 14.87 26.2023L21.3403 19.857C21.3584 20.072 21.4207 20.2704 21.5324 20.4476C21.9232 21.0681 22.3222 21.665 22.7339 22.2299L22.2135 22.7592C22.1763 22.7956 22.1468 22.8391 22.1266 22.8871C22.1065 22.9351 22.0961 22.9866 22.0961 23.0387C22.0961 23.0907 22.1065 23.1422 22.1266 23.1902C22.1468 23.2382 22.1763 23.2817 22.2135 23.3181L25.1308 26.18C25.9998 27.0361 27.0387 27.7004 28.1804 28.1298C29.3221 28.5592 30.5413 28.7443 31.759 28.6729C36.2635 28.4158 39.8738 24.7155 39.9967 20.1992C40.0288 19.0293 39.8262 17.8649 39.4009 16.7747C38.9755 15.6845 38.336 14.6906 37.5202 13.8518C36.7043 13.0129 35.7287 12.346 34.6509 11.8905C33.5731 11.4351 32.4149 11.2003 31.2448 11.2Z" fill="url(#paint0_linear_1727_14340)"/>
<path fill-rule="evenodd" clip-rule="evenodd" d="M30.821 27.2329C26.6883 27.2329 23.9537 24.2917 21.5324 20.4476C20.4 18.8 26.6883 12.5133 30.821 12.5133C34.9537 12.5133 38.3039 15.8084 38.3039 19.8731C38.3039 23.9378 34.9537 27.2329 30.821 27.2329ZM8.9331 27.2329C13.0658 27.2329 15.8004 24.2917 18.2217 20.4477C16.1971 16.9319 13.0658 12.5133 8.9331 12.5133C4.8004 12.5133 1.4502 15.8084 1.4502 19.8731C1.4502 23.9378 4.8004 27.2329 8.9331 27.2329Z" fill="white"/>
<path fill-rule="evenodd" clip-rule="evenodd" d="M32.718 14.79C32.718 14.5826 32.8741 14.4062 33.0814 14.4012C33.6006 14.3888 34.1237 14.4727 34.6277 14.6538C36.4916 15.3239 37.6003 17.1634 37.3995 19.024C37.3721 19.2778 37.1085 19.4211 36.8683 19.3348C36.6701 19.2635 36.5569 19.0581 36.574 18.8482C36.6898 17.4241 35.8532 16.0172 34.4422 15.4638C34.0347 15.3037 33.6092 15.2246 33.1856 15.2255C32.938 15.226 32.718 15.0376 32.718 14.79Z" fill="#00000F"/>
<g filter="url(#filter0_i_1727_14340)">
<path d="M31.2417 22.5967C31.2417 28.4188 25.9749 30.0564 20.2978 30.0564C14.6208 30.0564 8.90723 28.4188 8.90723 22.5967C8.90723 16.7745 14.1741 10 19.8511 10C25.5282 10 31.2417 16.7745 31.2417 22.5967Z" fill="white"/>
</g>
<path fill-rule="evenodd" clip-rule="evenodd" d="M19.6203 11.9655C18.754 11.9655 18.0451 12.6549 18.0209 13.5208L17.887 18.3165C17.8723 18.8426 17.6896 19.477 17.2597 19.7807C16.676 20.193 16.3223 20.7328 16.3223 21.3236C16.3223 22.6188 18.0222 23.6687 20.1191 23.6687C22.2161 23.6687 23.916 22.6188 23.916 21.3236C23.916 20.6893 23.5082 20.1138 22.8458 19.6916C22.4205 19.4206 22.2314 18.8206 22.2173 18.3165L22.0833 13.5208C22.0592 12.6549 21.3502 11.9655 20.484 11.9655H19.6203Z" fill="url(#paint1_linear_1727_14340)"/>
<path d="M15.7596 15.2001L13.2666 17.6931" stroke="#00000F" stroke-width="1.2" stroke-miterlimit="1.5" stroke-linecap="round" stroke-linejoin="round"/>
<path d="M13.1993 15.2001L15.6924 17.6931" stroke="#00000F" stroke-width="1.2" stroke-miterlimit="1.5" stroke-linecap="round" stroke-linejoin="round"/>
<path d="M26.1591 15.2001L23.666 17.6931" stroke="#00000F" stroke-width="1.2" stroke-miterlimit="1.5" stroke-linecap="round" stroke-linejoin="round"/>
<path d="M23.5997 15.2001L26.0928 17.6931" stroke="#00000F" stroke-width="1.2" stroke-miterlimit="1.5" stroke-linecap="round" stroke-linejoin="round"/>
<defs>
<filter id="filter0_i_1727_14340" x="8.90723" y="10" width="22.335" height="20.8564" filterUnits="userSpaceOnUse" color-interpolation-filters="sRGB">
<feFlood flood-opacity="0" result="BackgroundImageFix"/>
<feBlend mode="normal" in="SourceGraphic" in2="BackgroundImageFix" result="shape"/>
<feColorMatrix in="SourceAlpha" type="matrix" values="0 0 0 0 0 0 0 0 0 0 0 0 0 0 0 0 0 0 127 0" result="hardAlpha"/>
<feOffset dy="0.8"/>
<feGaussianBlur stdDeviation="1.6"/>
<feComposite in2="hardAlpha" operator="arithmetic" k2="-1" k3="1"/>
<feColorMatrix type="matrix" values="0 0 0 0 0.129167 0 0 0 0 0.129167 0 0 0 0 0.129167 0 0 0 0.2 0"/>
<feBlend mode="normal" in2="shape" result="effect1_innerShadow_1727_14340"/>
</filter>
<linearGradient id="paint0_linear_1727_14340" x1="4.7826" y1="9.01117" x2="13.7506" y2="38.6453" gradientUnits="userSpaceOnUse">
<stop offset="0.0384029" stop-color="#76EED8"/>
<stop offset="0.197029" stop-color="#76EE99"/>
<stop offset="0.394004" stop-color="#4891FF"/>
<stop offset="0.553146" stop-color="#CB37FF"/>
<stop offset="0.703622" stop-color="#EF76B6"/>
<stop offset="0.865093" stop-color="#FFD159"/>
</linearGradient>
<linearGradient id="paint1_linear_1727_14340" x1="16.5" y1="9.5" x2="23" y2="20" gradientUnits="userSpaceOnUse">
<stop stop-color="#9A9A9A"/>
<stop offset="0.168297" stop-color="#E8E8E8"/>
<stop offset="0.724372" stop-color="white"/>
</linearGradient>
</defs>
</svg>
