<svg width="150" height="151" viewBox="0 0 150 151" fill="none" xmlns="http://www.w3.org/2000/svg">
<ellipse opacity="0.9" cx="2.25" cy="5.27834" rx="2.25" ry="5.27834" transform="matrix(-0.977248 -0.212098 -0.212098 0.977248 99.6367 77.9543)" fill="#FFEBF3"/>
<ellipse opacity="0.9" cx="1.4238" cy="3.34014" rx="1.4238" ry="3.34014" transform="matrix(-0.977248 -0.212098 -0.212098 0.977248 104.699 80.6039)" fill="#FFEBF3"/>
<ellipse opacity="0.9" cx="54.8818" cy="82.6354" rx="2.25" ry="5.27834" transform="rotate(-12.2453 54.8818 82.6354)" fill="#FFEBF3"/>
<ellipse opacity="0.9" cx="48.6008" cy="83.566" rx="1.4238" ry="3.34014" transform="rotate(-12.2453 48.6008 83.566)" fill="#FFEBF3"/>
<path fill-rule="evenodd" clip-rule="evenodd" d="M117.168 42.5C108.575 42.4896 100.324 45.863 94.1985 51.8905L68.1994 77.3868L68.3308 77.1786C66.4596 73.9292 64.3362 70.4742 61.9667 67.1122L62.1334 67.2758C62.27 67.4152 62.4331 67.526 62.613 67.6016C62.7929 67.6772 62.9861 67.7162 63.1813 67.7162C63.3765 67.7162 63.5697 67.6772 63.7496 67.6016C63.9296 67.526 64.0926 67.4152 64.2292 67.2758L66.7022 64.7605C66.8416 64.6238 66.9524 64.4608 67.028 64.2808C67.1036 64.1009 67.1425 63.9076 67.1425 63.7124C67.1425 63.5172 67.1036 63.324 67.028 63.144C66.9524 62.9641 66.8416 62.801 66.7022 62.6644L55.7623 51.9324C51.0923 47.3468 45.1572 44.2637 38.7206 43.0799C32.284 41.8961 25.6405 42.6657 19.6449 45.2898C13.6493 47.9138 8.57601 52.2722 5.07773 57.8041C1.57946 63.336 -0.183698 69.7884 0.0151436 76.3309C0.518126 93.2672 14.0148 107.185 30.9066 108.108C35.473 108.375 40.0447 107.681 44.3262 106.071C48.6077 104.461 52.5037 101.97 55.7623 98.759L80.0263 74.9638C80.094 75.7701 80.3277 76.5139 80.7464 77.1786C82.212 79.5054 83.7082 81.7439 85.2522 83.8621L83.3006 85.8471C83.1612 85.9837 83.0504 86.1468 82.9748 86.3267C82.8992 86.5067 82.8603 86.6999 82.8603 86.8951C82.8603 87.0903 82.8992 87.2836 82.9748 87.4635C83.0504 87.6435 83.1612 87.8066 83.3006 87.9432L94.2405 98.6751C97.4991 101.886 101.395 104.377 105.677 105.987C109.958 107.597 114.53 108.291 119.096 108.024C135.988 107.059 149.527 93.1834 149.988 76.247C150.108 71.8602 149.348 67.4937 147.753 63.4054C146.158 59.3172 143.76 55.5901 140.701 52.4443C137.641 49.2984 133.983 46.7977 129.941 45.0897C125.899 43.3817 121.556 42.5012 117.168 42.5Z" fill="url(#paint0_linear_1743_12159)"/>
<path fill-rule="evenodd" clip-rule="evenodd" d="M33.4984 102.623C48.996 102.623 59.2508 91.5938 68.3308 77.1786C60.7385 63.9946 48.996 47.4248 33.4984 47.4248C18.0008 47.4248 5.4375 59.7814 5.4375 75.024C5.4375 90.2666 18.0008 102.623 33.4984 102.623ZM115.579 102.623C100.081 102.623 89.8264 91.5938 80.7464 77.1786C76.5 71 100.081 47.4248 115.579 47.4248C131.076 47.4248 143.64 59.7814 143.64 75.024C143.64 90.2666 131.076 102.623 115.579 102.623Z" fill="white"/>
<path fill-rule="evenodd" clip-rule="evenodd" d="M122.689 55.9626C122.689 55.1848 123.274 54.5232 124.052 54.5047C125.999 54.4584 127.96 54.7727 129.85 55.452C136.84 57.9647 140.997 64.863 140.244 71.84C140.142 72.7917 139.153 73.3292 138.252 73.0054C137.509 72.7382 137.085 71.9678 137.149 71.1806C137.583 65.8406 134.446 60.5647 129.155 58.4895C127.627 57.8892 126.031 57.5926 124.443 57.5958C123.514 57.5977 122.689 56.8913 122.689 55.9626Z" fill="#00000F"/>
<g filter="url(#filter0_i_1743_12159)">
<path d="M117.159 85.2375C117.159 107.07 97.408 113.211 76.1191 113.211C54.8301 113.211 33.4043 107.07 33.4043 85.2375C33.4043 63.4045 53.155 38 74.444 38C95.7329 38 117.159 63.4045 117.159 85.2375Z" fill="white"/>
</g>
<path fill-rule="evenodd" clip-rule="evenodd" d="M73.5776 45.3704C70.3291 45.3704 67.6706 47.9556 67.5799 51.2028L67.0776 69.1869C67.0224 71.1598 66.3376 73.5387 64.7255 74.6774C62.5364 76.2238 61.21 78.248 61.21 80.4635C61.21 85.3204 67.5846 89.2577 75.4482 89.2577C83.3118 89.2577 89.6865 85.3204 89.6865 80.4635C89.6865 78.0847 88.1573 75.9265 85.6731 74.3435C84.0784 73.3273 83.3692 71.0771 83.3164 69.1869L82.814 51.2028C82.7233 47.9556 80.0648 45.3704 76.8164 45.3704H73.5776Z" fill="url(#paint1_linear_1743_12159)"/>
<path d="M45 60.5001C45 60.5001 47.9705 66.3637 54 66.5001C60.2871 66.6424 63.75 60.5001 63.75 60.5001" stroke="black" stroke-width="4.5" stroke-linecap="round"/>
<path d="M87 60.5002C87 60.5002 89.9705 66.3638 96 66.5003C102.287 66.6425 105.75 60.5002 105.75 60.5002" stroke="black" stroke-width="4.5" stroke-linecap="round"/>
<defs>
<filter id="filter0_i_1743_12159" x="33.4043" y="38" width="83.7549" height="78.2115" filterUnits="userSpaceOnUse" color-interpolation-filters="sRGB">
<feFlood flood-opacity="0" result="BackgroundImageFix"/>
<feBlend mode="normal" in="SourceGraphic" in2="BackgroundImageFix" result="shape"/>
<feColorMatrix in="SourceAlpha" type="matrix" values="0 0 0 0 0 0 0 0 0 0 0 0 0 0 0 0 0 0 127 0" result="hardAlpha"/>
<feOffset dy="3"/>
<feGaussianBlur stdDeviation="6"/>
<feComposite in2="hardAlpha" operator="arithmetic" k2="-1" k3="1"/>
<feColorMatrix type="matrix" values="0 0 0 0 0.358333 0 0 0 0 0.358333 0 0 0 0 0.358333 0 0 0 0.2 0"/>
<feBlend mode="normal" in2="shape" result="effect1_innerShadow_1743_12159"/>
</filter>
<linearGradient id="paint0_linear_1743_12159" x1="17.9348" y1="34.2921" x2="51.5646" y2="145.42" gradientUnits="userSpaceOnUse">
<stop offset="0.0384029" stop-color="#76EED8"/>
<stop offset="0.197029" stop-color="#76EE99"/>
<stop offset="0.394004" stop-color="#4891FF"/>
<stop offset="0.553146" stop-color="#CB37FF"/>
<stop offset="0.703622" stop-color="#EF76B6"/>
<stop offset="0.865093" stop-color="#FFD159"/>
</linearGradient>
<linearGradient id="paint1_linear_1743_12159" x1="75.4482" y1="45.3704" x2="75.4482" y2="89.2577" gradientUnits="userSpaceOnUse">
<stop stop-color="#D6D6D6"/>
<stop offset="1" stop-color="white" stop-opacity="0"/>
</linearGradient>
</defs>
</svg>
