<svg width="32" height="32" viewBox="0 0 32 32" fill="none" xmlns="http://www.w3.org/2000/svg">
<g id="Link - Our Linkedin account &#226;&#134;&#146; SVG">
<g id="Clip path group">
<mask id="mask0_1748_10816" style="mask-type:luminance" maskUnits="userSpaceOnUse" x="4" y="4" width="24" height="24">
<g id="clip0_3007_48641">
<path id="Vector" d="M28 4H4V28H28V4Z" fill="white"/>
</g>
</mask>
<g mask="url(#mask0_1748_10816)">
<g id="Group">
<path id="Vector_2" d="M10.9044 25.333V12.7382H6.90286V25.333H10.9044ZM8.90446 11.0189C10.2996 11.0189 11.1682 10.0517 11.1682 8.84307C11.142 7.60689 10.2996 6.66675 8.93099 6.66675C7.56146 6.66675 6.66699 7.60689 6.66699 8.84296C6.66699 10.0516 7.53523 11.0187 8.87825 11.0187L8.90446 11.0189ZM13.1193 25.333H17.1205V18.3002C17.1205 17.9243 17.1466 17.5474 17.2523 17.2789C17.5415 16.5265 18.1999 15.7477 19.3055 15.7477C20.7531 15.7477 21.3326 16.9025 21.3326 18.5958V25.333H25.3337V18.1115C25.3337 14.243 23.3598 12.4429 20.7273 12.4429C18.5689 12.4429 17.6209 13.705 17.0942 14.5646H17.1209V12.7386H13.1195C13.1717 13.9201 13.1193 25.333 13.1193 25.333Z" fill="white"/>
</g>
</g>
</g>
</g>
</svg>
