<svg width="133" height="133" viewBox="0 0 133 133" fill="none" xmlns="http://www.w3.org/2000/svg">
<g id="Group 35318">
<g id="Group 35314">
<g id="logo">
<g id="Rectangle 34624222" filter="url(#filter0_b_1746_13675)">
<rect width="132.86" height="132.86" rx="38" fill="white" style="mix-blend-mode:overlay"/>
<rect x="0.5" y="0.5" width="131.86" height="131.86" rx="37.5" stroke="url(#paint0_radial_1746_13675)"/>
<rect x="0.5" y="0.5" width="131.86" height="131.86" rx="37.5" stroke="url(#paint1_radial_1746_13675)"/>
</g>
<path id="Vector" d="M92.5394 46C87.2195 45.9935 82.111 48.0817 78.3189 51.8128L51.6942 77.9184C49.4171 80.147 46.536 81.6582 43.4081 82.2649C40.2802 82.8716 37.043 82.547 34.0978 81.3313C31.1526 80.1157 28.6289 78.0624 26.8396 75.4261C25.0503 72.7898 24.0739 69.6864 24.0316 66.5005C23.995 63.2803 24.9146 60.1217 26.674 57.4245C28.4335 54.7273 30.9536 52.6127 33.9155 51.3485C36.8773 50.0843 40.1476 49.7273 43.3125 50.3227C46.4773 50.9181 49.3943 52.4391 51.6942 54.6932L58.4672 61.3364C58.5517 61.4227 58.6527 61.4913 58.7641 61.5381C58.8755 61.5849 58.9951 61.609 59.1159 61.609C59.2367 61.609 59.3564 61.5849 59.4678 61.5381C59.5792 61.4913 59.6801 61.4227 59.7647 61.3364L61.2957 59.7794C61.382 59.6949 61.4506 59.5939 61.4974 59.4825C61.5442 59.3711 61.5683 59.2515 61.5683 59.1307C61.5683 59.0098 61.5442 58.8902 61.4974 58.7788C61.4506 58.6674 61.382 58.5665 61.2957 58.4819L54.5228 51.8387C51.6315 49.0002 47.9571 47.0917 43.9721 46.359C39.9872 45.6262 35.8742 46.1026 32.1623 47.7269C28.4504 49.3512 25.3095 52.0491 23.1437 55.4734C20.9779 58.8977 19.8863 62.8917 20.0094 66.9416C20.3208 77.4254 28.6767 86.0408 39.1345 86.6116C41.9616 86.7772 44.7919 86.3478 47.4426 85.351C50.0933 84.3541 52.5053 82.8122 54.5228 80.8248L81.1733 54.6932C83.4505 52.4647 86.3316 50.9534 89.4595 50.3468C92.5874 49.7401 95.8246 50.0647 98.7698 51.2803C101.715 52.496 104.239 54.5492 106.028 57.1855C107.817 59.8218 108.794 62.9253 108.836 66.1112C108.873 69.3313 107.953 72.49 106.194 75.1872C104.434 77.8844 101.914 79.9989 98.9521 81.2631C95.9903 82.5273 92.72 82.8843 89.5551 82.2889C86.3903 81.6935 83.4733 80.1725 81.1733 77.9184L74.4004 71.2752C74.3159 71.1889 74.2149 71.1204 74.1035 71.0736C73.9921 71.0268 73.8725 71.0026 73.7517 71.0026C73.6308 71.0026 73.5112 71.0268 73.3998 71.0736C73.2884 71.1204 73.1875 71.1889 73.1029 71.2752L71.5719 72.8322C71.4856 72.9168 71.417 73.0177 71.3702 73.1291C71.3234 73.2405 71.2993 73.3602 71.2993 73.481C71.2993 73.6018 71.3234 73.7214 71.3702 73.8328C71.417 73.9442 71.4856 74.0452 71.5719 74.1297L78.3448 80.7729C80.3622 82.7603 82.7743 84.3023 85.425 85.2991C88.0757 86.2959 90.906 86.7253 93.7331 86.5598C104.191 85.9629 112.573 77.3735 112.858 66.8897C112.933 64.1742 112.462 61.4713 111.475 58.9406C110.487 56.41 109.003 54.1029 107.109 52.1556C105.215 50.2083 102.949 48.6603 100.447 47.6031C97.9448 46.5458 95.2559 46.0007 92.5394 46Z" fill="url(#paint2_linear_1746_13675)"/>
</g>
</g>
</g>
<defs>
<filter id="filter0_b_1746_13675" x="-40" y="-40" width="212.86" height="212.86" filterUnits="userSpaceOnUse" color-interpolation-filters="sRGB">
<feFlood flood-opacity="0" result="BackgroundImageFix"/>
<feGaussianBlur in="BackgroundImageFix" stdDeviation="20"/>
<feComposite in2="SourceAlpha" operator="in" result="effect1_backgroundBlur_1746_13675"/>
<feBlend mode="normal" in="SourceGraphic" in2="effect1_backgroundBlur_1746_13675" result="shape"/>
</filter>
<radialGradient id="paint0_radial_1746_13675" cx="0" cy="0" r="1" gradientUnits="userSpaceOnUse" gradientTransform="translate(12 12) rotate(51.009) scale(27.0185)">
<stop stop-color="white"/>
<stop offset="1" stop-color="white" stop-opacity="0"/>
</radialGradient>
<radialGradient id="paint1_radial_1746_13675" cx="0" cy="0" r="1" gradientUnits="userSpaceOnUse" gradientTransform="translate(120 127.5) rotate(-128.29) scale(48.4149)">
<stop stop-color="white"/>
<stop offset="1" stop-color="white" stop-opacity="0"/>
</radialGradient>
<linearGradient id="paint2_linear_1746_13675" x1="31.1035" y1="40.9192" x2="51.918" y2="109.71" gradientUnits="userSpaceOnUse">
<stop stop-color="#76EED8"/>
<stop offset="0.118756" stop-color="#76EE99"/>
<stop offset="0.291667" stop-color="#4891FF"/>
<stop offset="0.452857" stop-color="#CB37FF"/>
<stop offset="0.642525" stop-color="#EF76B6"/>
<stop offset="0.865093" stop-color="#FFD159"/>
</linearGradient>
</defs>
</svg>
