<svg width="32" height="32" viewBox="0 0 32 32" fill="none" xmlns="http://www.w3.org/2000/svg">
<g id="Frame">
<path id="Vector" d="M26.0844 8.74375L28 6.90312V6.5H21.3656L16.6375 18.325L11.2594 6.5H4.30312V6.90312L6.54063 9.60938C6.75938 9.80938 6.87188 10.1031 6.84375 10.3969V21.0312C6.9125 21.4156 6.79062 21.8063 6.52187 22.0844L4 25.1562V25.5531H11.1438V25.15L8.625 22.0875C8.35313 21.8094 8.22187 21.4219 8.27812 21.0344V11.8344L14.55 25.5594H15.2781L20.6719 11.8344V22.7687C20.6719 23.0562 20.6719 23.1156 20.4844 23.3062L18.5438 25.1906V25.5938H27.9562V25.1906L26.0844 23.35C25.9219 23.225 25.8375 23.0156 25.8719 22.8125V9.28125C25.8375 9.07812 25.9219 8.86875 26.0844 8.74375Z" fill="white"/>
</g>
</svg>
