<svg width="1256" height="1294" viewBox="0 0 1256 1294" fill="none" xmlns="http://www.w3.org/2000/svg">
<circle cx="625.5" cy="655.5" r="565.5" fill="white" fill-opacity="0.02"/>
<circle cx="625.5" cy="655.5" r="565" stroke="white" stroke-opacity="0.2"/>
<circle cx="625.5" cy="655.5" r="418.5" fill="white" fill-opacity="0.05"/>
<circle cx="625.5" cy="655.5" r="418" stroke="#EFE2FF" stroke-opacity="0.2"/>
<circle cx="625.5" cy="655.5" r="277.5" fill="white" fill-opacity="0.07"/>
<circle cx="625.5" cy="655.5" r="277" stroke="#EFE2FF" stroke-opacity="0.2"/>
<circle cx="625.5" cy="655.5" r="148.5" fill="white" fill-opacity="0.05"/>
<circle cx="625.5" cy="655.5" r="148" stroke="#EFE2FF" stroke-opacity="0.2"/>
<path d="M276.43 50.7446L994.5 1293" stroke="#564797"/>
<path d="M985.329 45.6318L253 1279.54" stroke="#564797"/>
<path d="M628.035 -54.7917L628.035 1286.5" stroke="#564797"/>
<path d="M1255.48 307.992L0.999818 1004.48" stroke="#564797"/>
<path d="M1234.85 655.669L0.40821 657.127" stroke="#564797"/>
<path d="M1147.79 972.454L87.4683 340.342" stroke="#564797"/>
<circle cx="627" cy="92" r="5.5" stroke="#564797"/>
<circle cx="627" cy="241" r="5.5" stroke="#564797"/>
<circle cx="627" cy="507" r="5.5" stroke="#564797"/>
<circle cx="627" cy="804" r="5.5" stroke="#564797"/>
<circle cx="627" cy="933" r="5.5" stroke="#564797"/>
<circle cx="627" cy="1071" r="5.5" stroke="#564797"/>
<circle cx="627" cy="1219" r="5.5" stroke="#564797"/>
<circle cx="627" cy="380" r="5.5" stroke="#564797"/>
<circle cx="63.5" cy="655.5" r="5.5" transform="rotate(-90 63.5 655.5)" stroke="#564797"/>
<circle cx="212.5" cy="655.5" r="5.5" transform="rotate(-90 212.5 655.5)" stroke="#564797"/>
<circle cx="478.5" cy="655.5" r="5.5" transform="rotate(-90 478.5 655.5)" stroke="#564797"/>
<circle cx="775.5" cy="655.5" r="5.5" transform="rotate(-90 775.5 655.5)" stroke="#564797"/>
<circle cx="904.5" cy="655.5" r="5.5" transform="rotate(-90 904.5 655.5)" stroke="#564797"/>
<circle cx="1042.5" cy="655.5" r="5.5" transform="rotate(-90 1042.5 655.5)" stroke="#564797"/>
<circle cx="1190.5" cy="655.5" r="5.5" transform="rotate(-90 1190.5 655.5)" stroke="#564797"/>
<circle cx="351.5" cy="655.5" r="5.5" transform="rotate(-90 351.5 655.5)" stroke="#564797"/>
</svg>
