<svg width="264" height="250" viewBox="0 0 264 250" fill="none" xmlns="http://www.w3.org/2000/svg">
<g filter="url(#filter0_di_1743_12131)">
<rect x="12" y="12" width="240" height="512" rx="20" fill="url(#paint0_linear_1743_12131)"/>
<rect x="33" y="38" width="104" height="18" rx="6" fill="#29292B"/>
<rect x="203" y="33" width="28" height="28" rx="14" fill="#29292B"/>
<rect x="127.5" y="95.5" width="87" height="17" rx="5.5" fill="#29292B" stroke="#505051"/>
<rect x="127" y="123" width="64" height="6" rx="3" fill="#29292B"/>
<rect x="127" y="135" width="48" height="6" rx="3" fill="#29292B"/>
<rect x="33.5" y="85.5" width="71" height="71" rx="11.5" fill="#29292B" stroke="#505051"/>
<rect x="33.5" y="85.5" width="71" height="71" rx="11.5" fill="#29292B" stroke="#505051"/>
<rect x="33.5" y="177.5" width="71" height="71" rx="11.5" fill="#29292B" stroke="#505051"/>
<rect x="127.5" y="187.5" width="87" height="17" rx="5.5" fill="#29292B" stroke="#505051"/>
<rect x="127" y="215" width="64" height="6" rx="3" fill="#29292B"/>
<rect x="127" y="227" width="48" height="6" rx="3" fill="#29292B"/>
<mask id="path-13-outside-1_1743_12131" maskUnits="userSpaceOnUse" x="57.4375" y="107.999" width="23" height="26" fill="black">
<rect fill="white" x="57.4375" y="107.999" width="23" height="26"/>
<path d="M58.4387 130.347L58.5098 130.19C58.6993 129.794 58.9449 129.427 59.2417 129.085C59.5608 128.717 59.9947 128.495 60.4323 128.27L60.5021 128.234C60.8986 128.031 61.325 127.909 61.7589 127.812C62.1553 127.722 62.5394 127.615 62.9047 127.45C63.5808 127.158 64.149 126.697 64.5417 126.123C64.7636 125.797 64.9444 125.453 65.0616 125.089C65.1021 124.962 65.1362 124.834 65.1638 124.704C65.198 124.532 65.2259 124.359 65.2473 124.185C65.2984 123.749 65.3259 123.309 65.3521 122.871C65.367 122.608 65.3583 122.345 65.3608 122.082C65.3608 121.897 65.3483 121.711 65.3645 121.527C65.3882 121.254 65.2797 121.004 65.2261 120.744C65.2137 120.672 65.1937 120.601 65.17 120.497C65.1177 120.649 65.0703 120.772 65.0291 120.896L64.8696 121.382C64.8596 121.41 64.8147 121.428 64.786 121.45L64.7698 121.423C64.7573 121.401 64.7449 121.381 64.7449 121.361L64.8484 120.477L64.8608 120.387C64.882 120.216 64.9032 120.042 64.9331 119.871L65.0429 119.303L65.1812 118.591L65.2536 118.174L65.3097 117.838L65.4007 117.398C65.4057 117.376 65.4057 117.353 65.4057 117.329L65.4032 117.224L65.3259 117.268C65.2772 117.297 65.2324 117.324 65.1837 117.333L65.079 117.356C64.8745 117.396 64.6688 117.437 64.4644 117.449C63.9109 117.487 63.3547 117.481 62.8024 117.431C62.5418 117.403 62.2775 117.368 62.0444 117.266C61.9355 117.22 61.836 117.157 61.7502 117.082C61.6904 117.028 61.633 116.972 61.5781 116.914C61.44 116.767 61.313 116.611 61.1978 116.449C60.8487 115.965 60.6542 115.42 60.4897 114.864C60.345 114.368 60.466 113.924 60.7116 113.483C60.951 113.053 61.1729 112.615 61.4098 112.185C61.6379 111.771 61.9584 111.435 62.4521 111.27C62.6491 111.204 62.8685 111.146 63.073 111.158C63.3672 111.174 63.6589 111.242 63.9357 111.36C64.306 111.519 64.5279 111.804 64.7648 112.079L65.1102 112.462L65.3944 112.254C65.6139 112.093 65.8308 111.933 66.0515 111.777C66.8282 111.233 67.6436 110.743 68.5375 110.37C68.9902 110.179 69.4562 110.016 69.9327 109.881C70.3815 109.754 70.8453 109.676 71.3216 109.67L71.6096 109.669C71.91 109.668 72.2117 109.667 72.5097 109.638C72.8089 109.61 73.1094 109.538 73.3937 109.444C73.7777 109.318 74.1442 109.15 74.5195 109.002C74.537 108.995 74.5582 109 74.5793 109.004L74.6093 109.009L74.603 109.076C74.598 109.098 74.5918 109.12 74.5781 109.132C74.507 109.188 74.4322 109.244 74.3549 109.298L74.1081 109.473C74.0406 109.516 73.9783 109.564 73.9223 109.619L75.1977 109.323L75.2277 109.375L74.9122 109.58L75.2875 109.517C75.3224 109.511 75.3598 109.519 75.3947 109.52L75.3748 109.546C75.3628 109.567 75.3472 109.587 75.3287 109.604C75.2905 109.64 75.2459 109.671 75.1965 109.694C75.0843 109.741 75.0805 109.789 75.1529 109.877C75.4708 110.258 75.7825 110.645 76.0942 111.03C76.1602 111.113 76.2188 111.182 76.1839 111.308C76.1091 111.586 76.0493 111.868 75.9869 112.149L75.947 112.46L76.0281 112.401C76.3759 112.11 76.7761 111.937 77.2524 111.866C77.6115 111.812 77.9444 111.835 78.2623 111.978C78.3687 112.028 78.4595 112.101 78.5266 112.19C78.7722 112.501 78.9131 112.85 78.9368 113.231C78.958 113.588 78.9243 113.931 78.8208 114.26C78.7373 114.529 78.6089 114.789 78.4281 115.036C78.185 115.369 77.892 115.663 77.5491 115.922C77.2487 116.149 76.9794 116.41 76.6889 116.65C76.5143 116.796 76.3373 116.941 76.1428 117.065C76.0056 117.151 75.8635 117.226 75.7064 117.284C75.6167 117.318 75.5967 117.352 75.6204 117.441C75.6326 117.483 75.6405 117.527 75.6441 117.571L75.6528 117.763C75.6678 118.02 75.6653 118.28 75.6977 118.536C75.7127 118.662 75.7825 118.782 75.8348 118.902C75.9495 119.174 76.0854 119.438 76.2114 119.706C76.361 120.019 76.4981 120.336 76.5704 120.674C76.6253 120.929 76.6515 121.183 76.6427 121.438C76.634 121.681 76.5929 121.924 76.5168 122.165C76.4939 122.236 76.4669 122.305 76.4358 122.373C76.4059 122.441 76.3759 122.508 76.3498 122.575C76.3398 122.605 76.346 122.657 76.3697 122.678C76.6091 122.904 76.5941 122.983 76.2949 123.144C76.2949 123.278 76.3136 123.406 76.2912 123.527C76.2753 123.604 76.235 123.675 76.1752 123.732C76.0823 123.812 75.9737 123.877 75.8548 123.922C75.5244 124.064 75.1703 124.128 74.81 124.177C74.3188 124.244 73.8263 124.267 73.3338 124.252L72.8688 124.233L72.5097 124.218L70.773 124.156C70.662 124.153 70.5511 124.144 70.4039 124.134L70.4413 124.604C70.4575 124.797 70.4725 124.989 70.4974 125.179C70.5386 125.493 70.6558 125.792 70.8116 126.075C71.0822 126.563 71.4924 126.935 72.0384 127.17C72.5184 127.377 73.0134 127.559 73.4997 127.755C73.9547 127.936 74.4023 128.132 74.7589 128.451C75.0456 128.708 75.2489 129.022 75.3735 129.37L75.4907 129.717C75.563 129.935 75.6291 130.155 75.689 130.377C75.7488 130.603 75.77 130.838 75.8136 131.068L75.9072 131.486L75.9209 131.555C73.5881 132.499 71.06 132.99 68.5014 132.999H68.3169C64.8077 132.988 61.3769 132.067 58.4375 130.347H58.4387Z"/>
</mask>
<path d="M58.4387 130.347L58.5098 130.19C58.6993 129.794 58.9449 129.427 59.2417 129.085C59.5608 128.717 59.9947 128.495 60.4323 128.27L60.5021 128.234C60.8986 128.031 61.325 127.909 61.7589 127.812C62.1553 127.722 62.5394 127.615 62.9047 127.45C63.5808 127.158 64.149 126.697 64.5417 126.123C64.7636 125.797 64.9444 125.453 65.0616 125.089C65.1021 124.962 65.1362 124.834 65.1638 124.704C65.198 124.532 65.2259 124.359 65.2473 124.185C65.2984 123.749 65.3259 123.309 65.3521 122.871C65.367 122.608 65.3583 122.345 65.3608 122.082C65.3608 121.897 65.3483 121.711 65.3645 121.527C65.3882 121.254 65.2797 121.004 65.2261 120.744C65.2137 120.672 65.1937 120.601 65.17 120.497C65.1177 120.649 65.0703 120.772 65.0291 120.896L64.8696 121.382C64.8596 121.41 64.8147 121.428 64.786 121.45L64.7698 121.423C64.7573 121.401 64.7449 121.381 64.7449 121.361L64.8484 120.477L64.8608 120.387C64.882 120.216 64.9032 120.042 64.9331 119.871L65.0429 119.303L65.1812 118.591L65.2536 118.174L65.3097 117.838L65.4007 117.398C65.4057 117.376 65.4057 117.353 65.4057 117.329L65.4032 117.224L65.3259 117.268C65.2772 117.297 65.2324 117.324 65.1837 117.333L65.079 117.356C64.8745 117.396 64.6688 117.437 64.4644 117.449C63.9109 117.487 63.3547 117.481 62.8024 117.431C62.5418 117.403 62.2775 117.368 62.0444 117.266C61.9355 117.22 61.836 117.157 61.7502 117.082C61.6904 117.028 61.633 116.972 61.5781 116.914C61.44 116.767 61.313 116.611 61.1978 116.449C60.8487 115.965 60.6542 115.42 60.4897 114.864C60.345 114.368 60.466 113.924 60.7116 113.483C60.951 113.053 61.1729 112.615 61.4098 112.185C61.6379 111.771 61.9584 111.435 62.4521 111.27C62.6491 111.204 62.8685 111.146 63.073 111.158C63.3672 111.174 63.6589 111.242 63.9357 111.36C64.306 111.519 64.5279 111.804 64.7648 112.079L65.1102 112.462L65.3944 112.254C65.6139 112.093 65.8308 111.933 66.0515 111.777C66.8282 111.233 67.6436 110.743 68.5375 110.37C68.9902 110.179 69.4562 110.016 69.9327 109.881C70.3815 109.754 70.8453 109.676 71.3216 109.67L71.6096 109.669C71.91 109.668 72.2117 109.667 72.5097 109.638C72.8089 109.61 73.1094 109.538 73.3937 109.444C73.7777 109.318 74.1442 109.15 74.5195 109.002C74.537 108.995 74.5582 109 74.5793 109.004L74.6093 109.009L74.603 109.076C74.598 109.098 74.5918 109.12 74.5781 109.132C74.507 109.188 74.4322 109.244 74.3549 109.298L74.1081 109.473C74.0406 109.516 73.9783 109.564 73.9223 109.619L75.1977 109.323L75.2277 109.375L74.9122 109.58L75.2875 109.517C75.3224 109.511 75.3598 109.519 75.3947 109.52L75.3748 109.546C75.3628 109.567 75.3472 109.587 75.3287 109.604C75.2905 109.64 75.2459 109.671 75.1965 109.694C75.0843 109.741 75.0805 109.789 75.1529 109.877C75.4708 110.258 75.7825 110.645 76.0942 111.03C76.1602 111.113 76.2188 111.182 76.1839 111.308C76.1091 111.586 76.0493 111.868 75.9869 112.149L75.947 112.46L76.0281 112.401C76.3759 112.11 76.7761 111.937 77.2524 111.866C77.6115 111.812 77.9444 111.835 78.2623 111.978C78.3687 112.028 78.4595 112.101 78.5266 112.19C78.7722 112.501 78.9131 112.85 78.9368 113.231C78.958 113.588 78.9243 113.931 78.8208 114.26C78.7373 114.529 78.6089 114.789 78.4281 115.036C78.185 115.369 77.892 115.663 77.5491 115.922C77.2487 116.149 76.9794 116.41 76.6889 116.65C76.5143 116.796 76.3373 116.941 76.1428 117.065C76.0056 117.151 75.8635 117.226 75.7064 117.284C75.6167 117.318 75.5967 117.352 75.6204 117.441C75.6326 117.483 75.6405 117.527 75.6441 117.571L75.6528 117.763C75.6678 118.02 75.6653 118.28 75.6977 118.536C75.7127 118.662 75.7825 118.782 75.8348 118.902C75.9495 119.174 76.0854 119.438 76.2114 119.706C76.361 120.019 76.4981 120.336 76.5704 120.674C76.6253 120.929 76.6515 121.183 76.6427 121.438C76.634 121.681 76.5929 121.924 76.5168 122.165C76.4939 122.236 76.4669 122.305 76.4358 122.373C76.4059 122.441 76.3759 122.508 76.3498 122.575C76.3398 122.605 76.346 122.657 76.3697 122.678C76.6091 122.904 76.5941 122.983 76.2949 123.144C76.2949 123.278 76.3136 123.406 76.2912 123.527C76.2753 123.604 76.235 123.675 76.1752 123.732C76.0823 123.812 75.9737 123.877 75.8548 123.922C75.5244 124.064 75.1703 124.128 74.81 124.177C74.3188 124.244 73.8263 124.267 73.3338 124.252L72.8688 124.233L72.5097 124.218L70.773 124.156C70.662 124.153 70.5511 124.144 70.4039 124.134L70.4413 124.604C70.4575 124.797 70.4725 124.989 70.4974 125.179C70.5386 125.493 70.6558 125.792 70.8116 126.075C71.0822 126.563 71.4924 126.935 72.0384 127.17C72.5184 127.377 73.0134 127.559 73.4997 127.755C73.9547 127.936 74.4023 128.132 74.7589 128.451C75.0456 128.708 75.2489 129.022 75.3735 129.37L75.4907 129.717C75.563 129.935 75.6291 130.155 75.689 130.377C75.7488 130.603 75.77 130.838 75.8136 131.068L75.9072 131.486L75.9209 131.555C73.5881 132.499 71.06 132.99 68.5014 132.999H68.3169C64.8077 132.988 61.3769 132.067 58.4375 130.347H58.4387Z" fill="white" fill-opacity="0.5"/>
<path d="M58.4387 130.347L58.5098 130.19C58.6993 129.794 58.9449 129.427 59.2417 129.085C59.5608 128.717 59.9947 128.495 60.4323 128.27L60.5021 128.234C60.8986 128.031 61.325 127.909 61.7589 127.812C62.1553 127.722 62.5394 127.615 62.9047 127.45C63.5808 127.158 64.149 126.697 64.5417 126.123C64.7636 125.797 64.9444 125.453 65.0616 125.089C65.1021 124.962 65.1362 124.834 65.1638 124.704C65.198 124.532 65.2259 124.359 65.2473 124.185C65.2984 123.749 65.3259 123.309 65.3521 122.871C65.367 122.608 65.3583 122.345 65.3608 122.082C65.3608 121.897 65.3483 121.711 65.3645 121.527C65.3882 121.254 65.2797 121.004 65.2261 120.744C65.2137 120.672 65.1937 120.601 65.17 120.497C65.1177 120.649 65.0703 120.772 65.0291 120.896L64.8696 121.382C64.8596 121.41 64.8147 121.428 64.786 121.45L64.7698 121.423C64.7573 121.401 64.7449 121.381 64.7449 121.361L64.8484 120.477L64.8608 120.387C64.882 120.216 64.9032 120.042 64.9331 119.871L65.0429 119.303L65.1812 118.591L65.2536 118.174L65.3097 117.838L65.4007 117.398C65.4057 117.376 65.4057 117.353 65.4057 117.329L65.4032 117.224L65.3259 117.268C65.2772 117.297 65.2324 117.324 65.1837 117.333L65.079 117.356C64.8745 117.396 64.6688 117.437 64.4644 117.449C63.9109 117.487 63.3547 117.481 62.8024 117.431C62.5418 117.403 62.2775 117.368 62.0444 117.266C61.9355 117.22 61.836 117.157 61.7502 117.082C61.6904 117.028 61.633 116.972 61.5781 116.914C61.44 116.767 61.313 116.611 61.1978 116.449C60.8487 115.965 60.6542 115.42 60.4897 114.864C60.345 114.368 60.466 113.924 60.7116 113.483C60.951 113.053 61.1729 112.615 61.4098 112.185C61.6379 111.771 61.9584 111.435 62.4521 111.27C62.6491 111.204 62.8685 111.146 63.073 111.158C63.3672 111.174 63.6589 111.242 63.9357 111.36C64.306 111.519 64.5279 111.804 64.7648 112.079L65.1102 112.462L65.3944 112.254C65.6139 112.093 65.8308 111.933 66.0515 111.777C66.8282 111.233 67.6436 110.743 68.5375 110.37C68.9902 110.179 69.4562 110.016 69.9327 109.881C70.3815 109.754 70.8453 109.676 71.3216 109.67L71.6096 109.669C71.91 109.668 72.2117 109.667 72.5097 109.638C72.8089 109.61 73.1094 109.538 73.3937 109.444C73.7777 109.318 74.1442 109.15 74.5195 109.002C74.537 108.995 74.5582 109 74.5793 109.004L74.6093 109.009L74.603 109.076C74.598 109.098 74.5918 109.12 74.5781 109.132C74.507 109.188 74.4322 109.244 74.3549 109.298L74.1081 109.473C74.0406 109.516 73.9783 109.564 73.9223 109.619L75.1977 109.323L75.2277 109.375L74.9122 109.58L75.2875 109.517C75.3224 109.511 75.3598 109.519 75.3947 109.52L75.3748 109.546C75.3628 109.567 75.3472 109.587 75.3287 109.604C75.2905 109.64 75.2459 109.671 75.1965 109.694C75.0843 109.741 75.0805 109.789 75.1529 109.877C75.4708 110.258 75.7825 110.645 76.0942 111.03C76.1602 111.113 76.2188 111.182 76.1839 111.308C76.1091 111.586 76.0493 111.868 75.9869 112.149L75.947 112.46L76.0281 112.401C76.3759 112.11 76.7761 111.937 77.2524 111.866C77.6115 111.812 77.9444 111.835 78.2623 111.978C78.3687 112.028 78.4595 112.101 78.5266 112.19C78.7722 112.501 78.9131 112.85 78.9368 113.231C78.958 113.588 78.9243 113.931 78.8208 114.26C78.7373 114.529 78.6089 114.789 78.4281 115.036C78.185 115.369 77.892 115.663 77.5491 115.922C77.2487 116.149 76.9794 116.41 76.6889 116.65C76.5143 116.796 76.3373 116.941 76.1428 117.065C76.0056 117.151 75.8635 117.226 75.7064 117.284C75.6167 117.318 75.5967 117.352 75.6204 117.441C75.6326 117.483 75.6405 117.527 75.6441 117.571L75.6528 117.763C75.6678 118.02 75.6653 118.28 75.6977 118.536C75.7127 118.662 75.7825 118.782 75.8348 118.902C75.9495 119.174 76.0854 119.438 76.2114 119.706C76.361 120.019 76.4981 120.336 76.5704 120.674C76.6253 120.929 76.6515 121.183 76.6427 121.438C76.634 121.681 76.5929 121.924 76.5168 122.165C76.4939 122.236 76.4669 122.305 76.4358 122.373C76.4059 122.441 76.3759 122.508 76.3498 122.575C76.3398 122.605 76.346 122.657 76.3697 122.678C76.6091 122.904 76.5941 122.983 76.2949 123.144C76.2949 123.278 76.3136 123.406 76.2912 123.527C76.2753 123.604 76.235 123.675 76.1752 123.732C76.0823 123.812 75.9737 123.877 75.8548 123.922C75.5244 124.064 75.1703 124.128 74.81 124.177C74.3188 124.244 73.8263 124.267 73.3338 124.252L72.8688 124.233L72.5097 124.218L70.773 124.156C70.662 124.153 70.5511 124.144 70.4039 124.134L70.4413 124.604C70.4575 124.797 70.4725 124.989 70.4974 125.179C70.5386 125.493 70.6558 125.792 70.8116 126.075C71.0822 126.563 71.4924 126.935 72.0384 127.17C72.5184 127.377 73.0134 127.559 73.4997 127.755C73.9547 127.936 74.4023 128.132 74.7589 128.451C75.0456 128.708 75.2489 129.022 75.3735 129.37L75.4907 129.717C75.563 129.935 75.6291 130.155 75.689 130.377C75.7488 130.603 75.77 130.838 75.8136 131.068L75.9072 131.486L75.9209 131.555C73.5881 132.499 71.06 132.99 68.5014 132.999H68.3169C64.8077 132.988 61.3769 132.067 58.4375 130.347H58.4387Z" stroke="white" stroke-opacity="0.2" stroke-width="2" stroke-linejoin="round" mask="url(#path-13-outside-1_1743_12131)"/>
<mask id="path-14-outside-2_1743_12131" maskUnits="userSpaceOnUse" x="57.4375" y="198.999" width="23" height="26" fill="black">
<rect fill="white" x="57.4375" y="198.999" width="23" height="26"/>
<path d="M58.4387 221.347L58.5098 221.19C58.6993 220.794 58.9449 220.427 59.2417 220.085C59.5608 219.717 59.9947 219.495 60.4323 219.27L60.5021 219.234C60.8986 219.031 61.325 218.909 61.7589 218.812C62.1553 218.722 62.5394 218.615 62.9047 218.45C63.5808 218.158 64.149 217.697 64.5417 217.123C64.7636 216.797 64.9444 216.453 65.0616 216.089C65.1021 215.962 65.1362 215.834 65.1638 215.704C65.198 215.532 65.2259 215.359 65.2473 215.185C65.2984 214.749 65.3259 214.309 65.3521 213.871C65.367 213.608 65.3583 213.345 65.3608 213.082C65.3608 212.897 65.3483 212.711 65.3645 212.527C65.3882 212.254 65.2797 212.004 65.2261 211.744C65.2137 211.672 65.1937 211.601 65.17 211.497C65.1177 211.649 65.0703 211.772 65.0291 211.896L64.8696 212.382C64.8596 212.41 64.8147 212.428 64.786 212.45L64.7698 212.423C64.7573 212.401 64.7449 212.381 64.7449 212.361L64.8484 211.477L64.8608 211.387C64.882 211.216 64.9032 211.042 64.9331 210.871L65.0429 210.303L65.1812 209.591L65.2536 209.174L65.3097 208.838L65.4007 208.398C65.4057 208.376 65.4057 208.353 65.4057 208.329L65.4032 208.224L65.3259 208.268C65.2772 208.297 65.2324 208.324 65.1837 208.333L65.079 208.356C64.8745 208.396 64.6688 208.437 64.4644 208.449C63.9109 208.487 63.3547 208.481 62.8024 208.431C62.5418 208.403 62.2775 208.368 62.0444 208.266C61.9355 208.22 61.836 208.157 61.7502 208.082C61.6904 208.028 61.633 207.972 61.5781 207.914C61.44 207.767 61.313 207.611 61.1978 207.449C60.8487 206.965 60.6542 206.42 60.4897 205.864C60.345 205.368 60.466 204.924 60.7116 204.483C60.951 204.053 61.1729 203.615 61.4098 203.185C61.6379 202.771 61.9584 202.435 62.4521 202.27C62.6491 202.204 62.8685 202.146 63.073 202.158C63.3672 202.174 63.6589 202.242 63.9357 202.36C64.306 202.519 64.5279 202.804 64.7648 203.079L65.1102 203.462L65.3944 203.254C65.6139 203.093 65.8308 202.933 66.0515 202.777C66.8282 202.233 67.6436 201.743 68.5375 201.37C68.9902 201.179 69.4562 201.016 69.9327 200.881C70.3815 200.754 70.8453 200.676 71.3216 200.67L71.6096 200.669C71.91 200.668 72.2117 200.667 72.5097 200.638C72.8089 200.61 73.1094 200.538 73.3937 200.444C73.7777 200.318 74.1442 200.15 74.5195 200.002C74.537 199.995 74.5582 200 74.5793 200.004L74.6093 200.009L74.603 200.076C74.598 200.098 74.5918 200.12 74.5781 200.132C74.507 200.188 74.4322 200.244 74.3549 200.298L74.1081 200.473C74.0406 200.516 73.9783 200.564 73.9223 200.619L75.1977 200.323L75.2277 200.375L74.9122 200.58L75.2875 200.517C75.3224 200.511 75.3598 200.519 75.3947 200.52L75.3748 200.546C75.3628 200.567 75.3472 200.587 75.3287 200.604C75.2905 200.64 75.2459 200.671 75.1965 200.694C75.0843 200.741 75.0805 200.789 75.1529 200.877C75.4708 201.258 75.7825 201.645 76.0942 202.03C76.1602 202.113 76.2188 202.182 76.1839 202.308C76.1091 202.586 76.0493 202.868 75.9869 203.149L75.947 203.46L76.0281 203.401C76.3759 203.11 76.7761 202.937 77.2524 202.866C77.6115 202.812 77.9444 202.835 78.2623 202.978C78.3687 203.028 78.4595 203.101 78.5266 203.19C78.7722 203.501 78.9131 203.85 78.9368 204.231C78.958 204.588 78.9243 204.931 78.8208 205.26C78.7373 205.529 78.6089 205.789 78.4281 206.036C78.185 206.369 77.892 206.663 77.5491 206.922C77.2487 207.149 76.9794 207.41 76.6889 207.65C76.5143 207.796 76.3373 207.941 76.1428 208.065C76.0056 208.151 75.8635 208.226 75.7064 208.284C75.6167 208.318 75.5967 208.352 75.6204 208.441C75.6326 208.483 75.6405 208.527 75.6441 208.571L75.6528 208.763C75.6678 209.02 75.6653 209.28 75.6977 209.536C75.7127 209.662 75.7825 209.782 75.8348 209.902C75.9495 210.174 76.0854 210.438 76.2114 210.706C76.361 211.019 76.4981 211.336 76.5704 211.674C76.6253 211.929 76.6515 212.183 76.6427 212.438C76.634 212.681 76.5929 212.924 76.5168 213.165C76.4939 213.236 76.4669 213.305 76.4358 213.373C76.4059 213.441 76.3759 213.508 76.3498 213.575C76.3398 213.605 76.346 213.657 76.3697 213.678C76.6091 213.904 76.5941 213.983 76.2949 214.144C76.2949 214.278 76.3136 214.406 76.2912 214.527C76.2753 214.604 76.235 214.675 76.1752 214.732C76.0823 214.812 75.9737 214.877 75.8548 214.922C75.5244 215.064 75.1703 215.128 74.81 215.177C74.3188 215.244 73.8263 215.267 73.3338 215.252L72.8688 215.233L72.5097 215.218L70.773 215.156C70.662 215.153 70.5511 215.144 70.4039 215.134L70.4413 215.604C70.4575 215.797 70.4725 215.989 70.4974 216.179C70.5386 216.493 70.6558 216.792 70.8116 217.075C71.0822 217.563 71.4924 217.935 72.0384 218.17C72.5184 218.377 73.0134 218.559 73.4997 218.755C73.9547 218.936 74.4023 219.132 74.7589 219.451C75.0456 219.708 75.2489 220.022 75.3735 220.37L75.4907 220.717C75.563 220.935 75.6291 221.155 75.689 221.377C75.7488 221.603 75.77 221.838 75.8136 222.068L75.9072 222.486L75.9209 222.555C73.5881 223.499 71.06 223.99 68.5014 223.999H68.3169C64.8077 223.988 61.3769 223.067 58.4375 221.347H58.4387Z"/>
</mask>
<path d="M58.4387 221.347L58.5098 221.19C58.6993 220.794 58.9449 220.427 59.2417 220.085C59.5608 219.717 59.9947 219.495 60.4323 219.27L60.5021 219.234C60.8986 219.031 61.325 218.909 61.7589 218.812C62.1553 218.722 62.5394 218.615 62.9047 218.45C63.5808 218.158 64.149 217.697 64.5417 217.123C64.7636 216.797 64.9444 216.453 65.0616 216.089C65.1021 215.962 65.1362 215.834 65.1638 215.704C65.198 215.532 65.2259 215.359 65.2473 215.185C65.2984 214.749 65.3259 214.309 65.3521 213.871C65.367 213.608 65.3583 213.345 65.3608 213.082C65.3608 212.897 65.3483 212.711 65.3645 212.527C65.3882 212.254 65.2797 212.004 65.2261 211.744C65.2137 211.672 65.1937 211.601 65.17 211.497C65.1177 211.649 65.0703 211.772 65.0291 211.896L64.8696 212.382C64.8596 212.41 64.8147 212.428 64.786 212.45L64.7698 212.423C64.7573 212.401 64.7449 212.381 64.7449 212.361L64.8484 211.477L64.8608 211.387C64.882 211.216 64.9032 211.042 64.9331 210.871L65.0429 210.303L65.1812 209.591L65.2536 209.174L65.3097 208.838L65.4007 208.398C65.4057 208.376 65.4057 208.353 65.4057 208.329L65.4032 208.224L65.3259 208.268C65.2772 208.297 65.2324 208.324 65.1837 208.333L65.079 208.356C64.8745 208.396 64.6688 208.437 64.4644 208.449C63.9109 208.487 63.3547 208.481 62.8024 208.431C62.5418 208.403 62.2775 208.368 62.0444 208.266C61.9355 208.22 61.836 208.157 61.7502 208.082C61.6904 208.028 61.633 207.972 61.5781 207.914C61.44 207.767 61.313 207.611 61.1978 207.449C60.8487 206.965 60.6542 206.42 60.4897 205.864C60.345 205.368 60.466 204.924 60.7116 204.483C60.951 204.053 61.1729 203.615 61.4098 203.185C61.6379 202.771 61.9584 202.435 62.4521 202.27C62.6491 202.204 62.8685 202.146 63.073 202.158C63.3672 202.174 63.6589 202.242 63.9357 202.36C64.306 202.519 64.5279 202.804 64.7648 203.079L65.1102 203.462L65.3944 203.254C65.6139 203.093 65.8308 202.933 66.0515 202.777C66.8282 202.233 67.6436 201.743 68.5375 201.37C68.9902 201.179 69.4562 201.016 69.9327 200.881C70.3815 200.754 70.8453 200.676 71.3216 200.67L71.6096 200.669C71.91 200.668 72.2117 200.667 72.5097 200.638C72.8089 200.61 73.1094 200.538 73.3937 200.444C73.7777 200.318 74.1442 200.15 74.5195 200.002C74.537 199.995 74.5582 200 74.5793 200.004L74.6093 200.009L74.603 200.076C74.598 200.098 74.5918 200.12 74.5781 200.132C74.507 200.188 74.4322 200.244 74.3549 200.298L74.1081 200.473C74.0406 200.516 73.9783 200.564 73.9223 200.619L75.1977 200.323L75.2277 200.375L74.9122 200.58L75.2875 200.517C75.3224 200.511 75.3598 200.519 75.3947 200.52L75.3748 200.546C75.3628 200.567 75.3472 200.587 75.3287 200.604C75.2905 200.64 75.2459 200.671 75.1965 200.694C75.0843 200.741 75.0805 200.789 75.1529 200.877C75.4708 201.258 75.7825 201.645 76.0942 202.03C76.1602 202.113 76.2188 202.182 76.1839 202.308C76.1091 202.586 76.0493 202.868 75.9869 203.149L75.947 203.46L76.0281 203.401C76.3759 203.11 76.7761 202.937 77.2524 202.866C77.6115 202.812 77.9444 202.835 78.2623 202.978C78.3687 203.028 78.4595 203.101 78.5266 203.19C78.7722 203.501 78.9131 203.85 78.9368 204.231C78.958 204.588 78.9243 204.931 78.8208 205.26C78.7373 205.529 78.6089 205.789 78.4281 206.036C78.185 206.369 77.892 206.663 77.5491 206.922C77.2487 207.149 76.9794 207.41 76.6889 207.65C76.5143 207.796 76.3373 207.941 76.1428 208.065C76.0056 208.151 75.8635 208.226 75.7064 208.284C75.6167 208.318 75.5967 208.352 75.6204 208.441C75.6326 208.483 75.6405 208.527 75.6441 208.571L75.6528 208.763C75.6678 209.02 75.6653 209.28 75.6977 209.536C75.7127 209.662 75.7825 209.782 75.8348 209.902C75.9495 210.174 76.0854 210.438 76.2114 210.706C76.361 211.019 76.4981 211.336 76.5704 211.674C76.6253 211.929 76.6515 212.183 76.6427 212.438C76.634 212.681 76.5929 212.924 76.5168 213.165C76.4939 213.236 76.4669 213.305 76.4358 213.373C76.4059 213.441 76.3759 213.508 76.3498 213.575C76.3398 213.605 76.346 213.657 76.3697 213.678C76.6091 213.904 76.5941 213.983 76.2949 214.144C76.2949 214.278 76.3136 214.406 76.2912 214.527C76.2753 214.604 76.235 214.675 76.1752 214.732C76.0823 214.812 75.9737 214.877 75.8548 214.922C75.5244 215.064 75.1703 215.128 74.81 215.177C74.3188 215.244 73.8263 215.267 73.3338 215.252L72.8688 215.233L72.5097 215.218L70.773 215.156C70.662 215.153 70.5511 215.144 70.4039 215.134L70.4413 215.604C70.4575 215.797 70.4725 215.989 70.4974 216.179C70.5386 216.493 70.6558 216.792 70.8116 217.075C71.0822 217.563 71.4924 217.935 72.0384 218.17C72.5184 218.377 73.0134 218.559 73.4997 218.755C73.9547 218.936 74.4023 219.132 74.7589 219.451C75.0456 219.708 75.2489 220.022 75.3735 220.37L75.4907 220.717C75.563 220.935 75.6291 221.155 75.689 221.377C75.7488 221.603 75.77 221.838 75.8136 222.068L75.9072 222.486L75.9209 222.555C73.5881 223.499 71.06 223.99 68.5014 223.999H68.3169C64.8077 223.988 61.3769 223.067 58.4375 221.347H58.4387Z" fill="white" fill-opacity="0.5"/>
<path d="M58.4387 221.347L58.5098 221.19C58.6993 220.794 58.9449 220.427 59.2417 220.085C59.5608 219.717 59.9947 219.495 60.4323 219.27L60.5021 219.234C60.8986 219.031 61.325 218.909 61.7589 218.812C62.1553 218.722 62.5394 218.615 62.9047 218.45C63.5808 218.158 64.149 217.697 64.5417 217.123C64.7636 216.797 64.9444 216.453 65.0616 216.089C65.1021 215.962 65.1362 215.834 65.1638 215.704C65.198 215.532 65.2259 215.359 65.2473 215.185C65.2984 214.749 65.3259 214.309 65.3521 213.871C65.367 213.608 65.3583 213.345 65.3608 213.082C65.3608 212.897 65.3483 212.711 65.3645 212.527C65.3882 212.254 65.2797 212.004 65.2261 211.744C65.2137 211.672 65.1937 211.601 65.17 211.497C65.1177 211.649 65.0703 211.772 65.0291 211.896L64.8696 212.382C64.8596 212.41 64.8147 212.428 64.786 212.45L64.7698 212.423C64.7573 212.401 64.7449 212.381 64.7449 212.361L64.8484 211.477L64.8608 211.387C64.882 211.216 64.9032 211.042 64.9331 210.871L65.0429 210.303L65.1812 209.591L65.2536 209.174L65.3097 208.838L65.4007 208.398C65.4057 208.376 65.4057 208.353 65.4057 208.329L65.4032 208.224L65.3259 208.268C65.2772 208.297 65.2324 208.324 65.1837 208.333L65.079 208.356C64.8745 208.396 64.6688 208.437 64.4644 208.449C63.9109 208.487 63.3547 208.481 62.8024 208.431C62.5418 208.403 62.2775 208.368 62.0444 208.266C61.9355 208.22 61.836 208.157 61.7502 208.082C61.6904 208.028 61.633 207.972 61.5781 207.914C61.44 207.767 61.313 207.611 61.1978 207.449C60.8487 206.965 60.6542 206.42 60.4897 205.864C60.345 205.368 60.466 204.924 60.7116 204.483C60.951 204.053 61.1729 203.615 61.4098 203.185C61.6379 202.771 61.9584 202.435 62.4521 202.27C62.6491 202.204 62.8685 202.146 63.073 202.158C63.3672 202.174 63.6589 202.242 63.9357 202.36C64.306 202.519 64.5279 202.804 64.7648 203.079L65.1102 203.462L65.3944 203.254C65.6139 203.093 65.8308 202.933 66.0515 202.777C66.8282 202.233 67.6436 201.743 68.5375 201.37C68.9902 201.179 69.4562 201.016 69.9327 200.881C70.3815 200.754 70.8453 200.676 71.3216 200.67L71.6096 200.669C71.91 200.668 72.2117 200.667 72.5097 200.638C72.8089 200.61 73.1094 200.538 73.3937 200.444C73.7777 200.318 74.1442 200.15 74.5195 200.002C74.537 199.995 74.5582 200 74.5793 200.004L74.6093 200.009L74.603 200.076C74.598 200.098 74.5918 200.12 74.5781 200.132C74.507 200.188 74.4322 200.244 74.3549 200.298L74.1081 200.473C74.0406 200.516 73.9783 200.564 73.9223 200.619L75.1977 200.323L75.2277 200.375L74.9122 200.58L75.2875 200.517C75.3224 200.511 75.3598 200.519 75.3947 200.52L75.3748 200.546C75.3628 200.567 75.3472 200.587 75.3287 200.604C75.2905 200.64 75.2459 200.671 75.1965 200.694C75.0843 200.741 75.0805 200.789 75.1529 200.877C75.4708 201.258 75.7825 201.645 76.0942 202.03C76.1602 202.113 76.2188 202.182 76.1839 202.308C76.1091 202.586 76.0493 202.868 75.9869 203.149L75.947 203.46L76.0281 203.401C76.3759 203.11 76.7761 202.937 77.2524 202.866C77.6115 202.812 77.9444 202.835 78.2623 202.978C78.3687 203.028 78.4595 203.101 78.5266 203.19C78.7722 203.501 78.9131 203.85 78.9368 204.231C78.958 204.588 78.9243 204.931 78.8208 205.26C78.7373 205.529 78.6089 205.789 78.4281 206.036C78.185 206.369 77.892 206.663 77.5491 206.922C77.2487 207.149 76.9794 207.41 76.6889 207.65C76.5143 207.796 76.3373 207.941 76.1428 208.065C76.0056 208.151 75.8635 208.226 75.7064 208.284C75.6167 208.318 75.5967 208.352 75.6204 208.441C75.6326 208.483 75.6405 208.527 75.6441 208.571L75.6528 208.763C75.6678 209.02 75.6653 209.28 75.6977 209.536C75.7127 209.662 75.7825 209.782 75.8348 209.902C75.9495 210.174 76.0854 210.438 76.2114 210.706C76.361 211.019 76.4981 211.336 76.5704 211.674C76.6253 211.929 76.6515 212.183 76.6427 212.438C76.634 212.681 76.5929 212.924 76.5168 213.165C76.4939 213.236 76.4669 213.305 76.4358 213.373C76.4059 213.441 76.3759 213.508 76.3498 213.575C76.3398 213.605 76.346 213.657 76.3697 213.678C76.6091 213.904 76.5941 213.983 76.2949 214.144C76.2949 214.278 76.3136 214.406 76.2912 214.527C76.2753 214.604 76.235 214.675 76.1752 214.732C76.0823 214.812 75.9737 214.877 75.8548 214.922C75.5244 215.064 75.1703 215.128 74.81 215.177C74.3188 215.244 73.8263 215.267 73.3338 215.252L72.8688 215.233L72.5097 215.218L70.773 215.156C70.662 215.153 70.5511 215.144 70.4039 215.134L70.4413 215.604C70.4575 215.797 70.4725 215.989 70.4974 216.179C70.5386 216.493 70.6558 216.792 70.8116 217.075C71.0822 217.563 71.4924 217.935 72.0384 218.17C72.5184 218.377 73.0134 218.559 73.4997 218.755C73.9547 218.936 74.4023 219.132 74.7589 219.451C75.0456 219.708 75.2489 220.022 75.3735 220.37L75.4907 220.717C75.563 220.935 75.6291 221.155 75.689 221.377C75.7488 221.603 75.77 221.838 75.8136 222.068L75.9072 222.486L75.9209 222.555C73.5881 223.499 71.06 223.99 68.5014 223.999H68.3169C64.8077 223.988 61.3769 223.067 58.4375 221.347H58.4387Z" stroke="white" stroke-opacity="0.2" stroke-width="2" stroke-linejoin="round" mask="url(#path-14-outside-2_1743_12131)"/>
</g>
<defs>
<filter id="filter0_di_1743_12131" x="0" y="0" width="264" height="536" filterUnits="userSpaceOnUse" color-interpolation-filters="sRGB">
<feFlood flood-opacity="0" result="BackgroundImageFix"/>
<feColorMatrix in="SourceAlpha" type="matrix" values="0 0 0 0 0 0 0 0 0 0 0 0 0 0 0 0 0 0 127 0" result="hardAlpha"/>
<feMorphology radius="4" operator="erode" in="SourceAlpha" result="effect1_dropShadow_1743_12131"/>
<feOffset/>
<feGaussianBlur stdDeviation="8"/>
<feComposite in2="hardAlpha" operator="out"/>
<feColorMatrix type="matrix" values="0 0 0 0 0 0 0 0 0 0 0 0 0 0 0 0 0 0 0.5 0"/>
<feBlend mode="normal" in2="BackgroundImageFix" result="effect1_dropShadow_1743_12131"/>
<feBlend mode="normal" in="SourceGraphic" in2="effect1_dropShadow_1743_12131" result="shape"/>
<feColorMatrix in="SourceAlpha" type="matrix" values="0 0 0 0 0 0 0 0 0 0 0 0 0 0 0 0 0 0 127 0" result="hardAlpha"/>
<feOffset dy="1"/>
<feGaussianBlur stdDeviation="1"/>
<feComposite in2="hardAlpha" operator="arithmetic" k2="-1" k3="1"/>
<feColorMatrix type="matrix" values="0 0 0 0 0.321569 0 0 0 0 0.317647 0 0 0 0 0.329412 0 0 0 1 0"/>
<feBlend mode="normal" in2="shape" result="effect2_innerShadow_1743_12131"/>
</filter>
<linearGradient id="paint0_linear_1743_12131" x1="12" y1="12" x2="86.8698" y2="547.104" gradientUnits="userSpaceOnUse">
<stop stop-color="#1F1E21"/>
<stop offset="0.62" stop-color="#131216"/>
</linearGradient>
</defs>
</svg>
