<svg width="300" height="20" viewBox="0 0 300 20" fill="none" xmlns="http://www.w3.org/2000/svg">
<path d="M34.9987 3C33.1555 3 31.4152 3.71155 30.0978 5.0032L20.9249 14.0019C19.8704 15.0363 18.4759 15.6051 17.0013 15.6051C13.9322 15.6051 11.4318 13.1275 11.3975 10.0669C11.3604 7.0264 13.7922 4.48597 16.8328 4.39738C18.3701 4.35166 19.8304 4.92604 20.9249 5.99766L23.2624 8.29232C23.3881 8.41519 23.591 8.41238 23.7139 8.28663L24.2454 7.74653C24.3683 7.62079 24.3655 7.4179 24.2397 7.29502L21.9022 5.00034C20.5848 3.71155 18.8445 3 16.9985 3C13.0721 3 9.88868 6.25199 10.003 10.2069C10.1087 13.819 12.9892 16.7852 16.5955 16.9881C18.5873 17.0996 20.4876 16.3823 21.8993 14.9963L31.0723 5.99766C32.1268 4.96319 33.5213 4.39452 34.9958 4.39452C38.0649 4.39452 40.5625 6.87209 40.5996 9.93263C40.6397 12.9731 38.205 15.5136 35.1673 15.6022C33.6299 15.6479 32.1696 15.0735 31.0752 14.0019L28.7376 11.7072C28.6119 11.5843 28.409 11.5872 28.2861 11.7129L27.7546 12.253C27.6317 12.3787 27.6346 12.5817 27.7603 12.7045L30.0978 14.9992C31.5095 16.3851 33.4098 17.1024 35.4016 16.991C39.0108 16.7909 41.8913 13.8219 41.997 10.2098C42.1113 6.25199 38.9279 3 34.9987 3Z" fill="url(#paint0_linear_1705_14827)"/>
<g opacity="0.5">
<path d="M57.267 13.3786C57.7405 13.3786 58.1469 13.2535 58.4864 13.0034C58.8348 12.7533 59.1117 12.4049 59.3172 11.9582L60.9386 12.8962C60.6974 13.5573 60.2552 14.1022 59.612 14.531C58.9688 14.9509 58.2005 15.1608 57.3072 15.1608C56.4407 15.1608 55.6501 14.9509 54.9354 14.531C54.2207 14.1111 53.6535 13.5171 53.2336 12.7488C52.8137 11.9716 52.6038 11.0827 52.6038 10.0822C52.6038 9.08167 52.8093 8.19727 53.2202 7.429C53.6401 6.66073 54.2073 6.06667 54.922 5.6468C55.6456 5.22693 56.4407 5.017 57.3072 5.017C58.2005 5.017 58.9688 5.2314 59.612 5.6602C60.2552 6.08007 60.6974 6.62053 60.9386 7.2816L59.3172 8.2196C59.1117 7.77293 58.8348 7.42453 58.4864 7.1744C58.1469 6.92427 57.7405 6.7992 57.267 6.7992C56.7667 6.7992 56.3201 6.9332 55.927 7.2012C55.5339 7.4692 55.2213 7.85333 54.989 8.3536C54.7657 8.84493 54.654 9.42113 54.654 10.0822C54.654 10.7433 54.7657 11.3239 54.989 11.8242C55.2213 12.3245 55.5339 12.7086 55.927 12.9766C56.3201 13.2446 56.7667 13.3786 57.267 13.3786ZM66.1179 7.8846C66.3859 7.8846 66.636 7.9248 66.8683 8.0052C67.1006 8.0856 67.2792 8.18833 67.4043 8.3134L66.6807 9.7472C66.4484 9.5864 66.1849 9.506 65.8901 9.506C65.4077 9.506 65.0191 9.707 64.7243 10.109C64.4384 10.511 64.2955 11.0649 64.2955 11.7706V15H62.4329V8.0588H64.0677C64.1124 8.5948 64.1526 8.96107 64.1883 9.1576C64.3938 8.73773 64.6618 8.4206 64.9923 8.2062C65.3228 7.9918 65.698 7.8846 66.1179 7.8846ZM71.2147 7.8846C71.8311 7.8846 72.3761 8.02307 72.8495 8.3C73.3319 8.568 73.7027 8.95213 73.9617 9.4524C74.2297 9.94373 74.3637 10.511 74.3637 11.1542C74.3637 11.4401 74.3369 11.7304 74.2833 12.0252H69.6737C69.7541 12.5433 69.9417 12.9364 70.2365 13.2044C70.5313 13.4635 70.8976 13.593 71.3353 13.593C71.648 13.593 71.9249 13.526 72.1661 13.392C72.4163 13.2491 72.6083 13.0391 72.7423 12.7622L74.1091 13.5662C73.9215 14.0754 73.5597 14.4685 73.0237 14.7454C72.4967 15.0223 71.9071 15.1608 71.2549 15.1608C70.6296 15.1608 70.0489 15.0223 69.5129 14.7454C68.9769 14.4685 68.5437 14.0531 68.2131 13.4992C67.8915 12.9453 67.7307 12.2798 67.7307 11.5026C67.7307 10.7343 67.8915 10.0777 68.2131 9.5328C68.5437 8.98787 68.9725 8.57693 69.4995 8.3C70.0266 8.02307 70.5983 7.8846 71.2147 7.8846ZM71.1611 9.3988C70.7949 9.3988 70.4822 9.51493 70.2231 9.7472C69.9641 9.97947 69.7899 10.3055 69.7005 10.7254H72.4609C72.4252 10.2966 72.2867 9.97053 72.0455 9.7472C71.8133 9.51493 71.5185 9.3988 71.1611 9.3988ZM78.9263 7.8846C79.8643 7.8846 80.5968 8.1526 81.1239 8.6886C81.651 9.21567 81.9145 9.97053 81.9145 10.9532V15H80.3467C80.3378 14.9285 80.3244 14.8124 80.3065 14.6516C80.2976 14.4819 80.2797 14.3345 80.2529 14.2094C80.0474 14.531 79.7794 14.7722 79.4489 14.933C79.1273 15.0849 78.7342 15.1608 78.2697 15.1608C77.7873 15.1608 77.3451 15.0759 76.9431 14.9062C76.55 14.7365 76.2374 14.4908 76.0051 14.1692C75.7728 13.8387 75.6567 13.4501 75.6567 13.0034C75.6567 12.5389 75.7862 12.1369 76.0453 11.7974C76.3133 11.449 76.6706 11.181 77.1173 10.9934C77.564 10.8058 78.0553 10.712 78.5913 10.712C79.0737 10.712 79.5695 10.7924 80.0787 10.9532C80.0519 9.92587 79.6142 9.4122 78.7655 9.4122C78.0866 9.4122 77.5908 9.71593 77.2781 10.3234L75.9515 9.5596C76.2016 9.04147 76.5858 8.635 77.1039 8.3402C77.622 8.03647 78.2295 7.8846 78.9263 7.8846ZM80.0787 12.186C79.632 12.0788 79.2434 12.0252 78.9129 12.0252C78.4752 12.0252 78.1357 12.1056 77.8945 12.2664C77.6533 12.4183 77.5327 12.6371 77.5327 12.923C77.5327 13.1821 77.6265 13.3831 77.8141 13.526C78.0106 13.6689 78.2608 13.7404 78.5645 13.7404C78.9665 13.7404 79.3194 13.6287 79.6231 13.4054C79.9268 13.1731 80.0787 12.856 80.0787 12.454V12.186ZM88.7401 14.598C88.2845 14.9732 87.6502 15.1608 86.8373 15.1608C86.0869 15.1608 85.4794 14.9643 85.0149 14.5712C84.5593 14.1692 84.3315 13.4545 84.3315 12.4272V9.6266H83.0987V8.0588H84.3315V5.9282H86.1941V8.0588H88.2845V9.6266H86.1941V12.119C86.1941 12.5835 86.2745 12.9364 86.4353 13.1776C86.5961 13.4188 86.8552 13.5394 87.2125 13.5394C87.5252 13.5394 87.82 13.4456 88.0969 13.258L88.7401 14.598ZM92.9466 7.8846C93.563 7.8846 94.1079 8.02307 94.5814 8.3C95.0638 8.568 95.4345 8.95213 95.6936 9.4524C95.9616 9.94373 96.0956 10.511 96.0956 11.1542C96.0956 11.4401 96.0688 11.7304 96.0152 12.0252H91.4056C91.486 12.5433 91.6736 12.9364 91.9684 13.2044C92.2632 13.4635 92.6294 13.593 93.0672 13.593C93.3798 13.593 93.6568 13.526 93.898 13.392C94.1481 13.2491 94.3402 13.0391 94.4742 12.7622L95.841 13.5662C95.6534 14.0754 95.2916 14.4685 94.7556 14.7454C94.2285 15.0223 93.6389 15.1608 92.9868 15.1608C92.3614 15.1608 91.7808 15.0223 91.2448 14.7454C90.7088 14.4685 90.2755 14.0531 89.945 13.4992C89.6234 12.9453 89.4626 12.2798 89.4626 11.5026C89.4626 10.7343 89.6234 10.0777 89.945 9.5328C90.2755 8.98787 90.7043 8.57693 91.2314 8.3C91.7584 8.02307 92.3302 7.8846 92.9466 7.8846ZM92.893 9.3988C92.5267 9.3988 92.214 9.51493 91.955 9.7472C91.6959 9.97947 91.5217 10.3055 91.4324 10.7254H94.1928C94.157 10.2966 94.0186 9.97053 93.7774 9.7472C93.5451 9.51493 93.2503 9.3988 92.893 9.3988ZM103.464 5.1912L108.221 11.6768V5.1912H110.03V15H108.449L103.678 8.501V15H101.896V5.1912H103.464ZM115.398 7.8846C116.015 7.8846 116.559 8.02307 117.033 8.3C117.515 8.568 117.886 8.95213 118.145 9.4524C118.413 9.94373 118.547 10.511 118.547 11.1542C118.547 11.4401 118.52 11.7304 118.467 12.0252H113.857C113.938 12.5433 114.125 12.9364 114.42 13.2044C114.715 13.4635 115.081 13.593 115.519 13.593C115.831 13.593 116.108 13.526 116.35 13.392C116.6 13.2491 116.792 13.0391 116.926 12.7622L118.293 13.5662C118.105 14.0754 117.743 14.4685 117.207 14.7454C116.68 15.0223 116.09 15.1608 115.438 15.1608C114.813 15.1608 114.232 15.0223 113.696 14.7454C113.16 14.4685 112.727 14.0531 112.397 13.4992C112.075 12.9453 111.914 12.2798 111.914 11.5026C111.914 10.7343 112.075 10.0777 112.397 9.5328C112.727 8.98787 113.156 8.57693 113.683 8.3C114.21 8.02307 114.782 7.8846 115.398 7.8846ZM115.345 9.3988C114.978 9.3988 114.666 9.51493 114.407 9.7472C114.147 9.97947 113.973 10.3055 113.884 10.7254H116.644C116.609 10.2966 116.47 9.97053 116.229 9.7472C115.997 9.51493 115.702 9.3988 115.345 9.3988ZM125.486 8.0588L126.933 12.387L128.3 8.0588H130.109L127.576 14.9866H126.249L124.668 10.7656L123.154 14.9866H121.814L119.188 8.0588H121.104L122.564 12.4406L123.931 8.0588H125.486ZM138.973 5.1912C139.75 5.1912 140.429 5.3252 141.009 5.5932C141.59 5.8612 142.037 6.24087 142.349 6.7322C142.671 7.2146 142.832 7.78187 142.832 8.434C142.832 9.0772 142.671 9.64447 142.349 10.1358C142.037 10.6182 141.59 10.9934 141.009 11.2614C140.429 11.5205 139.75 11.65 138.973 11.65H137.539V15H135.596V5.1912H138.973ZM138.758 10.0018C139.366 10.0018 139.853 9.87227 140.219 9.6132C140.585 9.3452 140.768 8.95213 140.768 8.434C140.768 7.91587 140.585 7.5228 140.219 7.2548C139.853 6.97787 139.366 6.8394 138.758 6.8394H137.539V10.0018H138.758ZM143.651 11.5294C143.651 10.8058 143.812 10.1671 144.133 9.6132C144.464 9.05933 144.902 8.635 145.447 8.3402C145.992 8.03647 146.581 7.8846 147.215 7.8846C147.841 7.8846 148.421 8.03647 148.957 8.3402C149.502 8.635 149.936 9.05933 150.257 9.6132C150.588 10.1671 150.753 10.8058 150.753 11.5294C150.753 12.253 150.588 12.8917 150.257 13.4456C149.936 13.9995 149.502 14.4238 148.957 14.7186C148.421 15.0134 147.841 15.1608 147.215 15.1608C146.581 15.1608 145.992 15.0134 145.447 14.7186C144.902 14.4238 144.464 13.9995 144.133 13.4456C143.812 12.8917 143.651 12.253 143.651 11.5294ZM145.581 11.5294C145.581 12.1458 145.732 12.6371 146.036 13.0034C146.349 13.3607 146.737 13.5394 147.202 13.5394C147.667 13.5394 148.051 13.3607 148.354 13.0034C148.658 12.6371 148.81 12.1458 148.81 11.5294C148.81 10.913 148.658 10.4217 148.354 10.0554C148.051 9.68913 147.667 9.506 147.202 9.506C146.737 9.506 146.349 9.68913 146.036 10.0554C145.732 10.4217 145.581 10.913 145.581 11.5294ZM152.099 11.5294C152.099 10.8058 152.26 10.1671 152.581 9.6132C152.912 9.05933 153.35 8.635 153.894 8.3402C154.439 8.03647 155.029 7.8846 155.663 7.8846C156.289 7.8846 156.869 8.03647 157.405 8.3402C157.95 8.635 158.383 9.05933 158.705 9.6132C159.036 10.1671 159.201 10.8058 159.201 11.5294C159.201 12.253 159.036 12.8917 158.705 13.4456C158.383 13.9995 157.95 14.4238 157.405 14.7186C156.869 15.0134 156.289 15.1608 155.663 15.1608C155.029 15.1608 154.439 15.0134 153.894 14.7186C153.35 14.4238 152.912 13.9995 152.581 13.4456C152.26 12.8917 152.099 12.253 152.099 11.5294ZM154.028 11.5294C154.028 12.1458 154.18 12.6371 154.484 13.0034C154.797 13.3607 155.185 13.5394 155.65 13.5394C156.114 13.5394 156.499 13.3607 156.802 13.0034C157.106 12.6371 157.258 12.1458 157.258 11.5294C157.258 10.913 157.106 10.4217 156.802 10.0554C156.499 9.68913 156.114 9.506 155.65 9.506C155.185 9.506 154.797 9.68913 154.484 10.0554C154.18 10.4217 154.028 10.913 154.028 11.5294ZM162.811 15H160.949V4.8026H162.811V15ZM167.686 15L171.357 5.1912H173.153L169.481 15H167.686ZM184.193 9.908C185.274 10.2921 185.814 11.047 185.814 12.1726C185.814 13.057 185.488 13.7493 184.836 14.2496C184.193 14.7499 183.286 15 182.116 15H178.203V5.1912H181.754C182.799 5.1912 183.648 5.4324 184.3 5.9148C184.961 6.38827 185.292 7.05827 185.292 7.9248C185.292 8.82707 184.926 9.48813 184.193 9.908ZM180.106 6.8796V9.1978H181.567C182.094 9.1978 182.509 9.0906 182.813 8.8762C183.126 8.65287 183.282 8.35807 183.282 7.9918C183.282 7.63447 183.13 7.362 182.826 7.1744C182.523 6.97787 182.103 6.8796 181.567 6.8796H180.106ZM181.955 13.3116C182.545 13.3116 182.996 13.2044 183.309 12.99C183.63 12.7756 183.791 12.4719 183.791 12.0788C183.791 11.6857 183.63 11.3775 183.309 11.1542C182.996 10.9309 182.54 10.8192 181.942 10.8192H180.106V13.3116H181.955ZM192.039 8.0588H193.902V15H192.254C192.218 14.464 192.182 14.1022 192.146 13.9146C191.914 14.3345 191.61 14.6471 191.235 14.8526C190.86 15.0581 190.431 15.1608 189.949 15.1608C189.172 15.1608 188.56 14.9107 188.113 14.4104C187.666 13.9101 187.443 13.1776 187.443 12.2128V8.0588H189.306V11.5964C189.306 12.8739 189.717 13.5126 190.538 13.5126C190.985 13.5126 191.347 13.3384 191.624 12.99C191.901 12.6416 192.039 12.1547 192.039 11.5294V8.0588ZM200.794 8.0588H202.737L199.615 15.9112C199.285 16.742 198.896 17.3405 198.449 17.7068C198.012 18.082 197.462 18.2696 196.801 18.2696C196.48 18.2696 196.176 18.2205 195.89 18.1222C195.613 18.0329 195.372 17.9078 195.166 17.747L195.903 16.3266C196.171 16.5231 196.466 16.6214 196.788 16.6214C196.993 16.6214 197.167 16.5767 197.31 16.4874C197.462 16.407 197.605 16.2596 197.739 16.0452C197.873 15.8397 198.03 15.5315 198.208 15.1206L195.193 8.0588H197.284L199.119 12.8426L200.794 8.0588ZM209.807 5.1912L214.564 11.6768V5.1912H216.373V15H214.792L210.021 8.501V15H208.239V5.1912H209.807ZM218.82 5.1912H225.212V6.893H220.763V9.3988H224.743V11.0872H220.763V15H218.82V5.1912ZM226.422 5.1912H234.328V6.9198H231.353V15H229.396V6.9198H226.422V5.1912ZM242.505 12.1592C242.505 12.8292 242.331 13.392 241.983 13.8476C241.643 14.2943 241.197 14.6248 240.643 14.8392C240.098 15.0536 239.513 15.1608 238.887 15.1608C237.976 15.1608 237.154 14.9509 236.422 14.531C235.689 14.1022 235.202 13.4992 234.961 12.722L236.542 11.8242C236.757 12.3245 237.069 12.7131 237.48 12.99C237.891 13.2669 238.383 13.4054 238.954 13.4054C239.419 13.4054 239.785 13.3116 240.053 13.124C240.33 12.9364 240.468 12.6639 240.468 12.3066C240.468 12.0207 240.375 11.784 240.187 11.5964C240.008 11.4088 239.781 11.2614 239.504 11.1542C239.236 11.047 238.865 10.9219 238.391 10.779C237.757 10.5914 237.239 10.4083 236.837 10.2296C236.435 10.042 236.091 9.76507 235.805 9.3988C235.519 9.03253 235.376 8.55013 235.376 7.9516C235.376 7.31733 235.542 6.78133 235.872 6.3436C236.212 5.89693 236.654 5.5664 237.199 5.352C237.753 5.12867 238.347 5.017 238.981 5.017C239.848 5.017 240.589 5.21353 241.205 5.6066C241.822 5.99967 242.219 6.5312 242.398 7.2012L240.817 8.099C240.656 7.67913 240.415 7.35307 240.093 7.1208C239.772 6.8796 239.37 6.759 238.887 6.759C238.45 6.759 238.092 6.86173 237.815 7.0672C237.547 7.26373 237.413 7.52727 237.413 7.8578C237.413 8.10793 237.498 8.31787 237.668 8.4876C237.838 8.6484 238.052 8.7824 238.311 8.8896C238.579 8.98787 238.936 9.104 239.383 9.238C240.026 9.4256 240.558 9.61767 240.978 9.8142C241.398 10.0018 241.755 10.2877 242.05 10.6718C242.353 11.047 242.505 11.5428 242.505 12.1592Z" fill="white"/>
</g>
<defs>
<linearGradient id="paint0_linear_1705_14827" x1="35.489" y1="3.27445" x2="13.5946" y2="16.9993" gradientUnits="userSpaceOnUse">
<stop stop-color="#EA01E5"/>
<stop offset="0.437907" stop-color="#5844F5"/>
<stop offset="1" stop-color="#1CFEF0"/>
</linearGradient>
</defs>
</svg>
