<svg width="25" height="21" viewBox="0 0 25 21" fill="none" xmlns="http://www.w3.org/2000/svg">
<path id="Vector" d="M8.04776 20.1789C17.1048 20.1789 22.0577 12.6727 22.0577 6.16372C22.0577 5.95055 22.0535 5.73836 22.0439 5.52704C23.0076 4.82944 23.8393 3.96569 24.5 2.97631C23.6177 3.36869 22.6683 3.6328 21.6723 3.75187C22.6889 3.14207 23.4693 2.17733 23.8376 1.02739C22.8711 1.60099 21.8136 2.00535 20.7109 2.22304C19.8124 1.26557 18.5331 0.666748 17.1167 0.666748C14.3975 0.666748 12.1924 2.87269 12.1924 5.59187C12.1924 5.97845 12.2356 6.35436 12.3201 6.71504C8.22765 6.50904 4.59879 4.54895 2.17015 1.56851C1.73272 2.32023 1.50265 3.17457 1.50341 4.04431C1.50341 5.75328 2.37268 7.26192 3.69464 8.14461C2.91268 8.12061 2.14789 7.90941 1.46459 7.52848C1.46385 7.54915 1.46385 7.56928 1.46385 7.59141C1.46385 9.97688 3.16112 11.9686 5.4142 12.4199C4.99104 12.5353 4.55439 12.5935 4.1158 12.5933C3.79907 12.5933 3.49039 12.5621 3.19039 12.5045C3.81727 14.4617 5.63503 15.8859 7.7902 15.9257C6.10488 17.2471 3.98191 18.0342 1.67453 18.0342C1.28203 18.0345 0.889827 18.0118 0.5 17.9659C2.67921 19.3633 5.26659 20.1789 8.04776 20.1789Z" fill="white"/>
</svg>
